%TF.GenerationSoftware,KiCad,Pcbnew,10.0.1*%
%TF.CreationDate,2026-07-25T14:28:36+04:00*%
%TF.ProjectId,digital card,64696769-7461-46c2-9063-6172642e6b69,rev?*%
%TF.SameCoordinates,Original*%
%TF.FileFunction,Copper,L2,Bot*%
%TF.FilePolarity,Positive*%
%FSLAX46Y46*%
G04 Gerber Fmt 4.6, Leading zero omitted, Abs format (unit mm)*
G04 Created by KiCad (PCBNEW 10.0.1) date 2026-07-25 14:28:36*
%MOMM*%
%LPD*%
G01*
G04 APERTURE LIST*
G04 Aperture macros list*
%AMRoundRect*
0 Rectangle with rounded corners*
0 $1 Rounding radius*
0 $2 $3 $4 $5 $6 $7 $8 $9 X,Y pos of 4 corners*
0 Add a 4 corners polygon primitive as box body*
4,1,4,$2,$3,$4,$5,$6,$7,$8,$9,$2,$3,0*
0 Add four circle primitives for the rounded corners*
1,1,$1+$1,$2,$3*
1,1,$1+$1,$4,$5*
1,1,$1+$1,$6,$7*
1,1,$1+$1,$8,$9*
0 Add four rect primitives between the rounded corners*
20,1,$1+$1,$2,$3,$4,$5,0*
20,1,$1+$1,$4,$5,$6,$7,0*
20,1,$1+$1,$6,$7,$8,$9,0*
20,1,$1+$1,$8,$9,$2,$3,0*%
%AMRotRect*
0 Rectangle, with rotation*
0 The origin of the aperture is its center*
0 $1 length*
0 $2 width*
0 $3 Rotation angle, in degrees counterclockwise*
0 Add horizontal line*
21,1,$1,$2,0,0,$3*%
%AMFreePoly0*
4,1,6,0.725000,-0.725000,-0.125000,-0.725000,-0.725000,-0.125000,-0.725000,0.725000,0.725000,0.725000,0.725000,-0.725000,0.725000,-0.725000,$1*%
G04 Aperture macros list end*
%TA.AperFunction,ComponentPad*%
%ADD10C,0.700000*%
%TD*%
%TA.AperFunction,SMDPad,CuDef*%
%ADD11RoundRect,0.225000X0.250000X-0.225000X0.250000X0.225000X-0.250000X0.225000X-0.250000X-0.225000X0*%
%TD*%
%TA.AperFunction,SMDPad,CuDef*%
%ADD12RoundRect,0.200000X0.200000X0.275000X-0.200000X0.275000X-0.200000X-0.275000X0.200000X-0.275000X0*%
%TD*%
%TA.AperFunction,SMDPad,CuDef*%
%ADD13RoundRect,0.225000X-0.225000X-0.250000X0.225000X-0.250000X0.225000X0.250000X-0.225000X0.250000X0*%
%TD*%
%TA.AperFunction,SMDPad,CuDef*%
%ADD14RoundRect,0.218750X-0.256250X0.218750X-0.256250X-0.218750X0.256250X-0.218750X0.256250X0.218750X0*%
%TD*%
%TA.AperFunction,SMDPad,CuDef*%
%ADD15RoundRect,0.250000X-0.250000X-0.475000X0.250000X-0.475000X0.250000X0.475000X-0.250000X0.475000X0*%
%TD*%
%TA.AperFunction,SMDPad,CuDef*%
%ADD16RoundRect,0.250000X0.262500X0.450000X-0.262500X0.450000X-0.262500X-0.450000X0.262500X-0.450000X0*%
%TD*%
%TA.AperFunction,SMDPad,CuDef*%
%ADD17RoundRect,0.250000X-0.262500X-0.450000X0.262500X-0.450000X0.262500X0.450000X-0.262500X0.450000X0*%
%TD*%
%TA.AperFunction,SMDPad,CuDef*%
%ADD18RoundRect,0.225000X0.225000X0.250000X-0.225000X0.250000X-0.225000X-0.250000X0.225000X-0.250000X0*%
%TD*%
%TA.AperFunction,SMDPad,CuDef*%
%ADD19R,1.200000X0.300000*%
%TD*%
%TA.AperFunction,SMDPad,CuDef*%
%ADD20R,3.300000X2.200000*%
%TD*%
%TA.AperFunction,SMDPad,CuDef*%
%ADD21R,1.230000X1.860000*%
%TD*%
%TA.AperFunction,SMDPad,CuDef*%
%ADD22RoundRect,0.250000X-0.450000X0.262500X-0.450000X-0.262500X0.450000X-0.262500X0.450000X0.262500X0*%
%TD*%
%TA.AperFunction,SMDPad,CuDef*%
%ADD23RoundRect,0.062500X0.062500X-0.350000X0.062500X0.350000X-0.062500X0.350000X-0.062500X-0.350000X0*%
%TD*%
%TA.AperFunction,SMDPad,CuDef*%
%ADD24RoundRect,0.062500X0.350000X-0.062500X0.350000X0.062500X-0.350000X0.062500X-0.350000X-0.062500X0*%
%TD*%
%TA.AperFunction,HeatsinkPad*%
%ADD25R,2.500000X2.500000*%
%TD*%
%TA.AperFunction,SMDPad,CuDef*%
%ADD26RoundRect,0.250000X0.250000X0.475000X-0.250000X0.475000X-0.250000X-0.475000X0.250000X-0.475000X0*%
%TD*%
%TA.AperFunction,SMDPad,CuDef*%
%ADD27RoundRect,0.250000X0.250000X1.500000X-0.250000X1.500000X-0.250000X-1.500000X0.250000X-1.500000X0*%
%TD*%
%TA.AperFunction,SMDPad,CuDef*%
%ADD28RoundRect,0.250001X0.499999X1.449999X-0.499999X1.449999X-0.499999X-1.449999X0.499999X-1.449999X0*%
%TD*%
%TA.AperFunction,SMDPad,CuDef*%
%ADD29RotRect,1.300000X1.300000X315.000000*%
%TD*%
%TA.AperFunction,SMDPad,CuDef*%
%ADD30RoundRect,0.225000X0.225000X0.375000X-0.225000X0.375000X-0.225000X-0.375000X0.225000X-0.375000X0*%
%TD*%
%TA.AperFunction,SMDPad,CuDef*%
%ADD31RoundRect,0.250000X0.450000X-0.262500X0.450000X0.262500X-0.450000X0.262500X-0.450000X-0.262500X0*%
%TD*%
%TA.AperFunction,SMDPad,CuDef*%
%ADD32RoundRect,0.033750X0.101250X-0.346250X0.101250X0.346250X-0.101250X0.346250X-0.101250X-0.346250X0*%
%TD*%
%TA.AperFunction,SMDPad,CuDef*%
%ADD33R,1.300000X0.900000*%
%TD*%
%TA.AperFunction,SMDPad,CuDef*%
%ADD34RoundRect,0.200000X-0.275000X0.200000X-0.275000X-0.200000X0.275000X-0.200000X0.275000X0.200000X0*%
%TD*%
%TA.AperFunction,SMDPad,CuDef*%
%ADD35RoundRect,0.250000X0.475000X-0.250000X0.475000X0.250000X-0.475000X0.250000X-0.475000X-0.250000X0*%
%TD*%
%TA.AperFunction,SMDPad,CuDef*%
%ADD36R,0.800000X0.400000*%
%TD*%
%TA.AperFunction,SMDPad,CuDef*%
%ADD37R,0.400000X0.800000*%
%TD*%
%TA.AperFunction,SMDPad,CuDef*%
%ADD38R,1.450000X1.450000*%
%TD*%
%TA.AperFunction,SMDPad,CuDef*%
%ADD39FreePoly0,180.000000*%
%TD*%
%TA.AperFunction,SMDPad,CuDef*%
%ADD40R,0.700000X0.700000*%
%TD*%
%TA.AperFunction,SMDPad,CuDef*%
%ADD41RoundRect,0.225000X-0.250000X0.225000X-0.250000X-0.225000X0.250000X-0.225000X0.250000X0.225000X0*%
%TD*%
%TA.AperFunction,SMDPad,CuDef*%
%ADD42RoundRect,0.150000X0.150000X-0.512500X0.150000X0.512500X-0.150000X0.512500X-0.150000X-0.512500X0*%
%TD*%
%TA.AperFunction,SMDPad,CuDef*%
%ADD43RoundRect,0.059400X0.050600X-0.295600X0.050600X0.295600X-0.050600X0.295600X-0.050600X-0.295600X0*%
%TD*%
%TA.AperFunction,SMDPad,CuDef*%
%ADD44RoundRect,0.059400X0.050600X-0.290600X0.050600X0.290600X-0.050600X0.290600X-0.050600X-0.290600X0*%
%TD*%
%TA.AperFunction,SMDPad,CuDef*%
%ADD45RoundRect,0.059400X0.290600X-0.050600X0.290600X0.050600X-0.290600X0.050600X-0.290600X-0.050600X0*%
%TD*%
%TA.AperFunction,SMDPad,CuDef*%
%ADD46R,0.500000X0.780000*%
%TD*%
%TA.AperFunction,SMDPad,CuDef*%
%ADD47RoundRect,0.150000X0.150000X0.575000X-0.150000X0.575000X-0.150000X-0.575000X0.150000X-0.575000X0*%
%TD*%
%TA.AperFunction,SMDPad,CuDef*%
%ADD48RoundRect,0.075000X0.075000X0.650000X-0.075000X0.650000X-0.075000X-0.650000X0.075000X-0.650000X0*%
%TD*%
%TA.AperFunction,ComponentPad*%
%ADD49O,1.000000X1.600000*%
%TD*%
%TA.AperFunction,ComponentPad*%
%ADD50O,1.000000X2.100000*%
%TD*%
%TA.AperFunction,ViaPad*%
%ADD51C,0.600000*%
%TD*%
%TA.AperFunction,Conductor*%
%ADD52C,0.600000*%
%TD*%
%TA.AperFunction,Conductor*%
%ADD53C,0.250000*%
%TD*%
%TA.AperFunction,Conductor*%
%ADD54C,0.300000*%
%TD*%
%TA.AperFunction,Conductor*%
%ADD55C,0.400000*%
%TD*%
%TA.AperFunction,Conductor*%
%ADD56C,0.200000*%
%TD*%
G04 APERTURE END LIST*
D10*
%TO.P,AE1,1*%
%TO.N,Net-(U4-LA)*%
X145360000Y-85280000D03*
%TO.P,AE1,2*%
%TO.N,Net-(U4-LB)*%
X151660000Y-109980000D03*
%TD*%
D11*
%TO.P,C22,1*%
%TO.N,/VGH*%
X95352500Y-108075000D03*
%TO.P,C22,2*%
%TO.N,GND*%
X95352500Y-106525000D03*
%TD*%
D12*
%TO.P,R5,1*%
%TO.N,Net-(U1-GPIO18{slash}USB_D-)*%
X85045000Y-90080000D03*
%TO.P,R5,2*%
%TO.N,Net-(C6-Pad1)*%
X83395000Y-90080000D03*
%TD*%
%TO.P,R14,1*%
%TO.N,Net-(U7-STAT1{slash}~{LBO})*%
X90425000Y-121500000D03*
%TO.P,R14,2*%
%TO.N,Net-(D3-K)*%
X88775000Y-121500000D03*
%TD*%
D13*
%TO.P,C11,1*%
%TO.N,/VBUS*%
X96225000Y-129500000D03*
%TO.P,C11,2*%
%TO.N,GND*%
X97775000Y-129500000D03*
%TD*%
D14*
%TO.P,D2,1,K_1*%
%TO.N,Net-(D2-K)*%
X87000000Y-126612500D03*
%TO.P,D2,2,A_2*%
%TO.N,/VBUS*%
X87000000Y-128187500D03*
%TD*%
D15*
%TO.P,C10,1*%
%TO.N,/Charger 5V*%
X105050000Y-126000000D03*
%TO.P,C10,2*%
%TO.N,GND*%
X106950000Y-126000000D03*
%TD*%
D16*
%TO.P,R16,1*%
%TO.N,/RESE*%
X90432500Y-114730000D03*
%TO.P,R16,2*%
%TO.N,GND*%
X88607500Y-114730000D03*
%TD*%
D12*
%TO.P,R13,1*%
%TO.N,Net-(U7-~{PG})*%
X90425000Y-125500000D03*
%TO.P,R13,2*%
%TO.N,Net-(D2-K)*%
X88775000Y-125500000D03*
%TD*%
D17*
%TO.P,R17,1*%
%TO.N,+3.3V*%
X97087500Y-99000000D03*
%TO.P,R17,2*%
%TO.N,/SCL*%
X98912500Y-99000000D03*
%TD*%
D12*
%TO.P,R4,1*%
%TO.N,Net-(U1-GPIO19{slash}USB_D+)*%
X85120000Y-87890000D03*
%TO.P,R4,2*%
%TO.N,Net-(C5-Pad1)*%
X83470000Y-87890000D03*
%TD*%
D18*
%TO.P,C20,1*%
%TO.N,GND*%
X84727500Y-109850000D03*
%TO.P,C20,2*%
%TO.N,/VGL*%
X83177500Y-109850000D03*
%TD*%
D19*
%TO.P,J3,1,Pin_1_1*%
%TO.N,/VCOM*%
X73000000Y-115000000D03*
%TO.P,J3,2,Pin_2_2*%
%TO.N,/VGL*%
X73000000Y-114500000D03*
%TO.P,J3,3,Pin_3_3*%
%TO.N,/VSL*%
X73000000Y-114000000D03*
%TO.P,J3,4,Pin_4_4*%
%TO.N,/VGH*%
X73000000Y-113500000D03*
%TO.P,J3,5,Pin_5_5*%
%TO.N,/VSH1*%
X73000000Y-113000000D03*
%TO.P,J3,6,Pin_6_6*%
%TO.N,unconnected-(J3-Pin_6-Pad6)*%
X73000000Y-112500000D03*
%TO.P,J3,7,Pin_7_7*%
%TO.N,/VDD*%
X73000000Y-112000000D03*
%TO.P,J3,8,Pin_8_8*%
%TO.N,GND*%
X73000000Y-111500000D03*
%TO.P,J3,9,Pin_9_9*%
%TO.N,/VCI*%
X73000000Y-111000000D03*
%TO.P,J3,10,Pin_10_10*%
X73000000Y-110500000D03*
%TO.P,J3,11,Pin_11_11*%
%TO.N,/EPDDATA*%
X73000000Y-110000000D03*
%TO.P,J3,12,Pin_12_12*%
%TO.N,/EPDCLK*%
X73000000Y-109500000D03*
%TO.P,J3,13,Pin_13_13*%
%TO.N,/CS#*%
X73000000Y-109000000D03*
%TO.P,J3,14,Pin_14_14*%
%TO.N,/D{slash}C#*%
X73000000Y-108500000D03*
%TO.P,J3,15,Pin_15_15*%
%TO.N,/RES#*%
X73000000Y-108000000D03*
%TO.P,J3,16,Pin_16_16*%
%TO.N,/BUSY*%
X73000000Y-107500000D03*
%TO.P,J3,17,Pin_17_17*%
%TO.N,GND*%
X73000000Y-107000000D03*
%TO.P,J3,18,Pin_18_18*%
%TO.N,unconnected-(J3-Pin_18-Pad18)*%
X73000000Y-106500000D03*
%TO.P,J3,19,Pin_19_19*%
%TO.N,unconnected-(J3-Pin_19-Pad19)*%
X73000000Y-106000000D03*
%TO.P,J3,20,Pin_20_20*%
%TO.N,/VSH2*%
X73000000Y-105500000D03*
%TO.P,J3,21,Pin_21_21*%
%TO.N,unconnected-(J3-Pin_21-Pad21)*%
X73000000Y-105000000D03*
%TO.P,J3,22,Pin_22_22*%
%TO.N,/RESE*%
X73000000Y-104500000D03*
%TO.P,J3,23,Pin_23_23*%
%TO.N,/GDR*%
X73000000Y-104000000D03*
%TO.P,J3,24,Pin_24_24*%
%TO.N,unconnected-(J3-Pin_24-Pad24)*%
X73000000Y-103500000D03*
D20*
%TO.P,J3,25*%
%TO.N,N/C*%
X70460000Y-116650000D03*
%TO.P,J3,26*%
X70470000Y-101850000D03*
%TD*%
D21*
%TO.P,SW1,1,1_1*%
%TO.N,GND*%
X108810000Y-90730000D03*
%TO.P,SW1,2,2_2*%
%TO.N,Net-(C1-Pad2)*%
X104450000Y-90730000D03*
%TD*%
D14*
%TO.P,D3,1,K_1*%
%TO.N,Net-(D3-K)*%
X83000000Y-126612500D03*
%TO.P,D3,2,A_2*%
%TO.N,/VBUS*%
X83000000Y-128187500D03*
%TD*%
D16*
%TO.P,R3,1*%
%TO.N,+3.3V*%
X129792500Y-86630000D03*
%TO.P,R3,2*%
%TO.N,/RES#*%
X127967500Y-86630000D03*
%TD*%
D22*
%TO.P,R9,1*%
%TO.N,+3.3V*%
X134720000Y-86700000D03*
%TO.P,R9,2*%
%TO.N,/FD*%
X134720000Y-88525000D03*
%TD*%
D18*
%TO.P,C16,1*%
%TO.N,GND*%
X79500000Y-110500000D03*
%TO.P,C16,2*%
%TO.N,/VDD*%
X77950000Y-110500000D03*
%TD*%
D23*
%TO.P,U7,1,OUT_1*%
%TO.N,/Charger 5V*%
X96475000Y-125262500D03*
%TO.P,U7,2,VPCC_2*%
%TO.N,/VBUS*%
X95975000Y-125262500D03*
%TO.P,U7,3,SEL_3*%
%TO.N,GND*%
X95475000Y-125262500D03*
%TO.P,U7,4,PROG2_4*%
%TO.N,/Charger 5V*%
X94975000Y-125262500D03*
%TO.P,U7,5,THERM_5*%
%TO.N,Net-(U7-THERM)*%
X94475000Y-125262500D03*
D24*
%TO.P,U7,6,~{PG}_6*%
%TO.N,Net-(U7-~{PG})*%
X93537500Y-124325000D03*
%TO.P,U7,7,STAT2_7*%
%TO.N,Net-(U7-STAT2)*%
X93537500Y-123825000D03*
%TO.P,U7,8,STAT1/~{LBO}_8*%
%TO.N,Net-(U7-STAT1{slash}~{LBO})*%
X93537500Y-123325000D03*
%TO.P,U7,9,~{TE}_9*%
%TO.N,GND*%
X93537500Y-122825000D03*
%TO.P,U7,10,V_{SS}_10*%
X93537500Y-122325000D03*
D23*
%TO.P,U7,11,V_{SS}_11*%
X94475000Y-121387500D03*
%TO.P,U7,12,PROG3_12*%
%TO.N,Net-(U7-PROG3)*%
X94975000Y-121387500D03*
%TO.P,U7,13,PROG1_13*%
%TO.N,Net-(U7-PROG1)*%
X95475000Y-121387500D03*
%TO.P,U7,14,V_{BAT}_14*%
%TO.N,/VBAT*%
X95975000Y-121387500D03*
%TO.P,U7,15,V_{BAT}_15*%
X96475000Y-121387500D03*
D24*
%TO.P,U7,16,V_{BAT_SENSE}_16*%
X97412500Y-122325000D03*
%TO.P,U7,17,CE_17*%
%TO.N,/Charger 5V*%
X97412500Y-122825000D03*
%TO.P,U7,18,IN_18*%
%TO.N,/VBUS*%
X97412500Y-123325000D03*
%TO.P,U7,19,IN_19*%
X97412500Y-123825000D03*
%TO.P,U7,20,OUT_20*%
%TO.N,/Charger 5V*%
X97412500Y-124325000D03*
D25*
%TO.P,U7,21,EP_21*%
%TO.N,GND*%
X95475000Y-123325000D03*
%TD*%
D13*
%TO.P,C6,1*%
%TO.N,Net-(C6-Pad1)*%
X77395000Y-126310000D03*
%TO.P,C6,2*%
%TO.N,GND*%
X78945000Y-126310000D03*
%TD*%
%TO.P,C7,1*%
%TO.N,/VBAT*%
X101225000Y-122000000D03*
%TO.P,C7,2*%
%TO.N,GND*%
X102775000Y-122000000D03*
%TD*%
D26*
%TO.P,C18,1*%
%TO.N,GND*%
X79850000Y-115975000D03*
%TO.P,C18,2*%
%TO.N,/VCOM*%
X77950000Y-115975000D03*
%TD*%
D13*
%TO.P,C23,1*%
%TO.N,GND*%
X82937500Y-111650000D03*
%TO.P,C23,2*%
%TO.N,/VCI*%
X84487500Y-111650000D03*
%TD*%
D27*
%TO.P,J2,1,Pin_1_1*%
%TO.N,GND*%
X107000000Y-131150000D03*
%TO.P,J2,2,Pin_2_2*%
%TO.N,/VBAT*%
X105000000Y-131150000D03*
D28*
%TO.P,J2,MP*%
%TO.N,N/C*%
X109350000Y-136900000D03*
X102650000Y-136900000D03*
%TD*%
D26*
%TO.P,C24,1*%
%TO.N,GND*%
X94450000Y-99000000D03*
%TO.P,C24,2*%
%TO.N,Net-(U1-GPIO9)*%
X92550000Y-99000000D03*
%TD*%
D29*
%TO.P,L1,1,1_1*%
%TO.N,/VCI*%
X86132500Y-112910000D03*
%TO.P,L1,2,2_2*%
%TO.N,Net-(D6-A)*%
X88252500Y-110790000D03*
%TD*%
D30*
%TO.P,D5,1,K_1*%
%TO.N,GND*%
X92882500Y-105360000D03*
%TO.P,D5,2,A_2*%
%TO.N,Net-(D1-K)*%
X89582500Y-105360000D03*
%TD*%
D18*
%TO.P,C19,1*%
%TO.N,GND*%
X79475000Y-114025000D03*
%TO.P,C19,2*%
%TO.N,/VSL*%
X77925000Y-114025000D03*
%TD*%
D31*
%TO.P,R19,1*%
%TO.N,+3.3V*%
X88500000Y-100412500D03*
%TO.P,R19,2*%
%TO.N,Net-(U1-GPIO9)*%
X88500000Y-98587500D03*
%TD*%
D12*
%TO.P,R15,1*%
%TO.N,Net-(U7-STAT2)*%
X90425000Y-123500000D03*
%TO.P,R15,2*%
%TO.N,Net-(D4-K)*%
X88775000Y-123500000D03*
%TD*%
D26*
%TO.P,C9,1*%
%TO.N,+3.3V*%
X107950000Y-113000000D03*
%TO.P,C9,2*%
%TO.N,GND*%
X106050000Y-113000000D03*
%TD*%
D32*
%TO.P,U2,1,CTG_1*%
%TO.N,GND*%
X103000000Y-116970000D03*
%TO.P,U2,2,CELL_2*%
%TO.N,/VBAT*%
X102500000Y-116970000D03*
%TO.P,U2,3,VDD_3*%
X102000000Y-116970000D03*
%TO.P,U2,4,GND_4*%
%TO.N,GND*%
X101500000Y-116970000D03*
%TO.P,U2,5,~{ALERT}_5*%
%TO.N,/Alert*%
X101500000Y-115000000D03*
%TO.P,U2,6,QSTRT_6*%
%TO.N,GND*%
X102000000Y-115000000D03*
%TO.P,U2,7,SCL_7*%
%TO.N,/SCL*%
X102500000Y-115000000D03*
%TO.P,U2,8,SDA_8*%
%TO.N,/SDA*%
X103000000Y-115000000D03*
D33*
%TO.P,U2,9,EP_9*%
%TO.N,GND*%
X102250000Y-115985000D03*
%TD*%
D22*
%TO.P,R2,1*%
%TO.N,Net-(U1-EN{slash}CHIP_PU)*%
X109810000Y-95227500D03*
%TO.P,R2,2*%
%TO.N,+3.3V*%
X109810000Y-97052500D03*
%TD*%
D11*
%TO.P,C2,1*%
%TO.N,+3.3V*%
X104000000Y-83525000D03*
%TO.P,C2,2*%
%TO.N,GND*%
X104000000Y-81975000D03*
%TD*%
D14*
%TO.P,D4,1,K_1*%
%TO.N,Net-(D4-K)*%
X85000000Y-126612500D03*
%TO.P,D4,2,A_2*%
%TO.N,/VBUS*%
X85000000Y-128187500D03*
%TD*%
D18*
%TO.P,C5,1*%
%TO.N,Net-(C5-Pad1)*%
X75805000Y-126320000D03*
%TO.P,C5,2*%
%TO.N,GND*%
X74255000Y-126320000D03*
%TD*%
D34*
%TO.P,R6,1*%
%TO.N,GND*%
X74780000Y-127905000D03*
%TO.P,R6,2*%
%TO.N,Net-(J1-CC2)*%
X74780000Y-129555000D03*
%TD*%
D17*
%TO.P,R8,1*%
%TO.N,/Alert*%
X102175000Y-111000000D03*
%TO.P,R8,2*%
%TO.N,+3.3V*%
X104000000Y-111000000D03*
%TD*%
D35*
%TO.P,C3,1*%
%TO.N,+3.3V*%
X101500000Y-83450000D03*
%TO.P,C3,2*%
%TO.N,GND*%
X101500000Y-81550000D03*
%TD*%
D34*
%TO.P,R7,1*%
%TO.N,GND*%
X78310000Y-127895000D03*
%TO.P,R7,2*%
%TO.N,Net-(J1-CC1)*%
X78310000Y-129545000D03*
%TD*%
D26*
%TO.P,C4,1*%
%TO.N,Net-(U1-EN{slash}CHIP_PU)*%
X107080000Y-95090000D03*
%TO.P,C4,2*%
%TO.N,GND*%
X105180000Y-95090000D03*
%TD*%
D13*
%TO.P,C12,1*%
%TO.N,GND*%
X92875000Y-127050000D03*
%TO.P,C12,2*%
%TO.N,/Charger 5V*%
X94425000Y-127050000D03*
%TD*%
D18*
%TO.P,C13,1*%
%TO.N,Net-(U4-VOUT)*%
X138870000Y-85830000D03*
%TO.P,C13,2*%
%TO.N,GND*%
X137320000Y-85830000D03*
%TD*%
D30*
%TO.P,D6,1,K_1*%
%TO.N,/VGH*%
X93472500Y-108430000D03*
%TO.P,D6,2,A_2*%
%TO.N,Net-(D6-A)*%
X90172500Y-108430000D03*
%TD*%
D36*
%TO.P,U1,1,GND_1*%
%TO.N,GND*%
X98900000Y-82280000D03*
%TO.P,U1,2,GND_2*%
X98900000Y-83080000D03*
%TO.P,U1,3,3V3_3*%
%TO.N,+3.3V*%
X98900000Y-83880000D03*
%TO.P,U1,4,NC_4*%
%TO.N,unconnected-(U1-NC-Pad4)*%
X98900000Y-84680000D03*
%TO.P,U1,5,GPIO2/ADC1_CH2_5*%
%TO.N,/RES#*%
X98900000Y-85480000D03*
%TO.P,U1,6,GPIO3/ADC1_CH3_6*%
%TO.N,/FD*%
X98900000Y-86280000D03*
%TO.P,U1,7,NC_7*%
%TO.N,unconnected-(U1-NC-Pad7)*%
X98900000Y-87080000D03*
%TO.P,U1,8,EN/CHIP_PU_8*%
%TO.N,Net-(U1-EN{slash}CHIP_PU)*%
X98900000Y-87880000D03*
%TO.P,U1,9,NC_9*%
%TO.N,unconnected-(U1-NC-Pad9)*%
X98900000Y-88680000D03*
%TO.P,U1,10,NC_10*%
%TO.N,unconnected-(U1-NC-Pad10)*%
X98900000Y-89480000D03*
%TO.P,U1,11,GND_11*%
%TO.N,GND*%
X98900000Y-90280000D03*
D37*
%TO.P,U1,12,GPIO0/ADC1_CH0/XTAL_32K_P_12*%
%TO.N,/SDA*%
X97800000Y-91180000D03*
%TO.P,U1,13,GPIO1/ADC1_CH1/XTAL_32K_N_13*%
%TO.N,/SCL*%
X97000000Y-91180000D03*
%TO.P,U1,14,GND_14*%
%TO.N,GND*%
X96200000Y-91180000D03*
%TO.P,U1,15,NC_15*%
%TO.N,unconnected-(U1-NC-Pad15)*%
X95400000Y-91180000D03*
%TO.P,U1,16,GPIO10_16*%
%TO.N,/CS#*%
X94600000Y-91180000D03*
%TO.P,U1,17,NC_17*%
%TO.N,unconnected-(U1-NC-Pad17)*%
X93800000Y-91180000D03*
%TO.P,U1,18,GPIO4/ADC1_CH4_18*%
%TO.N,/Alert*%
X93000000Y-91180000D03*
%TO.P,U1,19,GPIO5/ADC2_CH0_19*%
%TO.N,/BUSY*%
X92200000Y-91180000D03*
%TO.P,U1,20,GPIO6_20*%
%TO.N,/EPDCLK*%
X91400000Y-91180000D03*
%TO.P,U1,21,GPIO7_21*%
%TO.N,/EPDDATA*%
X90600000Y-91180000D03*
%TO.P,U1,22,GPIO8_22*%
%TO.N,unconnected-(U1-GPIO8-Pad22)*%
X89800000Y-91180000D03*
%TO.P,U1,23,GPIO9_23*%
%TO.N,Net-(U1-GPIO9)*%
X89000000Y-91180000D03*
%TO.P,U1,24,NC_24*%
%TO.N,unconnected-(U1-NC-Pad24)*%
X88200000Y-91180000D03*
D36*
%TO.P,U1,25,NC_25*%
%TO.N,unconnected-(U1-NC-Pad25)*%
X87100000Y-90280000D03*
%TO.P,U1,26,GPIO18/USB_D-_26*%
%TO.N,Net-(U1-GPIO18{slash}USB_D-)*%
X87100000Y-89480000D03*
%TO.P,U1,27,GPIO19/USB_D+_27*%
%TO.N,Net-(U1-GPIO19{slash}USB_D+)*%
X87100000Y-88680000D03*
%TO.P,U1,28,NC_28*%
%TO.N,unconnected-(U1-NC-Pad28)*%
X87100000Y-87880000D03*
%TO.P,U1,29,NC_29*%
%TO.N,unconnected-(U1-NC-Pad29)*%
X87100000Y-87080000D03*
%TO.P,U1,30,GPIO20/U0RXD_30*%
%TO.N,/D{slash}C#*%
X87100000Y-86280000D03*
%TO.P,U1,31,GPIO21/U0TXD_31*%
%TO.N,unconnected-(U1-GPIO21{slash}U0TXD-Pad31)*%
X87100000Y-85480000D03*
%TO.P,U1,32,NC_32*%
%TO.N,unconnected-(U1-NC-Pad32)*%
X87100000Y-84680000D03*
%TO.P,U1,33,NC_33*%
%TO.N,unconnected-(U1-NC-Pad33)*%
X87100000Y-83880000D03*
%TO.P,U1,34,NC_34*%
%TO.N,unconnected-(U1-NC-Pad34)*%
X87100000Y-83080000D03*
%TO.P,U1,35,NC_35*%
%TO.N,unconnected-(U1-NC-Pad35)*%
X87100000Y-82280000D03*
D37*
%TO.P,U1,36,GND_36*%
%TO.N,GND*%
X88200000Y-81380000D03*
%TO.P,U1,37,GND_37*%
X89000000Y-81380000D03*
%TO.P,U1,38,GND_38*%
X89800000Y-81380000D03*
%TO.P,U1,39,GND_39*%
X90600000Y-81380000D03*
%TO.P,U1,40,GND_40*%
X91400000Y-81380000D03*
%TO.P,U1,41,GND_41*%
X92200000Y-81380000D03*
%TO.P,U1,42,GND_42*%
X93000000Y-81380000D03*
%TO.P,U1,43,GND_43*%
X93800000Y-81380000D03*
%TO.P,U1,44,GND_44*%
X94600000Y-81380000D03*
%TO.P,U1,45,GND_45*%
X95400000Y-81380000D03*
%TO.P,U1,46,GND_46*%
X96200000Y-81380000D03*
%TO.P,U1,47,GND_47*%
X97000000Y-81380000D03*
%TO.P,U1,48,GND_48*%
X97800000Y-81380000D03*
D38*
%TO.P,U1,49,GND_49*%
X94975000Y-88255000D03*
X94975000Y-86280000D03*
D39*
X94975000Y-84305000D03*
D38*
X93000000Y-88255000D03*
X93000000Y-86280000D03*
X93000000Y-84305000D03*
X91025000Y-88255000D03*
X91025000Y-86280000D03*
X91025000Y-84305000D03*
D40*
%TO.P,U1,50,GND_50*%
X87050000Y-81330000D03*
%TO.P,U1,51,GND_51*%
X87050000Y-91230000D03*
%TO.P,U1,52,GND_52*%
X98950000Y-91230000D03*
%TO.P,U1,53,GND_53*%
X98950000Y-81330000D03*
%TD*%
D26*
%TO.P,C8,1*%
%TO.N,/VBAT*%
X100450000Y-119000000D03*
%TO.P,C8,2*%
%TO.N,GND*%
X98550000Y-119000000D03*
%TD*%
D21*
%TO.P,SW2,1,1_1*%
%TO.N,GND*%
X96180000Y-96000000D03*
%TO.P,SW2,2,2_2*%
%TO.N,Net-(U1-GPIO9)*%
X91820000Y-96000000D03*
%TD*%
D11*
%TO.P,C21,1*%
%TO.N,Net-(D6-A)*%
X88132500Y-108885000D03*
%TO.P,C21,2*%
%TO.N,Net-(D1-K)*%
X88132500Y-107335000D03*
%TD*%
D41*
%TO.P,C14,1*%
%TO.N,Net-(U4-LB)*%
X141250000Y-88085000D03*
%TO.P,C14,2*%
%TO.N,Net-(U4-LA)*%
X141250000Y-89635000D03*
%TD*%
D42*
%TO.P,U3,1,VIN_1*%
%TO.N,/Charger 5V*%
X107950000Y-118637500D03*
%TO.P,U3,2,GND_2*%
%TO.N,GND*%
X107000000Y-118637500D03*
%TO.P,U3,3,EN_3*%
%TO.N,/Charger 5V*%
X106050000Y-118637500D03*
%TO.P,U3,4,NC_4*%
%TO.N,unconnected-(U3-NC-Pad4)*%
X106050000Y-116362500D03*
%TO.P,U3,5,VOUT_5*%
%TO.N,+3.3V*%
X107950000Y-116362500D03*
%TD*%
D34*
%TO.P,R11,1*%
%TO.N,GND*%
X94270000Y-118110000D03*
%TO.P,R11,2*%
%TO.N,Net-(U7-PROG3)*%
X94270000Y-119760000D03*
%TD*%
D11*
%TO.P,C15,1*%
%TO.N,GND*%
X78060000Y-106985000D03*
%TO.P,C15,2*%
%TO.N,/VSH2*%
X78060000Y-105435000D03*
%TD*%
D34*
%TO.P,R10,1*%
%TO.N,GND*%
X96270000Y-118110000D03*
%TO.P,R10,2*%
%TO.N,Net-(U7-PROG1)*%
X96270000Y-119760000D03*
%TD*%
D12*
%TO.P,R1,1*%
%TO.N,Net-(C1-Pad2)*%
X102650000Y-89900000D03*
%TO.P,R1,2*%
%TO.N,Net-(U1-EN{slash}CHIP_PU)*%
X101000000Y-89900000D03*
%TD*%
D43*
%TO.P,U4,1,LA_1*%
%TO.N,Net-(U4-LA)*%
X138860000Y-89540000D03*
%TO.P,U4,2,VSS_2*%
%TO.N,GND*%
X138360000Y-89540000D03*
D44*
%TO.P,U4,3,SCL_3*%
%TO.N,/SCL*%
X137860000Y-89540000D03*
D45*
%TO.P,U4,4,FD_4*%
%TO.N,/FD*%
X137665000Y-88845000D03*
D44*
%TO.P,U4,5,SDA_5*%
%TO.N,/SDA*%
X137860000Y-88150000D03*
%TO.P,U4,6,VCC_6*%
%TO.N,+3.3V*%
X138360000Y-88150000D03*
%TO.P,U4,7,VOUT_7*%
%TO.N,Net-(U4-VOUT)*%
X138860000Y-88150000D03*
D45*
%TO.P,U4,8,LB_8*%
%TO.N,Net-(U4-LB)*%
X139055000Y-88845000D03*
%TD*%
D16*
%TO.P,R12,1*%
%TO.N,Net-(U7-THERM)*%
X90662500Y-127360000D03*
%TO.P,R12,2*%
%TO.N,GND*%
X88837500Y-127360000D03*
%TD*%
D46*
%TO.P,Q2,1,G_1*%
%TO.N,/GDR*%
X91735000Y-112940000D03*
%TO.P,Q2,2,S_2*%
%TO.N,/RESE*%
X90435000Y-112940000D03*
%TO.P,Q2,3,D_3*%
%TO.N,Net-(D6-A)*%
X91085000Y-111260000D03*
%TD*%
D30*
%TO.P,D1,1,K_1*%
%TO.N,Net-(D1-K)*%
X86460000Y-107730000D03*
%TO.P,D1,2,A_2*%
%TO.N,/VGL*%
X83160000Y-107730000D03*
%TD*%
D47*
%TO.P,J1,A1,GND_A1*%
%TO.N,GND*%
X79730000Y-132365000D03*
%TO.P,J1,A4,VBUS_A4*%
%TO.N,/VBUS*%
X78930000Y-132365000D03*
D48*
%TO.P,J1,A5,CC1_A5*%
%TO.N,Net-(J1-CC1)*%
X77730000Y-132365000D03*
%TO.P,J1,A6,D+_A6*%
%TO.N,Net-(C5-Pad1)*%
X76730000Y-132365000D03*
%TO.P,J1,A7,D-_A7*%
%TO.N,Net-(C6-Pad1)*%
X76230000Y-132365000D03*
%TO.P,J1,A8,SBU1_A8*%
%TO.N,unconnected-(J1-SBU1-PadA8)*%
X75230000Y-132365000D03*
D47*
%TO.P,J1,A9,VBUS_A9*%
%TO.N,/VBUS*%
X74030000Y-132365000D03*
%TO.P,J1,A12,GND_A12*%
%TO.N,GND*%
X73230000Y-132365000D03*
%TO.P,J1,B1,GND_B1*%
X73230000Y-132365000D03*
%TO.P,J1,B4,VBUS_B4*%
%TO.N,/VBUS*%
X74030000Y-132365000D03*
D48*
%TO.P,J1,B5,CC2_B5*%
%TO.N,Net-(J1-CC2)*%
X74730000Y-132365000D03*
%TO.P,J1,B6,D+_B6*%
%TO.N,Net-(C5-Pad1)*%
X75730000Y-132365000D03*
%TO.P,J1,B7,D-_B7*%
%TO.N,Net-(C6-Pad1)*%
X77230000Y-132365000D03*
%TO.P,J1,B8,SBU2_B8*%
%TO.N,unconnected-(J1-SBU2-PadB8)*%
X78230000Y-132365000D03*
D47*
%TO.P,J1,B9,VBUS_B9*%
%TO.N,/VBUS*%
X78930000Y-132365000D03*
%TO.P,J1,B12,GND_B12*%
%TO.N,GND*%
X79730000Y-132365000D03*
D49*
%TO.P,J1,SH,SHIELD_SH*%
X80800000Y-137460000D03*
D50*
X80800000Y-133280000D03*
D49*
X72160000Y-137460000D03*
D50*
X72160000Y-133280000D03*
%TD*%
D26*
%TO.P,C1,1*%
%TO.N,GND*%
X107220000Y-88000000D03*
%TO.P,C1,2*%
%TO.N,Net-(C1-Pad2)*%
X105320000Y-88000000D03*
%TD*%
D16*
%TO.P,R18,1*%
%TO.N,+3.3V*%
X102912500Y-94000000D03*
%TO.P,R18,2*%
%TO.N,/SDA*%
X101087500Y-94000000D03*
%TD*%
D18*
%TO.P,C17,1*%
%TO.N,GND*%
X79475000Y-112250000D03*
%TO.P,C17,2*%
%TO.N,/VSH1*%
X77925000Y-112250000D03*
%TD*%
D51*
%TO.N,Net-(U4-LB)*%
X143670000Y-88970000D03*
X142413603Y-87673603D03*
%TO.N,/VGH*%
X95360000Y-109350000D03*
X80730000Y-113040000D03*
%TO.N,GND*%
X82937500Y-111650000D03*
X108810000Y-90730000D03*
X82250000Y-130750000D03*
X95475000Y-123325000D03*
X105180000Y-95090000D03*
X97775000Y-129500000D03*
X94700000Y-122550000D03*
X106950000Y-126000000D03*
X79500000Y-110500000D03*
X96180000Y-96000000D03*
X102775000Y-122000000D03*
X95475000Y-124250000D03*
X71500000Y-111500000D03*
X74255000Y-126320000D03*
X92882500Y-105360000D03*
X98550000Y-119000000D03*
X88607500Y-114730000D03*
X78945000Y-126310000D03*
X93000000Y-86280000D03*
X88837500Y-127360000D03*
X138000000Y-91000000D03*
X107000000Y-118637500D03*
X87050000Y-91230000D03*
X78060000Y-106985000D03*
X137320000Y-85830000D03*
%TO.N,Net-(C6-Pad1)*%
X85760000Y-101430000D03*
X82982581Y-98980260D03*
%TO.N,/Charger 5V*%
X102000000Y-126000000D03*
X98500000Y-125500000D03*
X94420000Y-128400000D03*
X99000000Y-123000000D03*
%TO.N,+3.3V*%
X132120000Y-86250000D03*
X134700000Y-85450000D03*
%TO.N,/SCL*%
X102500000Y-113500000D03*
X100000000Y-99712500D03*
X136480000Y-89640000D03*
X99640000Y-94320000D03*
%TO.N,Net-(C5-Pad1)*%
X85070000Y-102140000D03*
X82229702Y-99250772D03*
%TO.N,/VGL*%
X75740000Y-114940000D03*
X81280000Y-109950000D03*
%TO.N,/EPDDATA*%
X82150000Y-105125000D03*
X90070000Y-95130000D03*
X88320000Y-95770000D03*
X82120000Y-103375000D03*
%TO.N,/EPDCLK*%
X81353765Y-105202555D03*
X88320000Y-94969997D03*
X81320000Y-103375000D03*
X91280000Y-94060000D03*
%TO.N,/CS#*%
X80519997Y-103375000D03*
X94570000Y-93020000D03*
X80530000Y-105320000D03*
X88289913Y-93927348D03*
%TO.N,/D{slash}C#*%
X84190000Y-86290000D03*
X71690000Y-108500000D03*
%TO.N,/RES#*%
X76582626Y-106424337D03*
X103229442Y-86054442D03*
X100790000Y-85450000D03*
%TO.N,/BUSY*%
X76550000Y-105625000D03*
X88030000Y-93140000D03*
X79650000Y-103375000D03*
X92200000Y-92395000D03*
%TO.N,/GDR*%
X94880000Y-113090000D03*
X93470000Y-112600000D03*
%TO.N,/Alert*%
X99875000Y-110825000D03*
X97425000Y-97425000D03*
%TO.N,/SDA*%
X100790000Y-92180000D03*
X102881374Y-112750000D03*
X136370000Y-87850000D03*
X101000000Y-95500000D03*
%TD*%
%TO.N,Net-(U4-LA)*%
D52*
X144260000Y-87100000D02*
X141725000Y-89635000D01*
X141250000Y-89635000D02*
X138985000Y-89635000D01*
X145360000Y-85280000D02*
X144790000Y-85280000D01*
X144260000Y-85810000D02*
X144260000Y-87100000D01*
X144790000Y-85280000D02*
X144260000Y-85810000D01*
X141725000Y-89635000D02*
X141250000Y-89635000D01*
X138985000Y-89635000D02*
X138985000Y-89540000D01*
%TO.N,Net-(U4-LB)*%
X144400000Y-89700000D02*
X143670000Y-88970000D01*
X144670000Y-109980000D02*
X144400000Y-109710000D01*
D53*
X140140000Y-88735000D02*
X140045000Y-88830000D01*
D52*
X151660000Y-109980000D02*
X144670000Y-109980000D01*
X144400000Y-109710000D02*
X144400000Y-89700000D01*
X142413603Y-87673603D02*
X141661397Y-87673603D01*
D53*
X140045000Y-88830000D02*
X139207892Y-88830000D01*
D52*
X140790000Y-88085000D02*
X140140000Y-88735000D01*
X141250000Y-88085000D02*
X140790000Y-88085000D01*
X141661397Y-87673603D02*
X141250000Y-88085000D01*
%TO.N,/VGH*%
D54*
X95360000Y-108082500D02*
X95352500Y-108075000D01*
X77155592Y-113500000D02*
X77580592Y-113075000D01*
X94997500Y-108430000D02*
X95352500Y-108075000D01*
X77580592Y-113075000D02*
X80695000Y-113075000D01*
X80695000Y-113075000D02*
X80730000Y-113040000D01*
X93472500Y-108430000D02*
X94997500Y-108430000D01*
X95360000Y-109350000D02*
X95360000Y-108082500D01*
X73000000Y-113500000D02*
X77155592Y-113500000D01*
%TO.N,GND*%
D53*
X81095000Y-114730000D02*
X81250000Y-114730000D01*
X78310000Y-126945000D02*
X78945000Y-126310000D01*
X92500000Y-128750000D02*
X89000000Y-128750000D01*
X73090000Y-134510000D02*
X73090000Y-134610000D01*
X109750000Y-88000000D02*
X107220000Y-88000000D01*
X80800000Y-133280000D02*
X80800000Y-133580000D01*
X110500000Y-88750000D02*
X109750000Y-88000000D01*
X73090000Y-134610000D02*
X72160000Y-135540000D01*
X80800000Y-133580000D02*
X79870000Y-134510000D01*
X98900000Y-90280000D02*
X97000000Y-90280000D01*
X72160000Y-135540000D02*
X72160000Y-137460000D01*
X89000000Y-128750000D02*
X88750000Y-128500000D01*
X102250000Y-115985000D02*
X102470784Y-115985000D01*
X99170000Y-81550000D02*
X98950000Y-81330000D01*
X110270000Y-90730000D02*
X110500000Y-90500000D01*
X106950000Y-126000000D02*
X106950000Y-131100000D01*
X101500000Y-116514216D02*
X102029216Y-115985000D01*
X98950000Y-91230000D02*
X98950000Y-90330000D01*
X94475000Y-122325000D02*
X94475000Y-121387500D01*
X110500000Y-90500000D02*
X110500000Y-88750000D01*
X73075000Y-132365000D02*
X72160000Y-133280000D01*
X92882500Y-105360000D02*
X94187500Y-105360000D01*
X100580000Y-116970000D02*
X98550000Y-119000000D01*
X101500000Y-81550000D02*
X99170000Y-81550000D01*
X102029216Y-115985000D02*
X102250000Y-115985000D01*
X73230000Y-132365000D02*
X73075000Y-132365000D01*
X80800000Y-135440000D02*
X80800000Y-137460000D01*
X96200000Y-89480000D02*
X94975000Y-88255000D01*
X93537500Y-122825000D02*
X93537500Y-122325000D01*
X78310000Y-127895000D02*
X78310000Y-126945000D01*
X80500000Y-130750000D02*
X82250000Y-130750000D01*
X74780000Y-127905000D02*
X74780000Y-126845000D01*
X106050000Y-113950000D02*
X104015000Y-115985000D01*
X79730000Y-132365000D02*
X79730000Y-131520000D01*
X88750000Y-127447500D02*
X88837500Y-127360000D01*
X138360000Y-90640000D02*
X138000000Y-91000000D01*
X101925000Y-81975000D02*
X101500000Y-81550000D01*
X93537500Y-122325000D02*
X94475000Y-122325000D01*
X95475000Y-124250000D02*
X95475000Y-123325000D01*
X95475000Y-125262500D02*
X95475000Y-124250000D01*
X101500000Y-116970000D02*
X100580000Y-116970000D01*
X73090000Y-134510000D02*
X72160000Y-133580000D01*
X104000000Y-81975000D02*
X101925000Y-81975000D01*
X79730000Y-131520000D02*
X80500000Y-130750000D01*
X138360000Y-89540000D02*
X138360000Y-90640000D01*
X103000000Y-116514216D02*
X103000000Y-116970000D01*
X74780000Y-126845000D02*
X74255000Y-126320000D01*
X94450000Y-97730000D02*
X96180000Y-96000000D01*
X108810000Y-90730000D02*
X110270000Y-90730000D01*
X71065000Y-111065000D02*
X71500000Y-111500000D01*
X98950000Y-90330000D02*
X98900000Y-90280000D01*
X94450000Y-99000000D02*
X94450000Y-97730000D01*
X80545000Y-114025000D02*
X81095000Y-114575000D01*
X72100000Y-107000000D02*
X71065000Y-108035000D01*
X97000000Y-90280000D02*
X96200000Y-89480000D01*
X88750000Y-128500000D02*
X88750000Y-127447500D01*
X79850000Y-115975000D02*
X81095000Y-114730000D01*
X79730000Y-132365000D02*
X79885000Y-132365000D01*
X84727500Y-109860000D02*
X82937500Y-111650000D01*
X79885000Y-132365000D02*
X80800000Y-133280000D01*
X79475000Y-110525000D02*
X79500000Y-110500000D01*
X102470784Y-115985000D02*
X103000000Y-116514216D01*
X96270000Y-118110000D02*
X97660000Y-118110000D01*
X94475000Y-122325000D02*
X94700000Y-122550000D01*
X79475000Y-112250000D02*
X79475000Y-110525000D01*
X79870000Y-134510000D02*
X80800000Y-135440000D01*
X97660000Y-118110000D02*
X98550000Y-119000000D01*
X106950000Y-131100000D02*
X107000000Y-131150000D01*
X71065000Y-108035000D02*
X71065000Y-111065000D01*
X73000000Y-111500000D02*
X71500000Y-111500000D01*
X84727500Y-109850000D02*
X84727500Y-109860000D01*
X94270000Y-118110000D02*
X96270000Y-118110000D01*
X102000000Y-115000000D02*
X102000000Y-115735000D01*
X104015000Y-115985000D02*
X102250000Y-115985000D01*
X81250000Y-114730000D02*
X88607500Y-114730000D01*
X94700000Y-122550000D02*
X95475000Y-123325000D01*
X79475000Y-114025000D02*
X80545000Y-114025000D01*
X106050000Y-113000000D02*
X106050000Y-113950000D01*
X79870000Y-134510000D02*
X73090000Y-134510000D01*
X94187500Y-105360000D02*
X95352500Y-106525000D01*
X72160000Y-133580000D02*
X72160000Y-133280000D01*
X92875000Y-127050000D02*
X92875000Y-128375000D01*
X96200000Y-91180000D02*
X96200000Y-89480000D01*
X102000000Y-115735000D02*
X102250000Y-115985000D01*
X92875000Y-128375000D02*
X92500000Y-128750000D01*
X101500000Y-116970000D02*
X101500000Y-116514216D01*
X81095000Y-114575000D02*
X81095000Y-114730000D01*
X73000000Y-107000000D02*
X72100000Y-107000000D01*
%TO.N,Net-(U1-GPIO18{slash}USB_D-)*%
X85045000Y-90080000D02*
X85645000Y-89480000D01*
X85645000Y-89480000D02*
X87100000Y-89480000D01*
%TO.N,Net-(C6-Pad1)*%
X76230000Y-131572236D02*
X76487236Y-131315000D01*
X90020000Y-120500000D02*
X88100000Y-120500000D01*
X98000000Y-116950000D02*
X93570000Y-116950000D01*
X98940000Y-106083753D02*
X98453053Y-106083753D01*
X99420000Y-106083753D02*
X98940000Y-106083753D01*
X77230000Y-131565000D02*
X77230000Y-132365000D01*
X77395000Y-125405000D02*
X77395000Y-126310000D01*
X99180000Y-115770000D02*
X98000000Y-116950000D01*
X76770000Y-131315000D02*
X76770000Y-128040000D01*
X99180000Y-108136712D02*
X99180000Y-115770000D01*
X99180000Y-106923753D02*
X99180000Y-107043753D01*
X82982581Y-98980260D02*
X82750000Y-98747679D01*
X76230000Y-132365000D02*
X76230000Y-131572236D01*
X83440000Y-125160000D02*
X77640000Y-125160000D01*
X99180000Y-102030000D02*
X99180000Y-105243753D01*
X99906947Y-106083753D02*
X99420000Y-106083753D01*
X82750000Y-90500000D02*
X83170000Y-90080000D01*
X98453053Y-106683753D02*
X98940000Y-106683753D01*
X99180000Y-107043753D02*
X99180000Y-108136712D01*
X76770000Y-131315000D02*
X76980000Y-131315000D01*
X77230000Y-126475000D02*
X77395000Y-126310000D01*
X100146947Y-105723753D02*
X100146947Y-105843753D01*
X98213053Y-106323753D02*
X98213053Y-106443753D01*
X98580000Y-101430000D02*
X99180000Y-102030000D01*
X85760000Y-101430000D02*
X98580000Y-101430000D01*
X76487236Y-131315000D02*
X76770000Y-131315000D01*
X76980000Y-131315000D02*
X77230000Y-131565000D01*
X77640000Y-125160000D02*
X77395000Y-125405000D01*
X99420000Y-105483753D02*
X99906947Y-105483753D01*
X88100000Y-120500000D02*
X83440000Y-125160000D01*
X83170000Y-90080000D02*
X83395000Y-90080000D01*
X76770000Y-128040000D02*
X77395000Y-127415000D01*
X82750000Y-98747679D02*
X82750000Y-90500000D01*
X77395000Y-127415000D02*
X77395000Y-126310000D01*
X93570000Y-116950000D02*
X90020000Y-120500000D01*
X98213053Y-106443753D02*
G75*
G03*
X98453053Y-106683847I240047J-47D01*
G01*
X98453053Y-106083753D02*
G75*
G03*
X98213053Y-106323753I47J-240047D01*
G01*
X99906947Y-105483753D02*
G75*
G02*
X100146947Y-105723753I-47J-240047D01*
G01*
X99180000Y-105243753D02*
G75*
G03*
X99420000Y-105483800I240000J-47D01*
G01*
X98940000Y-106683753D02*
G75*
G02*
X99180047Y-106923753I0J-240047D01*
G01*
X100146947Y-105843753D02*
G75*
G02*
X99906947Y-106083847I-240047J-47D01*
G01*
%TO.N,Net-(U7-STAT1{slash}~{LBO})*%
X92250000Y-123325000D02*
X93537500Y-123325000D01*
X90425000Y-121500000D02*
X92250000Y-123325000D01*
%TO.N,Net-(D3-K)*%
X88775000Y-121500000D02*
X88112500Y-121500000D01*
X88112500Y-121500000D02*
X83000000Y-126612500D01*
%TO.N,/VBUS*%
D55*
X74030000Y-133090000D02*
X74880000Y-133940000D01*
X85000000Y-129000000D02*
X85500000Y-129500000D01*
X74880000Y-133940000D02*
X78053830Y-133940000D01*
X83000000Y-129000000D02*
X83500000Y-129500000D01*
X87000000Y-128187500D02*
X87000000Y-128500000D01*
X96225000Y-127225000D02*
X98775000Y-127225000D01*
X78930000Y-132365000D02*
X78930000Y-131430000D01*
X85000000Y-128187500D02*
X85000000Y-129000000D01*
X87000000Y-128500000D02*
X88000000Y-129500000D01*
X83500000Y-129500000D02*
X85500000Y-129500000D01*
X78053830Y-133940000D02*
X78930000Y-133063830D01*
D53*
X95975000Y-126975000D02*
X95975000Y-125262500D01*
X96000000Y-127000000D02*
X95975000Y-126975000D01*
D55*
X100500000Y-124000000D02*
X100300000Y-123800000D01*
X88000000Y-129500000D02*
X96225000Y-129500000D01*
X98775000Y-127225000D02*
X100500000Y-125500000D01*
X74030000Y-132365000D02*
X74030000Y-133090000D01*
X83000000Y-128187500D02*
X83000000Y-129000000D01*
X96225000Y-129500000D02*
X96225000Y-127225000D01*
X100300000Y-123800000D02*
X97412500Y-123800000D01*
D56*
X97412500Y-123325000D02*
X97412500Y-123825000D01*
D55*
X80860000Y-129500000D02*
X96225000Y-129500000D01*
X78930000Y-133063830D02*
X78930000Y-132365000D01*
X78930000Y-131430000D02*
X80860000Y-129500000D01*
X96225000Y-127225000D02*
X96000000Y-127000000D01*
X100500000Y-125500000D02*
X100500000Y-124000000D01*
X85500000Y-129500000D02*
X88000000Y-129500000D01*
%TO.N,Net-(D2-K)*%
D53*
X88112500Y-125500000D02*
X87000000Y-126612500D01*
X88775000Y-125500000D02*
X88112500Y-125500000D01*
%TO.N,/Charger 5V*%
D55*
X105050000Y-126000000D02*
X105050000Y-119637500D01*
X98500000Y-125500000D02*
X98500000Y-125412500D01*
X94425000Y-128395000D02*
X94420000Y-128400000D01*
D56*
X94975000Y-125262500D02*
X94975000Y-126500000D01*
X94975000Y-126500000D02*
X94425000Y-127050000D01*
X96475000Y-125262500D02*
X98262500Y-125262500D01*
D55*
X106050000Y-117950000D02*
X106500000Y-117500000D01*
X98500000Y-125412500D02*
X97487500Y-124400000D01*
X106500000Y-117500000D02*
X107474999Y-117500000D01*
X107950000Y-117975001D02*
X107950000Y-118637500D01*
X106050000Y-118637500D02*
X106050000Y-118950000D01*
D56*
X95000000Y-125287500D02*
X94975000Y-125262500D01*
D53*
X98825000Y-122825000D02*
X97412500Y-122825000D01*
D56*
X98262500Y-125262500D02*
X98500000Y-125500000D01*
D55*
X94425000Y-127050000D02*
X94425000Y-128395000D01*
X97487500Y-124400000D02*
X97412500Y-124400000D01*
D53*
X99000000Y-123000000D02*
X98825000Y-122825000D01*
D55*
X105050000Y-126000000D02*
X102000000Y-126000000D01*
X107474999Y-117500000D02*
X107950000Y-117975001D01*
X106050000Y-118637500D02*
X106050000Y-117950000D01*
X105050000Y-119637500D02*
X106050000Y-118637500D01*
%TO.N,/RESE*%
D53*
X88070000Y-104500000D02*
X88580000Y-103990000D01*
X95650000Y-105420000D02*
X96330000Y-105420000D01*
X88580000Y-103990000D02*
X94220000Y-103990000D01*
X96330000Y-110750000D02*
X92350000Y-114730000D01*
X92350000Y-114730000D02*
X90432500Y-114730000D01*
X73000000Y-104500000D02*
X88070000Y-104500000D01*
X90435000Y-112940000D02*
X90435000Y-114322500D01*
X96330000Y-105420000D02*
X96330000Y-110750000D01*
X94220000Y-103990000D02*
X95650000Y-105420000D01*
%TO.N,Net-(U7-~{PG})*%
X91200000Y-124325000D02*
X90425000Y-125100000D01*
X93537500Y-124325000D02*
X91200000Y-124325000D01*
%TO.N,+3.3V*%
D55*
X131870000Y-87000000D02*
X131720000Y-87000000D01*
X104412500Y-100412500D02*
X103000000Y-99000000D01*
X131720000Y-87000000D02*
X131350000Y-86630000D01*
X106215000Y-98610000D02*
X104412500Y-100412500D01*
X132120000Y-86250000D02*
X131870000Y-86500000D01*
X134720000Y-86700000D02*
X134725000Y-86705000D01*
X136100000Y-86700000D02*
X136450000Y-87050000D01*
X131870000Y-87000000D02*
X131870000Y-97890000D01*
X131350000Y-86630000D02*
X129792500Y-86630000D01*
X109810000Y-98610000D02*
X106215000Y-98610000D01*
X131870000Y-86500000D02*
X131870000Y-87000000D01*
X103000000Y-99000000D02*
X103000000Y-94087500D01*
X133505000Y-83880000D02*
X102930000Y-83880000D01*
X134700000Y-85075000D02*
X133505000Y-83880000D01*
X107950000Y-113000000D02*
X107950000Y-116362500D01*
X107950000Y-103950000D02*
X104412500Y-100412500D01*
X105950000Y-111000000D02*
X104000000Y-111000000D01*
X134700000Y-85450000D02*
X134700000Y-85075000D01*
X103000000Y-94087500D02*
X102912500Y-94000000D01*
X134720000Y-86700000D02*
X134480000Y-86700000D01*
X131150000Y-98610000D02*
X109810000Y-98610000D01*
X138190000Y-87050000D02*
X138345000Y-87205000D01*
X107950000Y-113000000D02*
X107950000Y-103950000D01*
X134720000Y-85470000D02*
X134700000Y-85450000D01*
D53*
X138360000Y-87440000D02*
X138360000Y-88150000D01*
D55*
X134720000Y-86700000D02*
X134720000Y-85470000D01*
X98900000Y-83880000D02*
X100860000Y-83880000D01*
X136450000Y-87050000D02*
X138190000Y-87050000D01*
X131870000Y-97890000D02*
X131150000Y-98610000D01*
X96000000Y-100412500D02*
X88500000Y-100412500D01*
X109810000Y-97052500D02*
X109810000Y-98610000D01*
X104412500Y-100412500D02*
X96000000Y-100412500D01*
X100860000Y-83880000D02*
X102930000Y-83880000D01*
X107950000Y-113000000D02*
X105950000Y-111000000D01*
X134720000Y-86700000D02*
X136100000Y-86700000D01*
X96000000Y-100087500D02*
X97087500Y-99000000D01*
X96000000Y-100412500D02*
X96000000Y-100087500D01*
X138345000Y-87205000D02*
X138345000Y-87440000D01*
%TO.N,/SCL*%
D53*
X99610000Y-94350000D02*
X98912500Y-94350000D01*
X137860000Y-89540000D02*
X136580000Y-89540000D01*
X136580000Y-89540000D02*
X136480000Y-89640000D01*
X102500000Y-115000000D02*
X102500000Y-113500000D01*
X98912500Y-93742500D02*
X97000000Y-91830000D01*
X98912500Y-99000000D02*
X98912500Y-94350000D01*
X99640000Y-94320000D02*
X99610000Y-94350000D01*
X99625000Y-99712500D02*
X98912500Y-99000000D01*
X100000000Y-99712500D02*
X99625000Y-99712500D01*
X98912500Y-94350000D02*
X98912500Y-93742500D01*
X97000000Y-91830000D02*
X97000000Y-91180000D01*
%TO.N,Net-(U1-GPIO19{slash}USB_D+)*%
X85910000Y-88680000D02*
X87100000Y-88680000D01*
X85120000Y-87890000D02*
X85910000Y-88680000D01*
%TO.N,Net-(C5-Pad1)*%
X89353324Y-119950000D02*
X89501011Y-119950000D01*
X96866105Y-102140000D02*
X97250000Y-102523895D01*
X76730000Y-133157764D02*
X76472764Y-133415000D01*
X87870000Y-119950000D02*
X89353324Y-119950000D01*
X90340766Y-119489234D02*
X89988072Y-119841928D01*
X75730000Y-132365000D02*
X75730000Y-126395000D01*
X89988072Y-119841928D02*
X89880000Y-119950000D01*
X75955000Y-133415000D02*
X75730000Y-133190000D01*
X90340766Y-119489234D02*
X90697675Y-119132325D01*
X93330000Y-116500000D02*
X90697675Y-119132325D01*
X82231851Y-99248623D02*
X82231851Y-89128149D01*
X76472764Y-133415000D02*
X75955000Y-133415000D01*
X82229702Y-99250772D02*
X82231851Y-99248623D01*
X83250000Y-124570000D02*
X87870000Y-119950000D01*
X96500000Y-116500000D02*
X93330000Y-116500000D01*
X76730000Y-132365000D02*
X76730000Y-133157764D01*
X76390000Y-124570000D02*
X83250000Y-124570000D01*
X89880000Y-119950000D02*
X89501011Y-119950000D01*
X75805000Y-125155000D02*
X76390000Y-124570000D01*
X96340202Y-102140000D02*
X85070000Y-102140000D01*
X82231851Y-89128149D02*
X83470000Y-87890000D01*
X97250000Y-102523895D02*
X97250000Y-115750000D01*
X96500000Y-116500000D02*
X97250000Y-115750000D01*
X75730000Y-126395000D02*
X75805000Y-126320000D01*
X75730000Y-133190000D02*
X75730000Y-132365000D01*
X96340202Y-102140000D02*
X96866105Y-102140000D01*
X75805000Y-126320000D02*
X75805000Y-125155000D01*
%TO.N,/VGL*%
D54*
X83177500Y-109850000D02*
X83177500Y-107747500D01*
X81280000Y-109950000D02*
X83077500Y-109950000D01*
X83157500Y-109830000D02*
X83177500Y-109850000D01*
X83077500Y-109950000D02*
X83177500Y-109850000D01*
X75300000Y-114500000D02*
X75740000Y-114940000D01*
X73000000Y-114500000D02*
X75300000Y-114500000D01*
X83177500Y-107747500D02*
X83160000Y-107730000D01*
%TO.N,/VCOM*%
D53*
X74915000Y-115975000D02*
X73940000Y-115000000D01*
X77950000Y-115975000D02*
X74915000Y-115975000D01*
X73940000Y-115000000D02*
X73000000Y-115000000D01*
%TO.N,/VSL*%
D54*
X73000000Y-114000000D02*
X77900000Y-114000000D01*
X77900000Y-114000000D02*
X77925000Y-114025000D01*
%TO.N,/VSH1*%
X73000000Y-113000000D02*
X74070000Y-113000000D01*
X75810000Y-112570000D02*
X76130000Y-112250000D01*
X74070000Y-113000000D02*
X74500000Y-112570000D01*
X74500000Y-112570000D02*
X75810000Y-112570000D01*
X76130000Y-112250000D02*
X77925000Y-112250000D01*
%TO.N,/VDD*%
D56*
X73000000Y-112000000D02*
X74000000Y-112000000D01*
D55*
X74300000Y-112000000D02*
X74000000Y-112000000D01*
X77950000Y-110500000D02*
X75800000Y-110500000D01*
X75800000Y-110500000D02*
X74300000Y-112000000D01*
%TO.N,/VCI*%
D54*
X83127500Y-113010000D02*
X84487500Y-111650000D01*
X73000000Y-111000000D02*
X74460000Y-111000000D01*
X74460000Y-111000000D02*
X76210000Y-109250000D01*
X76210000Y-109250000D02*
X80240000Y-109250000D01*
X80240000Y-109250000D02*
X80580000Y-109590000D01*
D55*
X84872500Y-111650000D02*
X86132500Y-112910000D01*
D54*
X73000000Y-111000000D02*
X73000000Y-110500000D01*
D55*
X84487500Y-111650000D02*
X84872500Y-111650000D01*
D54*
X80580000Y-111560000D02*
X82030000Y-113010000D01*
X82030000Y-113010000D02*
X83127500Y-113010000D01*
X80580000Y-109590000D02*
X80580000Y-111560000D01*
%TO.N,/EPDDATA*%
D53*
X73000000Y-110000000D02*
X74750000Y-110000000D01*
X82150000Y-108130000D02*
X82150000Y-105125000D01*
X90650000Y-91230000D02*
X90600000Y-91180000D01*
X74750000Y-110000000D02*
X75975000Y-108775000D01*
X87180000Y-96910000D02*
X88320000Y-95770000D01*
X81475000Y-108775000D02*
X81490000Y-108790000D01*
X90650000Y-94550000D02*
X90650000Y-91230000D01*
X82120000Y-103375000D02*
X87180000Y-98315000D01*
X75975000Y-108775000D02*
X81475000Y-108775000D01*
X87180000Y-98315000D02*
X87180000Y-96910000D01*
X81490000Y-108790000D02*
X82150000Y-108130000D01*
X90070000Y-95130000D02*
X90650000Y-94550000D01*
%TO.N,/EPDCLK*%
X81495000Y-103375000D02*
X81495000Y-103116116D01*
X81140000Y-108300000D02*
X81353765Y-108086235D01*
X81353765Y-108086235D02*
X81353765Y-105202555D01*
X81320000Y-103375000D02*
X81495000Y-103375000D01*
X82108604Y-102750000D02*
X86730000Y-98128604D01*
X81861116Y-102750000D02*
X82108604Y-102750000D01*
X88236119Y-94969997D02*
X88320000Y-94969997D01*
X81495000Y-103116116D02*
X81861116Y-102750000D01*
X74613604Y-109500000D02*
X75813604Y-108300000D01*
X87688884Y-95511116D02*
X87695000Y-95511116D01*
X91280000Y-94060000D02*
X91400000Y-93940000D01*
X91400000Y-93940000D02*
X91400000Y-91180000D01*
X73000000Y-109500000D02*
X74613604Y-109500000D01*
X86730000Y-98128604D02*
X86730000Y-96470000D01*
X86730000Y-96470000D02*
X87688884Y-95511116D01*
X87695000Y-95511116D02*
X88236119Y-94969997D01*
X75813604Y-108300000D02*
X81140000Y-108300000D01*
%TO.N,/CS#*%
X80519997Y-103375000D02*
X80519997Y-103291119D01*
X86280000Y-95937261D02*
X88289913Y-93927348D01*
X94600000Y-92990000D02*
X94570000Y-93020000D01*
X75627208Y-107850000D02*
X80600000Y-107850000D01*
X80600000Y-107850000D02*
X80860000Y-107590000D01*
X81922208Y-102300000D02*
X86280000Y-97942208D01*
X80519997Y-103291119D02*
X81511116Y-102300000D01*
X74477208Y-109000000D02*
X75627208Y-107850000D01*
X80860000Y-107590000D02*
X80860000Y-105650000D01*
X94600000Y-91180000D02*
X94600000Y-92990000D01*
X73000000Y-109000000D02*
X74477208Y-109000000D01*
X81511116Y-102300000D02*
X81922208Y-102300000D01*
X86280000Y-97942208D02*
X86280000Y-95937261D01*
X80860000Y-105650000D02*
X80530000Y-105320000D01*
%TO.N,/D{slash}C#*%
X84190000Y-86290000D02*
X84500000Y-86290000D01*
X84510000Y-86280000D02*
X87100000Y-86280000D01*
X73000000Y-108500000D02*
X71690000Y-108500000D01*
X84500000Y-86290000D02*
X84510000Y-86280000D01*
%TO.N,/RES#*%
X73000000Y-108000000D02*
X74036396Y-108000000D01*
X98910000Y-85470000D02*
X98900000Y-85480000D01*
X100630000Y-85450000D02*
X100610000Y-85470000D01*
X75612059Y-106424337D02*
X76582626Y-106424337D01*
X100790000Y-85450000D02*
X100630000Y-85450000D01*
X127967500Y-86630000D02*
X127230000Y-86630000D01*
X103233884Y-86050000D02*
X103229442Y-86054442D01*
X100610000Y-85470000D02*
X98910000Y-85470000D01*
X127230000Y-86630000D02*
X126650000Y-86050000D01*
X74036396Y-108000000D02*
X75612059Y-106424337D01*
X126650000Y-86050000D02*
X103233884Y-86050000D01*
%TO.N,/BUSY*%
X76148742Y-105974337D02*
X75425663Y-105974337D01*
X85820000Y-95350000D02*
X88030000Y-93140000D01*
X92200000Y-91180000D02*
X92200000Y-92395000D01*
X73925000Y-107475000D02*
X73025000Y-107475000D01*
X81161113Y-101850000D02*
X81735812Y-101850000D01*
X79650000Y-103375000D02*
X79636113Y-103375000D01*
X76550000Y-105625000D02*
X76550000Y-105700000D01*
X85820000Y-97765812D02*
X85820000Y-95350000D01*
X81735812Y-101850000D02*
X85820000Y-97765812D01*
X76450663Y-105799337D02*
X76323742Y-105799337D01*
X76323742Y-105799337D02*
X76148742Y-105974337D01*
X76550000Y-105700000D02*
X76450663Y-105799337D01*
X75425663Y-105974337D02*
X73925000Y-107475000D01*
X79636113Y-103375000D02*
X81161113Y-101850000D01*
X73025000Y-107475000D02*
X73000000Y-107500000D01*
%TO.N,/VSH2*%
D54*
X76930000Y-104975000D02*
X77390000Y-105435000D01*
X74725000Y-104975000D02*
X76930000Y-104975000D01*
X74200000Y-105500000D02*
X74725000Y-104975000D01*
X73000000Y-105500000D02*
X74200000Y-105500000D01*
X77390000Y-105435000D02*
X78060000Y-105435000D01*
%TO.N,/GDR*%
D53*
X92075000Y-112600000D02*
X91735000Y-112940000D01*
X87933604Y-104000000D02*
X88393604Y-103540000D01*
X96780000Y-110936396D02*
X94750000Y-112966396D01*
X73000000Y-104000000D02*
X87933604Y-104000000D01*
X96780000Y-105233604D02*
X96780000Y-110936396D01*
X93470000Y-112600000D02*
X92075000Y-112600000D01*
X94750000Y-112966396D02*
X94756396Y-112966396D01*
X88393604Y-103540000D02*
X95086396Y-103540000D01*
X95086396Y-103540000D02*
X96780000Y-105233604D01*
X94756396Y-112966396D02*
X94880000Y-113090000D01*
%TO.N,Net-(C1-Pad2)*%
X102650000Y-89900000D02*
X102650000Y-88850000D01*
X102650000Y-88850000D02*
X103500000Y-88000000D01*
X104450000Y-90730000D02*
X103480000Y-90730000D01*
X103480000Y-90730000D02*
X102650000Y-89900000D01*
X103500000Y-88000000D02*
X105320000Y-88000000D01*
%TO.N,/FD*%
X134740000Y-88545000D02*
X134720000Y-88525000D01*
X133425000Y-88525000D02*
X133030000Y-88130000D01*
X133030000Y-88130000D02*
X133030000Y-85900000D01*
X137345000Y-88525000D02*
X137665000Y-88845000D01*
X134720000Y-88525000D02*
X133425000Y-88525000D01*
X132500000Y-85370000D02*
X103030000Y-85370000D01*
X103030000Y-85370000D02*
X102120000Y-86280000D01*
X133030000Y-85900000D02*
X132500000Y-85370000D01*
X102120000Y-86280000D02*
X98900000Y-86280000D01*
X134720000Y-88525000D02*
X137345000Y-88525000D01*
%TO.N,Net-(U7-THERM)*%
X94475000Y-125262500D02*
X92287500Y-125262500D01*
X92287500Y-125262500D02*
X90662500Y-126887500D01*
X90662500Y-126887500D02*
X90662500Y-127360000D01*
X94475000Y-125262500D02*
X94475000Y-125437500D01*
%TO.N,Net-(U7-STAT2)*%
X90425000Y-123500000D02*
X90750000Y-123825000D01*
X90650000Y-123825000D02*
X90425000Y-123600000D01*
X90750000Y-123825000D02*
X93537500Y-123825000D01*
%TO.N,Net-(U7-PROG3)*%
X94975000Y-120465000D02*
X94270000Y-119760000D01*
X94975000Y-121387500D02*
X94975000Y-120465000D01*
%TO.N,Net-(U7-PROG1)*%
X95475000Y-121387500D02*
X95475000Y-120555000D01*
X95475000Y-120555000D02*
X96270000Y-119760000D01*
%TO.N,/VBAT*%
D55*
X103350000Y-129500000D02*
X105000000Y-131150000D01*
X96762500Y-121675000D02*
X97125000Y-121675000D01*
X97125000Y-121675000D02*
X97412500Y-121962500D01*
X100450000Y-119000000D02*
X102000000Y-119000000D01*
X96475000Y-121387500D02*
X96762500Y-121675000D01*
X102000000Y-119000000D02*
X102500000Y-118500000D01*
X102000000Y-129500000D02*
X103350000Y-129500000D01*
X97412500Y-121962500D02*
X97412500Y-122300000D01*
D56*
X102500000Y-118000000D02*
X102500000Y-116970000D01*
D55*
X101225000Y-122000000D02*
X101225000Y-119775000D01*
X97412500Y-121962500D02*
X97450000Y-122000000D01*
X101225000Y-122000000D02*
X101225000Y-128725000D01*
D56*
X95975000Y-121387500D02*
X96475000Y-121387500D01*
D55*
X101225000Y-119775000D02*
X100450000Y-119000000D01*
X97450000Y-122000000D02*
X101225000Y-122000000D01*
X102500000Y-118500000D02*
X102500000Y-118000000D01*
D56*
X102000000Y-116970000D02*
X102500000Y-116970000D01*
D55*
X101225000Y-128725000D02*
X102000000Y-129500000D01*
%TO.N,Net-(U1-GPIO9)*%
D56*
X90550000Y-97000000D02*
X89000000Y-97000000D01*
D53*
X89000000Y-91180000D02*
X89000000Y-96000000D01*
X89000000Y-96000000D02*
X89000000Y-97000000D01*
X89000000Y-98087500D02*
X88500000Y-98587500D01*
X91820000Y-96000000D02*
X89000000Y-96000000D01*
X89000000Y-97000000D02*
X89000000Y-98087500D01*
D56*
X92550000Y-99000000D02*
X90550000Y-97000000D01*
%TO.N,Net-(D6-A)*%
D55*
X90615000Y-110790000D02*
X91085000Y-111260000D01*
X90172500Y-108430000D02*
X88587500Y-108430000D01*
X88252500Y-110790000D02*
X90615000Y-110790000D01*
X88132500Y-110670000D02*
X88252500Y-110790000D01*
X88132500Y-108885000D02*
X88132500Y-110670000D01*
X88587500Y-108430000D02*
X88132500Y-108885000D01*
%TO.N,Net-(D1-K)*%
D53*
X87737500Y-107730000D02*
X88132500Y-107335000D01*
X88132500Y-106810000D02*
X89582500Y-105360000D01*
X86460000Y-107730000D02*
X87737500Y-107730000D01*
X88132500Y-107335000D02*
X88132500Y-106810000D01*
%TO.N,Net-(D4-K)*%
X88775000Y-123500000D02*
X88112500Y-123500000D01*
X88112500Y-123500000D02*
X85000000Y-126612500D01*
X88775000Y-123600000D02*
X88712500Y-123600000D01*
%TO.N,/Alert*%
D56*
X100050000Y-111000000D02*
X99875000Y-110825000D01*
X101500000Y-111675000D02*
X101500000Y-115000000D01*
X93125000Y-94000000D02*
X93000000Y-93875000D01*
X97425000Y-94975000D02*
X96450000Y-94000000D01*
X102175000Y-111000000D02*
X100050000Y-111000000D01*
X102175000Y-111000000D02*
X101500000Y-111675000D01*
X96450000Y-94000000D02*
X93125000Y-94000000D01*
X97425000Y-97425000D02*
X97425000Y-94975000D01*
X93000000Y-93875000D02*
X93000000Y-91180000D01*
%TO.N,/SDA*%
D53*
X100420000Y-94000000D02*
X99050000Y-92630000D01*
X101087500Y-94000000D02*
X100420000Y-94000000D01*
X102881374Y-112750000D02*
X103135000Y-113003626D01*
X101000000Y-95500000D02*
X101000000Y-94087500D01*
X136360000Y-87880000D02*
X136360000Y-87860000D01*
X100790000Y-92180000D02*
X100340000Y-92630000D01*
X99050000Y-92630000D02*
X97800000Y-91380000D01*
X101000000Y-94087500D02*
X101087500Y-94000000D01*
X137590000Y-87880000D02*
X136360000Y-87880000D01*
X103135000Y-113003626D02*
X103135000Y-114865000D01*
X136360000Y-87860000D02*
X136370000Y-87850000D01*
X103135000Y-114865000D02*
X103000000Y-115000000D01*
X100340000Y-92630000D02*
X99050000Y-92630000D01*
X137860000Y-88150000D02*
X137590000Y-87880000D01*
X97800000Y-91380000D02*
X97800000Y-91180000D01*
%TO.N,Net-(U1-EN{slash}CHIP_PU)*%
X107217500Y-95227500D02*
X107080000Y-95090000D01*
X99380000Y-87880000D02*
X98900000Y-87880000D01*
X104170000Y-93070000D02*
X101000000Y-89900000D01*
X109810000Y-95227500D02*
X107217500Y-95227500D01*
X101000000Y-89900000D02*
X101000000Y-89500000D01*
X105060000Y-93070000D02*
X104170000Y-93070000D01*
X107080000Y-95090000D02*
X105060000Y-93070000D01*
X100980000Y-89880000D02*
X101000000Y-89900000D01*
X101000000Y-89500000D02*
X99380000Y-87880000D01*
%TO.N,Net-(J1-CC2)*%
X74730000Y-132365000D02*
X74730000Y-129605000D01*
X74730000Y-129605000D02*
X74780000Y-129555000D01*
%TO.N,Net-(J1-CC1)*%
X77730000Y-130125000D02*
X78310000Y-129545000D01*
X77730000Y-132365000D02*
X77730000Y-130125000D01*
%TO.N,Net-(U4-VOUT)*%
X138870000Y-88140000D02*
X138870000Y-85830000D01*
X138860000Y-88150000D02*
X138870000Y-88140000D01*
X138860000Y-85840000D02*
X138870000Y-85830000D01*
%TD*%
%TA.AperFunction,Conductor*%
%TO.N,GND*%
G36*
X86400000Y-81562091D02*
G01*
X86374796Y-81515932D01*
X86372038Y-81485282D01*
X86395844Y-80799697D01*
X86400000Y-80787168D01*
X86400000Y-81562091D01*
G37*
%TD.AperFunction*%
%TD*%
%TA.AperFunction,Conductor*%
%TO.N,GND*%
G36*
X87466692Y-80699685D02*
G01*
X87512447Y-80752489D01*
X87522391Y-80821647D01*
X87515835Y-80847334D01*
X87506402Y-80872623D01*
X87506401Y-80872627D01*
X87500000Y-80932155D01*
X87500000Y-81180000D01*
X97970000Y-81180000D01*
X97979976Y-81170023D01*
X97989685Y-81136961D01*
X98042489Y-81091206D01*
X98094000Y-81080000D01*
X98826000Y-81080000D01*
X98893039Y-81099685D01*
X98938794Y-81152489D01*
X98950000Y-81204000D01*
X98950000Y-81330000D01*
X99076000Y-81330000D01*
X99143039Y-81349685D01*
X99188794Y-81402489D01*
X99200000Y-81454000D01*
X99200000Y-82186000D01*
X99180315Y-82253039D01*
X99127511Y-82298794D01*
X99106672Y-82303327D01*
X99100000Y-82310000D01*
X99100000Y-82956000D01*
X99080315Y-83023039D01*
X99031232Y-83067020D01*
X98831232Y-83166520D01*
X98829125Y-83166894D01*
X98827511Y-83168294D01*
X98776000Y-83179500D01*
X98452130Y-83179500D01*
X98452123Y-83179501D01*
X98392516Y-83185908D01*
X98257671Y-83236202D01*
X98257668Y-83236204D01*
X98232204Y-83255267D01*
X98166739Y-83279684D01*
X98157893Y-83280000D01*
X98000000Y-83280000D01*
X98000000Y-83327844D01*
X98006401Y-83387372D01*
X98006403Y-83387383D01*
X98024519Y-83435953D01*
X98029503Y-83505644D01*
X98024520Y-83522616D01*
X98005910Y-83572513D01*
X98005909Y-83572517D01*
X97999500Y-83632127D01*
X97999500Y-83632134D01*
X97999500Y-83632135D01*
X97999500Y-84127870D01*
X97999501Y-84127876D01*
X98005908Y-84187482D01*
X98019004Y-84222593D01*
X98024252Y-84236665D01*
X98024253Y-84236666D01*
X98029237Y-84306358D01*
X98024253Y-84323331D01*
X98005910Y-84372511D01*
X98005910Y-84372514D01*
X98005909Y-84372517D01*
X97999500Y-84432127D01*
X97999500Y-84432134D01*
X97999500Y-84432135D01*
X97999500Y-84927870D01*
X97999501Y-84927876D01*
X98005908Y-84987482D01*
X98019004Y-85022593D01*
X98024252Y-85036665D01*
X98024253Y-85036666D01*
X98029237Y-85106358D01*
X98024253Y-85123331D01*
X98005910Y-85172511D01*
X98005910Y-85172514D01*
X98005909Y-85172517D01*
X97999500Y-85232127D01*
X97999500Y-85232134D01*
X97999500Y-85232135D01*
X97999500Y-85727870D01*
X97999501Y-85727876D01*
X98005908Y-85787482D01*
X98019004Y-85822593D01*
X98024252Y-85836665D01*
X98024253Y-85836666D01*
X98029237Y-85906358D01*
X98024253Y-85923331D01*
X98005910Y-85972511D01*
X98005910Y-85972514D01*
X98005909Y-85972517D01*
X97999500Y-86032127D01*
X97999500Y-86032134D01*
X97999500Y-86032135D01*
X97999500Y-86527870D01*
X97999501Y-86527876D01*
X98005908Y-86587482D01*
X98019004Y-86622593D01*
X98024252Y-86636665D01*
X98024253Y-86636666D01*
X98029237Y-86706358D01*
X98024253Y-86723331D01*
X98005910Y-86772511D01*
X98005910Y-86772514D01*
X98005909Y-86772517D01*
X97999500Y-86832127D01*
X97999500Y-86832134D01*
X97999500Y-86832135D01*
X97999500Y-87327870D01*
X97999501Y-87327876D01*
X98005908Y-87387482D01*
X98019004Y-87422593D01*
X98024252Y-87436665D01*
X98024253Y-87436666D01*
X98029237Y-87506358D01*
X98024253Y-87523331D01*
X98005910Y-87572511D01*
X98005910Y-87572514D01*
X98005909Y-87572517D01*
X97999500Y-87632127D01*
X97999500Y-87632134D01*
X97999500Y-87632135D01*
X97999500Y-88127870D01*
X97999501Y-88127876D01*
X98005908Y-88187482D01*
X98018640Y-88221616D01*
X98024252Y-88236665D01*
X98024253Y-88236666D01*
X98029237Y-88306358D01*
X98024253Y-88323331D01*
X98005910Y-88372511D01*
X98005910Y-88372514D01*
X98005909Y-88372517D01*
X97999500Y-88432127D01*
X97999500Y-88432134D01*
X97999500Y-88432135D01*
X97999500Y-88927870D01*
X97999501Y-88927876D01*
X98005908Y-88987482D01*
X98019004Y-89022593D01*
X98024252Y-89036665D01*
X98024253Y-89036666D01*
X98029237Y-89106358D01*
X98024253Y-89123331D01*
X98005910Y-89172511D01*
X98005910Y-89172514D01*
X98005909Y-89172517D01*
X97999500Y-89232127D01*
X97999500Y-89232134D01*
X97999500Y-89232135D01*
X97999500Y-89727870D01*
X97999501Y-89727876D01*
X98005909Y-89787484D01*
X98024519Y-89837382D01*
X98029503Y-89907074D01*
X98024520Y-89924046D01*
X98006402Y-89972623D01*
X98006401Y-89972627D01*
X98000000Y-90032155D01*
X98000000Y-90155500D01*
X97980315Y-90222539D01*
X97927511Y-90268294D01*
X97876000Y-90279500D01*
X97552130Y-90279500D01*
X97552123Y-90279501D01*
X97492516Y-90285908D01*
X97443332Y-90304253D01*
X97373640Y-90309237D01*
X97356667Y-90304253D01*
X97307486Y-90285910D01*
X97307485Y-90285909D01*
X97307483Y-90285909D01*
X97247873Y-90279500D01*
X97247863Y-90279500D01*
X96752129Y-90279500D01*
X96752123Y-90279501D01*
X96692517Y-90285908D01*
X96642616Y-90304520D01*
X96572925Y-90309503D01*
X96555953Y-90304519D01*
X96507383Y-90286403D01*
X96507372Y-90286401D01*
X96447844Y-90280000D01*
X96400000Y-90280000D01*
X96400000Y-90437893D01*
X96397449Y-90446578D01*
X96398738Y-90455540D01*
X96385272Y-90488048D01*
X96380315Y-90504932D01*
X96377139Y-90507683D01*
X96375267Y-90512204D01*
X96356204Y-90537668D01*
X96356202Y-90537671D01*
X96316182Y-90644972D01*
X96274311Y-90700906D01*
X96208846Y-90725323D01*
X96140573Y-90710471D01*
X96091168Y-90661066D01*
X96083818Y-90644972D01*
X96043797Y-90537671D01*
X96043795Y-90537668D01*
X96024733Y-90512204D01*
X96020025Y-90499581D01*
X96011206Y-90489404D01*
X96008054Y-90467487D01*
X96000316Y-90446739D01*
X96000000Y-90437893D01*
X96000000Y-90280000D01*
X95952155Y-90280000D01*
X95892627Y-90286401D01*
X95892623Y-90286402D01*
X95844046Y-90304520D01*
X95774354Y-90309503D01*
X95757382Y-90304519D01*
X95707488Y-90285910D01*
X95707484Y-90285909D01*
X95707483Y-90285909D01*
X95647873Y-90279500D01*
X95647863Y-90279500D01*
X95152129Y-90279500D01*
X95152123Y-90279501D01*
X95092516Y-90285908D01*
X95043332Y-90304253D01*
X94973640Y-90309237D01*
X94956667Y-90304253D01*
X94907486Y-90285910D01*
X94907485Y-90285909D01*
X94907483Y-90285909D01*
X94847873Y-90279500D01*
X94847863Y-90279500D01*
X94352129Y-90279500D01*
X94352123Y-90279501D01*
X94292516Y-90285908D01*
X94243332Y-90304253D01*
X94173640Y-90309237D01*
X94156667Y-90304253D01*
X94107486Y-90285910D01*
X94107485Y-90285909D01*
X94107483Y-90285909D01*
X94047873Y-90279500D01*
X94047863Y-90279500D01*
X93552129Y-90279500D01*
X93552123Y-90279501D01*
X93492516Y-90285908D01*
X93443332Y-90304253D01*
X93373640Y-90309237D01*
X93356667Y-90304253D01*
X93307486Y-90285910D01*
X93307485Y-90285909D01*
X93307483Y-90285909D01*
X93247873Y-90279500D01*
X93247863Y-90279500D01*
X92752129Y-90279500D01*
X92752123Y-90279501D01*
X92692516Y-90285908D01*
X92643332Y-90304253D01*
X92573640Y-90309237D01*
X92556667Y-90304253D01*
X92507486Y-90285910D01*
X92507485Y-90285909D01*
X92507483Y-90285909D01*
X92447873Y-90279500D01*
X92447863Y-90279500D01*
X91952129Y-90279500D01*
X91952123Y-90279501D01*
X91892516Y-90285908D01*
X91843332Y-90304253D01*
X91773640Y-90309237D01*
X91756667Y-90304253D01*
X91707486Y-90285910D01*
X91707485Y-90285909D01*
X91707483Y-90285909D01*
X91647873Y-90279500D01*
X91647863Y-90279500D01*
X91152129Y-90279500D01*
X91152123Y-90279501D01*
X91092516Y-90285908D01*
X91043332Y-90304253D01*
X90973640Y-90309237D01*
X90956667Y-90304253D01*
X90907486Y-90285910D01*
X90907485Y-90285909D01*
X90907483Y-90285909D01*
X90847873Y-90279500D01*
X90847863Y-90279500D01*
X90352129Y-90279500D01*
X90352123Y-90279501D01*
X90292516Y-90285908D01*
X90243332Y-90304253D01*
X90173640Y-90309237D01*
X90156667Y-90304253D01*
X90107486Y-90285910D01*
X90107485Y-90285909D01*
X90107483Y-90285909D01*
X90047873Y-90279500D01*
X90047863Y-90279500D01*
X89552129Y-90279500D01*
X89552123Y-90279501D01*
X89492516Y-90285908D01*
X89443332Y-90304253D01*
X89373640Y-90309237D01*
X89356667Y-90304253D01*
X89307486Y-90285910D01*
X89307485Y-90285909D01*
X89307483Y-90285909D01*
X89247873Y-90279500D01*
X89247863Y-90279500D01*
X88752129Y-90279500D01*
X88752123Y-90279501D01*
X88692516Y-90285908D01*
X88643332Y-90304253D01*
X88573640Y-90309237D01*
X88556667Y-90304253D01*
X88507482Y-90285908D01*
X88507483Y-90285908D01*
X88447883Y-90279501D01*
X88447881Y-90279500D01*
X88447873Y-90279500D01*
X88447865Y-90279500D01*
X88124499Y-90279500D01*
X88057460Y-90259815D01*
X88011705Y-90207011D01*
X88000499Y-90155500D01*
X88000499Y-90032129D01*
X88000498Y-90032123D01*
X87994091Y-89972517D01*
X87994090Y-89972514D01*
X87975747Y-89923334D01*
X87970762Y-89853643D01*
X87975747Y-89836665D01*
X87994089Y-89787488D01*
X87994088Y-89787488D01*
X87994091Y-89787483D01*
X88000500Y-89727873D01*
X88000499Y-89232128D01*
X87994091Y-89172517D01*
X87975747Y-89123334D01*
X87970762Y-89053643D01*
X87975747Y-89036665D01*
X87994089Y-88987488D01*
X87994088Y-88987488D01*
X87994091Y-88987483D01*
X88000500Y-88927873D01*
X88000499Y-88432128D01*
X87994091Y-88372517D01*
X87975747Y-88323334D01*
X87970762Y-88253643D01*
X87975747Y-88236665D01*
X87994089Y-88187488D01*
X87994088Y-88187488D01*
X87994091Y-88187483D01*
X88000500Y-88127873D01*
X88000499Y-87632128D01*
X87994091Y-87572517D01*
X87975747Y-87523334D01*
X87970762Y-87453643D01*
X87975747Y-87436665D01*
X87994089Y-87387488D01*
X87994088Y-87387488D01*
X87994091Y-87387483D01*
X88000500Y-87327873D01*
X88000499Y-86832128D01*
X87994091Y-86772517D01*
X87975747Y-86723334D01*
X87970762Y-86653643D01*
X87975747Y-86636665D01*
X87994089Y-86587488D01*
X87994088Y-86587488D01*
X87994091Y-86587483D01*
X88000500Y-86527873D01*
X88000499Y-86032128D01*
X87994091Y-85972517D01*
X87975747Y-85923334D01*
X87970762Y-85853643D01*
X87975747Y-85836665D01*
X87994089Y-85787488D01*
X87994088Y-85787488D01*
X87994091Y-85787483D01*
X88000500Y-85727873D01*
X88000499Y-85232128D01*
X87994091Y-85172517D01*
X87975747Y-85123334D01*
X87970762Y-85053643D01*
X87975747Y-85036665D01*
X87994089Y-84987488D01*
X87994088Y-84987488D01*
X87994091Y-84987483D01*
X88000500Y-84927873D01*
X88000499Y-84432128D01*
X87994091Y-84372517D01*
X87994089Y-84372511D01*
X87975747Y-84323334D01*
X87970762Y-84253643D01*
X87975747Y-84236665D01*
X87994089Y-84187488D01*
X87994088Y-84187488D01*
X87994091Y-84187483D01*
X88000500Y-84127873D01*
X88000499Y-83632128D01*
X87994091Y-83572517D01*
X87975747Y-83523334D01*
X87970762Y-83453643D01*
X87975747Y-83436665D01*
X87994089Y-83387488D01*
X87994088Y-83387488D01*
X87994091Y-83387483D01*
X88000500Y-83327873D01*
X88000499Y-82832128D01*
X87994091Y-82772517D01*
X87975747Y-82723334D01*
X87970762Y-82653643D01*
X87975747Y-82636665D01*
X87994089Y-82587488D01*
X87994088Y-82587488D01*
X87994091Y-82587483D01*
X88000500Y-82527873D01*
X88000500Y-82527844D01*
X98000000Y-82527844D01*
X98006401Y-82587372D01*
X98006403Y-82587380D01*
X98024786Y-82636667D01*
X98029770Y-82706359D01*
X98024786Y-82723333D01*
X98006403Y-82772619D01*
X98006401Y-82772627D01*
X98000000Y-82832155D01*
X98000000Y-82880000D01*
X98700000Y-82880000D01*
X98700000Y-81580000D01*
X98000000Y-81580000D01*
X98000000Y-82527844D01*
X88000500Y-82527844D01*
X88000499Y-82280000D01*
X88400000Y-82280000D01*
X88447828Y-82280000D01*
X88447844Y-82279999D01*
X88507377Y-82273597D01*
X88507378Y-82273597D01*
X88556665Y-82255214D01*
X88626356Y-82250228D01*
X88643335Y-82255214D01*
X88692621Y-82273597D01*
X88752155Y-82279999D01*
X88752172Y-82280000D01*
X88800000Y-82280000D01*
X89200000Y-82280000D01*
X89247828Y-82280000D01*
X89247844Y-82279999D01*
X89307377Y-82273597D01*
X89307378Y-82273597D01*
X89356665Y-82255214D01*
X89426356Y-82250228D01*
X89443335Y-82255214D01*
X89492621Y-82273597D01*
X89552155Y-82279999D01*
X89552172Y-82280000D01*
X89600000Y-82280000D01*
X90000000Y-82280000D01*
X90047828Y-82280000D01*
X90047844Y-82279999D01*
X90107377Y-82273597D01*
X90107378Y-82273597D01*
X90156665Y-82255214D01*
X90226356Y-82250228D01*
X90243335Y-82255214D01*
X90292621Y-82273597D01*
X90352155Y-82279999D01*
X90352172Y-82280000D01*
X90400000Y-82280000D01*
X90800000Y-82280000D01*
X90847828Y-82280000D01*
X90847844Y-82279999D01*
X90907377Y-82273597D01*
X90907378Y-82273597D01*
X90956665Y-82255214D01*
X91026356Y-82250228D01*
X91043335Y-82255214D01*
X91092621Y-82273597D01*
X91152155Y-82279999D01*
X91152172Y-82280000D01*
X91200000Y-82280000D01*
X91600000Y-82280000D01*
X91647828Y-82280000D01*
X91647844Y-82279999D01*
X91707377Y-82273597D01*
X91707378Y-82273597D01*
X91756665Y-82255214D01*
X91826356Y-82250228D01*
X91843335Y-82255214D01*
X91892621Y-82273597D01*
X91952155Y-82279999D01*
X91952172Y-82280000D01*
X92000000Y-82280000D01*
X92400000Y-82280000D01*
X92447828Y-82280000D01*
X92447844Y-82279999D01*
X92507377Y-82273597D01*
X92507378Y-82273597D01*
X92556665Y-82255214D01*
X92626356Y-82250228D01*
X92643335Y-82255214D01*
X92692621Y-82273597D01*
X92752155Y-82279999D01*
X92752172Y-82280000D01*
X92800000Y-82280000D01*
X93200000Y-82280000D01*
X93247828Y-82280000D01*
X93247844Y-82279999D01*
X93307377Y-82273597D01*
X93307378Y-82273597D01*
X93356665Y-82255214D01*
X93426356Y-82250228D01*
X93443335Y-82255214D01*
X93492621Y-82273597D01*
X93552155Y-82279999D01*
X93552172Y-82280000D01*
X93600000Y-82280000D01*
X94000000Y-82280000D01*
X94047828Y-82280000D01*
X94047844Y-82279999D01*
X94107377Y-82273597D01*
X94107378Y-82273597D01*
X94156665Y-82255214D01*
X94226356Y-82250228D01*
X94243335Y-82255214D01*
X94292621Y-82273597D01*
X94352155Y-82279999D01*
X94352172Y-82280000D01*
X94400000Y-82280000D01*
X94800000Y-82280000D01*
X94847828Y-82280000D01*
X94847844Y-82279999D01*
X94907377Y-82273597D01*
X94907378Y-82273597D01*
X94956665Y-82255214D01*
X95026356Y-82250228D01*
X95043335Y-82255214D01*
X95092621Y-82273597D01*
X95152155Y-82279999D01*
X95152172Y-82280000D01*
X95200000Y-82280000D01*
X95600000Y-82280000D01*
X95647828Y-82280000D01*
X95647844Y-82279999D01*
X95707377Y-82273597D01*
X95707378Y-82273597D01*
X95756665Y-82255214D01*
X95826356Y-82250228D01*
X95843335Y-82255214D01*
X95892621Y-82273597D01*
X95952155Y-82279999D01*
X95952172Y-82280000D01*
X96000000Y-82280000D01*
X96400000Y-82280000D01*
X96447828Y-82280000D01*
X96447844Y-82279999D01*
X96507377Y-82273597D01*
X96507378Y-82273597D01*
X96556665Y-82255214D01*
X96626356Y-82250228D01*
X96643335Y-82255214D01*
X96692621Y-82273597D01*
X96752155Y-82279999D01*
X96752172Y-82280000D01*
X96800000Y-82280000D01*
X97200000Y-82280000D01*
X97247828Y-82280000D01*
X97247844Y-82279999D01*
X97307377Y-82273597D01*
X97307378Y-82273597D01*
X97356665Y-82255214D01*
X97426356Y-82250228D01*
X97443335Y-82255214D01*
X97492621Y-82273597D01*
X97552155Y-82279999D01*
X97552172Y-82280000D01*
X97600000Y-82280000D01*
X97600000Y-81580000D01*
X97200000Y-81580000D01*
X97200000Y-82280000D01*
X96800000Y-82280000D01*
X96800000Y-81580000D01*
X96400000Y-81580000D01*
X96400000Y-82280000D01*
X96000000Y-82280000D01*
X96000000Y-81580000D01*
X95600000Y-81580000D01*
X95600000Y-82280000D01*
X95200000Y-82280000D01*
X95200000Y-81580000D01*
X94800000Y-81580000D01*
X94800000Y-82280000D01*
X94400000Y-82280000D01*
X94400000Y-81580000D01*
X94000000Y-81580000D01*
X94000000Y-82280000D01*
X93600000Y-82280000D01*
X93600000Y-81580000D01*
X93200000Y-81580000D01*
X93200000Y-82280000D01*
X92800000Y-82280000D01*
X92800000Y-81580000D01*
X92400000Y-81580000D01*
X92400000Y-82280000D01*
X92000000Y-82280000D01*
X92000000Y-81580000D01*
X91600000Y-81580000D01*
X91600000Y-82280000D01*
X91200000Y-82280000D01*
X91200000Y-81580000D01*
X90800000Y-81580000D01*
X90800000Y-82280000D01*
X90400000Y-82280000D01*
X90400000Y-81580000D01*
X90000000Y-81580000D01*
X90000000Y-82280000D01*
X89600000Y-82280000D01*
X89600000Y-81580000D01*
X89200000Y-81580000D01*
X89200000Y-82280000D01*
X88800000Y-82280000D01*
X88800000Y-81580000D01*
X88400000Y-81580000D01*
X88400000Y-82280000D01*
X88000499Y-82280000D01*
X88000499Y-82032128D01*
X88000498Y-82032127D01*
X88000321Y-82028805D01*
X88000426Y-82028799D01*
X88000000Y-82020836D01*
X88000000Y-81580000D01*
X87559167Y-81580000D01*
X87551188Y-81579572D01*
X87551183Y-81579678D01*
X87547879Y-81579500D01*
X87547873Y-81579500D01*
X87547866Y-81579500D01*
X86652129Y-81579500D01*
X86652123Y-81579501D01*
X86592517Y-81585908D01*
X86539294Y-81605759D01*
X86469603Y-81610742D01*
X86408280Y-81577256D01*
X86400000Y-81562091D01*
X86400000Y-80787168D01*
X86417843Y-80733381D01*
X86472203Y-80689486D01*
X86519769Y-80680000D01*
X87399653Y-80680000D01*
X87466692Y-80699685D01*
G37*
%TD.AperFunction*%
%TD*%
%TA.AperFunction,Conductor*%
%TO.N,GND*%
G36*
X94232870Y-122794779D02*
G01*
X94230002Y-122790851D01*
X94222693Y-122749405D01*
X94220500Y-122204320D01*
X94223052Y-122195498D01*
X94221728Y-122186407D01*
X94230351Y-122167429D01*
X94232870Y-122794779D01*
G37*
%TD.AperFunction*%
%TA.AperFunction,Conductor*%
G36*
X94405051Y-122080000D02*
G01*
X94343059Y-122080000D01*
X94344260Y-122079825D01*
X94404063Y-122079712D01*
X94405051Y-122080000D01*
G37*
%TD.AperFunction*%
%TD*%
%TA.AperFunction,Conductor*%
%TO.N,GND*%
G36*
X94471137Y-122099271D02*
G01*
X94502666Y-122128222D01*
X94510964Y-122139036D01*
X94628571Y-122229279D01*
X94765528Y-122286009D01*
X94875599Y-122300500D01*
X95074400Y-122300499D01*
X95074401Y-122300499D01*
X95091087Y-122298302D01*
X95184472Y-122286009D01*
X95184475Y-122286007D01*
X95192326Y-122283905D01*
X95193210Y-122287207D01*
X95246925Y-122281392D01*
X95257514Y-122284501D01*
X95257674Y-122283905D01*
X95265524Y-122286008D01*
X95265526Y-122286008D01*
X95265528Y-122286009D01*
X95375599Y-122300500D01*
X95574400Y-122300499D01*
X95574401Y-122300499D01*
X95591087Y-122298302D01*
X95684472Y-122286009D01*
X95684475Y-122286007D01*
X95692326Y-122283905D01*
X95693210Y-122287207D01*
X95746925Y-122281392D01*
X95757514Y-122284501D01*
X95757674Y-122283905D01*
X95765524Y-122286008D01*
X95765526Y-122286008D01*
X95765528Y-122286009D01*
X95875599Y-122300500D01*
X96074400Y-122300499D01*
X96074401Y-122300499D01*
X96091087Y-122298302D01*
X96184472Y-122286009D01*
X96184475Y-122286007D01*
X96192326Y-122283905D01*
X96193130Y-122286908D01*
X96242185Y-122280635D01*
X96257845Y-122282826D01*
X96265528Y-122286009D01*
X96375599Y-122300500D01*
X96384137Y-122300499D01*
X96392685Y-122301696D01*
X96416955Y-122312669D01*
X96442513Y-122320167D01*
X96448298Y-122326840D01*
X96456350Y-122330481D01*
X96470836Y-122352837D01*
X96488281Y-122372959D01*
X96490511Y-122383201D01*
X96494345Y-122389117D01*
X96494389Y-122401005D01*
X96498611Y-122420389D01*
X96499235Y-122420349D01*
X96499500Y-122424399D01*
X96513989Y-122534468D01*
X96516094Y-122542322D01*
X96512814Y-122543200D01*
X96518581Y-122597073D01*
X96515517Y-122607522D01*
X96516095Y-122607677D01*
X96513990Y-122615529D01*
X96499500Y-122725598D01*
X96499500Y-122924403D01*
X96513989Y-123034468D01*
X96516094Y-123042322D01*
X96512814Y-123043200D01*
X96518581Y-123097073D01*
X96515517Y-123107522D01*
X96516095Y-123107677D01*
X96513990Y-123115529D01*
X96499500Y-123225598D01*
X96499500Y-123424403D01*
X96513989Y-123534468D01*
X96516094Y-123542322D01*
X96512814Y-123543200D01*
X96518581Y-123597073D01*
X96515517Y-123607522D01*
X96516095Y-123607677D01*
X96513990Y-123615529D01*
X96499500Y-123725598D01*
X96499500Y-123924403D01*
X96513989Y-124034468D01*
X96516094Y-124042322D01*
X96513119Y-124043119D01*
X96519364Y-124092185D01*
X96517172Y-124107847D01*
X96513991Y-124115528D01*
X96499500Y-124225599D01*
X96499500Y-124234131D01*
X96498303Y-124242685D01*
X96487322Y-124266970D01*
X96479815Y-124292539D01*
X96473151Y-124298312D01*
X96469518Y-124306350D01*
X96447147Y-124320845D01*
X96427011Y-124338294D01*
X96416785Y-124340519D01*
X96410882Y-124344345D01*
X96399007Y-124344389D01*
X96379610Y-124348612D01*
X96379651Y-124349235D01*
X96375600Y-124349500D01*
X96265531Y-124363989D01*
X96257678Y-124366094D01*
X96256802Y-124362824D01*
X96202853Y-124368567D01*
X96192477Y-124365518D01*
X96192323Y-124366095D01*
X96184470Y-124363990D01*
X96074401Y-124349500D01*
X95875596Y-124349500D01*
X95765536Y-124363988D01*
X95765527Y-124363991D01*
X95628573Y-124420719D01*
X95628570Y-124420721D01*
X95550486Y-124480637D01*
X95485317Y-124505831D01*
X95416872Y-124491792D01*
X95399514Y-124480637D01*
X95321429Y-124420721D01*
X95321426Y-124420719D01*
X95184472Y-124363991D01*
X95184470Y-124363990D01*
X95074401Y-124349500D01*
X94875596Y-124349500D01*
X94765531Y-124363989D01*
X94757678Y-124366094D01*
X94756884Y-124363133D01*
X94707814Y-124369364D01*
X94692152Y-124367172D01*
X94684472Y-124363991D01*
X94574401Y-124349500D01*
X94565868Y-124349500D01*
X94557314Y-124348303D01*
X94533028Y-124337322D01*
X94507460Y-124329815D01*
X94501686Y-124323151D01*
X94493649Y-124319518D01*
X94479153Y-124297147D01*
X94461705Y-124277011D01*
X94459481Y-124266788D01*
X94455654Y-124260882D01*
X94455609Y-124248990D01*
X94451393Y-124229609D01*
X94450765Y-124229651D01*
X94450499Y-124225603D01*
X94450499Y-124225600D01*
X94436009Y-124115528D01*
X94436008Y-124115525D01*
X94433905Y-124107674D01*
X94437207Y-124106789D01*
X94431392Y-124053075D01*
X94434501Y-124042485D01*
X94433905Y-124042326D01*
X94436008Y-124034475D01*
X94436008Y-124034474D01*
X94436009Y-124034472D01*
X94450500Y-123924401D01*
X94450499Y-123725600D01*
X94436009Y-123615528D01*
X94436008Y-123615525D01*
X94433905Y-123607674D01*
X94437207Y-123606789D01*
X94431392Y-123553075D01*
X94434501Y-123542485D01*
X94433905Y-123542326D01*
X94436008Y-123534475D01*
X94436008Y-123534474D01*
X94436009Y-123534472D01*
X94450500Y-123424401D01*
X94450499Y-123225600D01*
X94450499Y-123225598D01*
X94450499Y-123225596D01*
X94436011Y-123115536D01*
X94436009Y-123115529D01*
X94436009Y-123115528D01*
X94379279Y-122978571D01*
X94289036Y-122860964D01*
X94289034Y-122860963D01*
X94289034Y-122860962D01*
X94271203Y-122847280D01*
X94232870Y-122794779D01*
X94230351Y-122167429D01*
X94232608Y-122162463D01*
X94239915Y-122137205D01*
X94246832Y-122131161D01*
X94250634Y-122122797D01*
X94272730Y-122108538D01*
X94292534Y-122091238D01*
X94303179Y-122088889D01*
X94309341Y-122084913D01*
X94343059Y-122080000D01*
X94405049Y-122080000D01*
X94471137Y-122099271D01*
G37*
%TD.AperFunction*%
%TD*%
M02*
