%TF.GenerationSoftware,KiCad,Pcbnew,10.0.1*%
%TF.CreationDate,2026-07-25T14:28:36+04:00*%
%TF.ProjectId,digital card,64696769-7461-46c2-9063-6172642e6b69,rev?*%
%TF.SameCoordinates,Original*%
%TF.FileFunction,Copper,L1,Top*%
%TF.FilePolarity,Positive*%
%FSLAX46Y46*%
G04 Gerber Fmt 4.6, Leading zero omitted, Abs format (unit mm)*
G04 Created by KiCad (PCBNEW 10.0.1) date 2026-07-25 14:28:36*
%MOMM*%
%LPD*%
G01*
G04 APERTURE LIST*
%TA.AperFunction,EtchedComponent*%
%ADD10C,0.600000*%
%TD*%
%TA.AperFunction,ComponentPad*%
%ADD11C,0.700000*%
%TD*%
%TA.AperFunction,ComponentPad*%
%ADD12O,1.000000X1.600000*%
%TD*%
%TA.AperFunction,ComponentPad*%
%ADD13O,1.000000X2.100000*%
%TD*%
%TA.AperFunction,ViaPad*%
%ADD14C,0.600000*%
%TD*%
%TA.AperFunction,Conductor*%
%ADD15C,0.600000*%
%TD*%
%TA.AperFunction,Conductor*%
%ADD16C,0.300000*%
%TD*%
%TA.AperFunction,Conductor*%
%ADD17C,0.250000*%
%TD*%
%TA.AperFunction,Conductor*%
%ADD18C,0.400000*%
%TD*%
%TA.AperFunction,Conductor*%
%ADD19C,0.200000*%
%TD*%
G04 APERTURE END LIST*
%TO.C,AE1*%
D10*
X145360000Y-85280000D02*
X159760000Y-85280000D01*
X145360000Y-86180000D02*
X158860000Y-86180000D01*
X145360000Y-134680000D02*
X145360000Y-86180000D01*
X146260000Y-87080000D02*
X157960000Y-87080000D01*
X146260000Y-133780000D02*
X146260000Y-87080000D01*
X147160000Y-87980000D02*
X157060000Y-87980000D01*
X147160000Y-132880000D02*
X147160000Y-87980000D01*
X148060000Y-88880000D02*
X156160000Y-88880000D01*
X148060000Y-131980000D02*
X148060000Y-88880000D01*
X148960000Y-89780000D02*
X155260000Y-89780000D01*
X148960000Y-131080000D02*
X148960000Y-89780000D01*
X149860000Y-90680000D02*
X154360000Y-90680000D01*
X149860000Y-130180000D02*
X149860000Y-90680000D01*
X150760000Y-91580000D02*
X153460000Y-91580000D01*
X150760000Y-129280000D02*
X150760000Y-91580000D01*
X151660000Y-128380000D02*
X151660000Y-109980000D01*
X153460000Y-91580000D02*
X153460000Y-128380000D01*
X153460000Y-128380000D02*
X151660000Y-128380000D01*
X154360000Y-90680000D02*
X154360000Y-129280000D01*
X154360000Y-129280000D02*
X150760000Y-129280000D01*
X155260000Y-89780000D02*
X155260000Y-130180000D01*
X155260000Y-130180000D02*
X149860000Y-130180000D01*
X156160000Y-88880000D02*
X156160000Y-131080000D01*
X156160000Y-131080000D02*
X148960000Y-131080000D01*
X157060000Y-87980000D02*
X157060000Y-131980000D01*
X157060000Y-131980000D02*
X148060000Y-131980000D01*
X157960000Y-87080000D02*
X157960000Y-132880000D01*
X157960000Y-132880000D02*
X147160000Y-132880000D01*
X158860000Y-86180000D02*
X158860000Y-133780000D01*
X158860000Y-133780000D02*
X146260000Y-133780000D01*
X159760000Y-85280000D02*
X159760000Y-134680000D01*
X159760000Y-134680000D02*
X145360000Y-134680000D01*
%TD*%
D11*
%TO.P,AE1,1*%
%TO.N,Net-(U4-LA)*%
X145360000Y-85280000D03*
%TO.P,AE1,2*%
%TO.N,Net-(U4-LB)*%
X151660000Y-109980000D03*
%TD*%
D12*
%TO.P,J1,SH,SHIELD_SH*%
%TO.N,GND*%
X80800000Y-137460000D03*
D13*
X80800000Y-133280000D03*
D12*
X72160000Y-137460000D03*
D13*
X72160000Y-133280000D03*
%TD*%
D14*
%TO.N,Net-(U4-LB)*%
X143670000Y-88970000D03*
X142413603Y-87673603D03*
%TO.N,/VGH*%
X95360000Y-109350000D03*
X80730000Y-113040000D03*
%TO.N,GND*%
X82937500Y-111650000D03*
X108810000Y-90730000D03*
X82250000Y-130750000D03*
X95475000Y-123325000D03*
X105180000Y-95090000D03*
X97775000Y-129500000D03*
X94700000Y-122550000D03*
X106950000Y-126000000D03*
X79500000Y-110500000D03*
X96180000Y-96000000D03*
X102775000Y-122000000D03*
X95475000Y-124250000D03*
X71500000Y-111500000D03*
X74255000Y-126320000D03*
X92882500Y-105360000D03*
X98550000Y-119000000D03*
X88607500Y-114730000D03*
X78945000Y-126310000D03*
X93000000Y-86280000D03*
X88837500Y-127360000D03*
X138000000Y-91000000D03*
X107000000Y-118637500D03*
X87050000Y-91230000D03*
X78060000Y-106985000D03*
X137320000Y-85830000D03*
%TO.N,Net-(C6-Pad1)*%
X85760000Y-101430000D03*
X82982581Y-98980260D03*
%TO.N,/Charger 5V*%
X102000000Y-126000000D03*
X98500000Y-125500000D03*
X94420000Y-128400000D03*
X99000000Y-123000000D03*
%TO.N,+3.3V*%
X132120000Y-86250000D03*
X134700000Y-85450000D03*
%TO.N,/SCL*%
X102500000Y-113500000D03*
X100000000Y-99712500D03*
X136480000Y-89640000D03*
X99640000Y-94320000D03*
%TO.N,Net-(C5-Pad1)*%
X85070000Y-102140000D03*
X82229702Y-99250772D03*
%TO.N,/VGL*%
X75740000Y-114940000D03*
X81280000Y-109950000D03*
%TO.N,/EPDDATA*%
X82150000Y-105125000D03*
X90070000Y-95130000D03*
X88320000Y-95770000D03*
X82120000Y-103375000D03*
%TO.N,/EPDCLK*%
X81353765Y-105202555D03*
X88320000Y-94969997D03*
X81320000Y-103375000D03*
X91280000Y-94060000D03*
%TO.N,/CS#*%
X80519997Y-103375000D03*
X94570000Y-93020000D03*
X80530000Y-105320000D03*
X88289913Y-93927348D03*
%TO.N,/D{slash}C#*%
X84190000Y-86290000D03*
X71690000Y-108500000D03*
%TO.N,/RES#*%
X76582626Y-106424337D03*
X103229442Y-86054442D03*
X100790000Y-85450000D03*
%TO.N,/BUSY*%
X76550000Y-105625000D03*
X88030000Y-93140000D03*
X79650000Y-103375000D03*
X92200000Y-92395000D03*
%TO.N,/GDR*%
X94880000Y-113090000D03*
X93470000Y-112600000D03*
%TO.N,/Alert*%
X99875000Y-110825000D03*
X97425000Y-97425000D03*
%TO.N,/SDA*%
X100790000Y-92180000D03*
X102881374Y-112750000D03*
X136370000Y-87850000D03*
X101000000Y-95500000D03*
%TD*%
%TO.N,Net-(U4-LB)*%
D15*
X143670000Y-88930000D02*
X142413603Y-87673603D01*
X143670000Y-88970000D02*
X143670000Y-88930000D01*
%TO.N,/VGH*%
D16*
X91670000Y-113040000D02*
X95360000Y-109350000D01*
X80730000Y-113040000D02*
X91670000Y-113040000D01*
%TO.N,Net-(C6-Pad1)*%
D17*
X82982581Y-98982581D02*
X82982581Y-98980260D01*
X85430000Y-101430000D02*
X82982581Y-98982581D01*
X85760000Y-101430000D02*
X85430000Y-101430000D01*
%TO.N,/Charger 5V*%
D18*
X96600000Y-128400000D02*
X99000000Y-126000000D01*
X94420000Y-128400000D02*
X96600000Y-128400000D01*
X100000000Y-126000000D02*
X99500000Y-125500000D01*
X99000000Y-126000000D02*
X98500000Y-125500000D01*
X99500000Y-125500000D02*
X99500000Y-123500000D01*
X102000000Y-126000000D02*
X100000000Y-126000000D01*
X99500000Y-125500000D02*
X99000000Y-126000000D01*
X99500000Y-123500000D02*
X99000000Y-123000000D01*
%TO.N,+3.3V*%
X132920000Y-85450000D02*
X132120000Y-86250000D01*
X134700000Y-85450000D02*
X132920000Y-85450000D01*
X132120000Y-86250000D02*
X132110000Y-86260000D01*
%TO.N,/SCL*%
D17*
X136480000Y-89640000D02*
X135140000Y-88300000D01*
X100000000Y-99712500D02*
X100500000Y-100212500D01*
X100500000Y-100212500D02*
X100500000Y-112000000D01*
X102000000Y-113500000D02*
X102500000Y-113500000D01*
X135140000Y-88300000D02*
X105660000Y-88300000D01*
X100500000Y-112000000D02*
X102000000Y-113500000D01*
X105660000Y-88300000D02*
X99640000Y-94320000D01*
%TO.N,Net-(C5-Pad1)*%
X82229702Y-99250772D02*
X82229702Y-99254533D01*
X82229702Y-99254533D02*
X82355000Y-99379831D01*
X82355000Y-99379831D02*
X82355000Y-99470000D01*
X85025000Y-102140000D02*
X85070000Y-102140000D01*
X82355000Y-99470000D02*
X85025000Y-102140000D01*
%TO.N,/VGL*%
D16*
X75740000Y-114940000D02*
X76290000Y-114940000D01*
X76290000Y-114940000D02*
X81280000Y-109950000D01*
%TO.N,/EPDDATA*%
D17*
X89430000Y-95770000D02*
X90070000Y-95130000D01*
X82150000Y-105125000D02*
X82150000Y-103405000D01*
X82150000Y-103405000D02*
X82120000Y-103375000D01*
X88320000Y-95770000D02*
X89430000Y-95770000D01*
%TO.N,/EPDCLK*%
X81353765Y-103408765D02*
X81320000Y-103375000D01*
X90870000Y-94470000D02*
X91280000Y-94060000D01*
X88320000Y-94969997D02*
X88320000Y-94750000D01*
X81353765Y-105202555D02*
X81353765Y-103408765D01*
X88320000Y-94750000D02*
X88600000Y-94470000D01*
X88600000Y-94470000D02*
X90870000Y-94470000D01*
%TO.N,/CS#*%
X94570000Y-93020000D02*
X89197261Y-93020000D01*
X89197261Y-93020000D02*
X88289913Y-93927348D01*
X80530000Y-103385003D02*
X80519997Y-103375000D01*
X80530000Y-105320000D02*
X80530000Y-103385003D01*
%TO.N,/D{slash}C#*%
X71690000Y-94490000D02*
X79890000Y-86290000D01*
X71690000Y-108500000D02*
X71690000Y-94490000D01*
X79890000Y-86290000D02*
X84190000Y-86290000D01*
%TO.N,/RES#*%
X103229442Y-85869442D02*
X102810000Y-85450000D01*
X102810000Y-85450000D02*
X100790000Y-85450000D01*
X77586396Y-106075000D02*
X77661396Y-106000000D01*
X76808884Y-106250000D02*
X76983884Y-106075000D01*
X103229442Y-86054442D02*
X103229442Y-85869442D01*
X83283884Y-106000000D02*
X103229442Y-86054442D01*
X76983884Y-106075000D02*
X77586396Y-106075000D01*
X76756963Y-106250000D02*
X76808884Y-106250000D01*
X76582626Y-106424337D02*
X76756963Y-106250000D01*
X77661396Y-106000000D02*
X83283884Y-106000000D01*
%TO.N,/BUSY*%
X88775000Y-92395000D02*
X88030000Y-93140000D01*
X92200000Y-92395000D02*
X88775000Y-92395000D01*
X77400000Y-105625000D02*
X76550000Y-105625000D01*
X79650000Y-103375000D02*
X77400000Y-105625000D01*
%TO.N,/GDR*%
X94880000Y-113090000D02*
X93960000Y-113090000D01*
X93960000Y-113090000D02*
X93470000Y-112600000D01*
%TO.N,/Alert*%
D19*
X99875000Y-110825000D02*
X99875000Y-101650000D01*
X97425000Y-99200000D02*
X97425000Y-97425000D01*
X99875000Y-101650000D02*
X97425000Y-99200000D01*
%TO.N,/SDA*%
D17*
X105120000Y-87850000D02*
X100790000Y-92180000D01*
X101000000Y-111750000D02*
X101000000Y-95500000D01*
X102881374Y-112750000D02*
X102000000Y-112750000D01*
X102000000Y-112750000D02*
X101000000Y-111750000D01*
X136370000Y-87850000D02*
X105120000Y-87850000D01*
%TD*%
%TA.AperFunction,Conductor*%
%TO.N,GND*%
G36*
X141943039Y-80699685D02*
G01*
X141988794Y-80752489D01*
X142000000Y-80804000D01*
X142000000Y-86920930D01*
X141980315Y-86987969D01*
X141944892Y-87024031D01*
X141903316Y-87051811D01*
X141903310Y-87051816D01*
X141791816Y-87163310D01*
X141791813Y-87163314D01*
X141704212Y-87294417D01*
X141704205Y-87294430D01*
X141643867Y-87440101D01*
X141643864Y-87440113D01*
X141613103Y-87594756D01*
X141613103Y-87752449D01*
X141643864Y-87907092D01*
X141643867Y-87907104D01*
X141704205Y-88052775D01*
X141704212Y-88052788D01*
X141791813Y-88183891D01*
X141791816Y-88183895D01*
X141963681Y-88355759D01*
X141997166Y-88417082D01*
X142000000Y-88443440D01*
X142000000Y-98876000D01*
X141980315Y-98943039D01*
X141927511Y-98988794D01*
X141876000Y-99000000D01*
X112000000Y-99000000D01*
X112000000Y-134876000D01*
X111980315Y-134943039D01*
X111927511Y-134988794D01*
X111876000Y-135000000D01*
X81211887Y-135000000D01*
X81144848Y-134980315D01*
X81099093Y-134927511D01*
X81089149Y-134858353D01*
X81118174Y-134794797D01*
X81164435Y-134761439D01*
X81273671Y-134716192D01*
X81273684Y-134716185D01*
X81437462Y-134606751D01*
X81437466Y-134606748D01*
X81576748Y-134467466D01*
X81576751Y-134467462D01*
X81686185Y-134303684D01*
X81686192Y-134303671D01*
X81761569Y-134121693D01*
X81761572Y-134121681D01*
X81799999Y-133928495D01*
X81800000Y-133928492D01*
X81800000Y-133530000D01*
X81100000Y-133530000D01*
X81100000Y-133030000D01*
X81800000Y-133030000D01*
X81800000Y-132631508D01*
X81799999Y-132631504D01*
X81761572Y-132438318D01*
X81761569Y-132438306D01*
X81686192Y-132256328D01*
X81686185Y-132256315D01*
X81576751Y-132092537D01*
X81576748Y-132092533D01*
X81437466Y-131953251D01*
X81437462Y-131953248D01*
X81273684Y-131843814D01*
X81273671Y-131843807D01*
X81091691Y-131768429D01*
X81091683Y-131768427D01*
X81050000Y-131760135D01*
X81050000Y-132563011D01*
X81040060Y-132545795D01*
X80984205Y-132489940D01*
X80915796Y-132450444D01*
X80839496Y-132430000D01*
X80760504Y-132430000D01*
X80684204Y-132450444D01*
X80615795Y-132489940D01*
X80559940Y-132545795D01*
X80550000Y-132563011D01*
X80550000Y-131760136D01*
X80549999Y-131760135D01*
X80508316Y-131768427D01*
X80508308Y-131768429D01*
X80326328Y-131843807D01*
X80326315Y-131843814D01*
X80162537Y-131953248D01*
X80162533Y-131953251D01*
X80023251Y-132092533D01*
X80023248Y-132092537D01*
X79913814Y-132256315D01*
X79913807Y-132256328D01*
X79838430Y-132438306D01*
X79838427Y-132438318D01*
X79800000Y-132631504D01*
X79800000Y-133030000D01*
X80500000Y-133030000D01*
X80500000Y-133530000D01*
X79944464Y-133530000D01*
X79877425Y-133510315D01*
X79837077Y-133468000D01*
X79830517Y-133456638D01*
X79830513Y-133456633D01*
X79723367Y-133349487D01*
X79723365Y-133349485D01*
X79657750Y-133311602D01*
X79592136Y-133273719D01*
X79518950Y-133254109D01*
X79445766Y-133234500D01*
X79294234Y-133234500D01*
X79147863Y-133273719D01*
X79016635Y-133349485D01*
X79016632Y-133349487D01*
X78909487Y-133456632D01*
X78909485Y-133456635D01*
X78833719Y-133587863D01*
X78794500Y-133734234D01*
X78794500Y-133885765D01*
X78833719Y-134032136D01*
X78855615Y-134070060D01*
X78909485Y-134163365D01*
X79016635Y-134270515D01*
X79147865Y-134346281D01*
X79294234Y-134385500D01*
X79294236Y-134385500D01*
X79445764Y-134385500D01*
X79445766Y-134385500D01*
X79592135Y-134346281D01*
X79723365Y-134270515D01*
X79723372Y-134270507D01*
X79729811Y-134265568D01*
X79732044Y-134268478D01*
X79778258Y-134242865D01*
X79847980Y-134247411D01*
X79904176Y-134288930D01*
X79910394Y-134298634D01*
X79910426Y-134298613D01*
X80023248Y-134467462D01*
X80023251Y-134467466D01*
X80162533Y-134606748D01*
X80162537Y-134606751D01*
X80326315Y-134716185D01*
X80326328Y-134716192D01*
X80435565Y-134761439D01*
X80489969Y-134805280D01*
X80512034Y-134871574D01*
X80494755Y-134939273D01*
X80443618Y-134986884D01*
X80388113Y-135000000D01*
X72571887Y-135000000D01*
X72504848Y-134980315D01*
X72459093Y-134927511D01*
X72449149Y-134858353D01*
X72478174Y-134794797D01*
X72524435Y-134761439D01*
X72633671Y-134716192D01*
X72633684Y-134716185D01*
X72797462Y-134606751D01*
X72797466Y-134606748D01*
X72936748Y-134467466D01*
X72936751Y-134467462D01*
X73049574Y-134298613D01*
X73051007Y-134299570D01*
X73094198Y-134255580D01*
X73162332Y-134240103D01*
X73228018Y-134263919D01*
X73230089Y-134265697D01*
X73230189Y-134265568D01*
X73236630Y-134270510D01*
X73236635Y-134270515D01*
X73367865Y-134346281D01*
X73514234Y-134385500D01*
X73514236Y-134385500D01*
X73665764Y-134385500D01*
X73665766Y-134385500D01*
X73812135Y-134346281D01*
X73943365Y-134270515D01*
X74050515Y-134163365D01*
X74126281Y-134032135D01*
X74165500Y-133885766D01*
X74165500Y-133734234D01*
X74126281Y-133587865D01*
X74050515Y-133456635D01*
X73943365Y-133349485D01*
X73877750Y-133311602D01*
X73812136Y-133273719D01*
X73738950Y-133254109D01*
X73665766Y-133234500D01*
X73514234Y-133234500D01*
X73367863Y-133273719D01*
X73236635Y-133349485D01*
X73236632Y-133349487D01*
X73129486Y-133456633D01*
X73129482Y-133456638D01*
X73122923Y-133468000D01*
X73072356Y-133516216D01*
X73015536Y-133530000D01*
X72460000Y-133530000D01*
X72460000Y-133030000D01*
X73160000Y-133030000D01*
X73160000Y-132631508D01*
X73159999Y-132631504D01*
X73121572Y-132438318D01*
X73121569Y-132438306D01*
X73046192Y-132256328D01*
X73046185Y-132256315D01*
X72936751Y-132092537D01*
X72936748Y-132092533D01*
X72797466Y-131953251D01*
X72797462Y-131953248D01*
X72633684Y-131843814D01*
X72633671Y-131843807D01*
X72451691Y-131768429D01*
X72451683Y-131768427D01*
X72410000Y-131760135D01*
X72410000Y-132563011D01*
X72400060Y-132545795D01*
X72344205Y-132489940D01*
X72275796Y-132450444D01*
X72199496Y-132430000D01*
X72120504Y-132430000D01*
X72044204Y-132450444D01*
X71975795Y-132489940D01*
X71919940Y-132545795D01*
X71910000Y-132563011D01*
X71910000Y-131760136D01*
X71909999Y-131760135D01*
X71868316Y-131768427D01*
X71868308Y-131768429D01*
X71686328Y-131843807D01*
X71686315Y-131843814D01*
X71522537Y-131953248D01*
X71522533Y-131953251D01*
X71383251Y-132092533D01*
X71383248Y-132092537D01*
X71273814Y-132256315D01*
X71273807Y-132256328D01*
X71198430Y-132438306D01*
X71198427Y-132438318D01*
X71160000Y-132631504D01*
X71160000Y-133030000D01*
X71860000Y-133030000D01*
X71860000Y-133530000D01*
X71160000Y-133530000D01*
X71160000Y-133928495D01*
X71198427Y-134121681D01*
X71198430Y-134121693D01*
X71273807Y-134303671D01*
X71273814Y-134303684D01*
X71383248Y-134467462D01*
X71383251Y-134467466D01*
X71522533Y-134606748D01*
X71522537Y-134606751D01*
X71686315Y-134716185D01*
X71686328Y-134716192D01*
X71795565Y-134761439D01*
X71849969Y-134805280D01*
X71872034Y-134871574D01*
X71854755Y-134939273D01*
X71803618Y-134986884D01*
X71748113Y-135000000D01*
X70124000Y-135000000D01*
X70056961Y-134980315D01*
X70011206Y-134927511D01*
X70000000Y-134876000D01*
X70000000Y-128321153D01*
X93619500Y-128321153D01*
X93619500Y-128478846D01*
X93650261Y-128633489D01*
X93650264Y-128633501D01*
X93710602Y-128779172D01*
X93710609Y-128779185D01*
X93798210Y-128910288D01*
X93798213Y-128910292D01*
X93909707Y-129021786D01*
X93909711Y-129021789D01*
X94040814Y-129109390D01*
X94040827Y-129109397D01*
X94186498Y-129169735D01*
X94186503Y-129169737D01*
X94341153Y-129200499D01*
X94341156Y-129200500D01*
X94341158Y-129200500D01*
X94498844Y-129200500D01*
X94498845Y-129200499D01*
X94653497Y-129169737D01*
X94728963Y-129138478D01*
X94797864Y-129109939D01*
X94845316Y-129100500D01*
X96668996Y-129100500D01*
X96760040Y-129082389D01*
X96804328Y-129073580D01*
X96868069Y-129047177D01*
X96931807Y-129020777D01*
X96931808Y-129020776D01*
X96931811Y-129020775D01*
X97046543Y-128944114D01*
X99417410Y-126573246D01*
X99478731Y-126539763D01*
X99548423Y-126544747D01*
X99573979Y-126557827D01*
X99668187Y-126620774D01*
X99668190Y-126620776D01*
X99795667Y-126673578D01*
X99795672Y-126673580D01*
X99795676Y-126673580D01*
X99795677Y-126673581D01*
X99931003Y-126700500D01*
X99931006Y-126700500D01*
X99931007Y-126700500D01*
X101574684Y-126700500D01*
X101622136Y-126709939D01*
X101766498Y-126769735D01*
X101766503Y-126769737D01*
X101921153Y-126800499D01*
X101921156Y-126800500D01*
X101921158Y-126800500D01*
X102078844Y-126800500D01*
X102078845Y-126800499D01*
X102233497Y-126769737D01*
X102379179Y-126709394D01*
X102510289Y-126621789D01*
X102621789Y-126510289D01*
X102709394Y-126379179D01*
X102769737Y-126233497D01*
X102800500Y-126078842D01*
X102800500Y-125921158D01*
X102800500Y-125921155D01*
X102800499Y-125921153D01*
X102769738Y-125766510D01*
X102769737Y-125766503D01*
X102756062Y-125733489D01*
X102709397Y-125620827D01*
X102709390Y-125620814D01*
X102621789Y-125489711D01*
X102621786Y-125489707D01*
X102510292Y-125378213D01*
X102510288Y-125378210D01*
X102379185Y-125290609D01*
X102379172Y-125290602D01*
X102233501Y-125230264D01*
X102233489Y-125230261D01*
X102078845Y-125199500D01*
X102078842Y-125199500D01*
X101921158Y-125199500D01*
X101921155Y-125199500D01*
X101766510Y-125230261D01*
X101766498Y-125230264D01*
X101622136Y-125290061D01*
X101574684Y-125299500D01*
X100341519Y-125299500D01*
X100312078Y-125290855D01*
X100282092Y-125284332D01*
X100277076Y-125280577D01*
X100274480Y-125279815D01*
X100253838Y-125263181D01*
X100236819Y-125246162D01*
X100203334Y-125184839D01*
X100200500Y-125158481D01*
X100200500Y-123431004D01*
X100173581Y-123295677D01*
X100173580Y-123295676D01*
X100173580Y-123295672D01*
X100147828Y-123233501D01*
X100120777Y-123168192D01*
X100044112Y-123053454D01*
X100044111Y-123053453D01*
X99796071Y-122805414D01*
X99769191Y-122765185D01*
X99709397Y-122620827D01*
X99709390Y-122620814D01*
X99621789Y-122489711D01*
X99621786Y-122489707D01*
X99510292Y-122378213D01*
X99510288Y-122378210D01*
X99379185Y-122290609D01*
X99379172Y-122290602D01*
X99233501Y-122230264D01*
X99233489Y-122230261D01*
X99078845Y-122199500D01*
X99078842Y-122199500D01*
X98921158Y-122199500D01*
X98921155Y-122199500D01*
X98766510Y-122230261D01*
X98766498Y-122230264D01*
X98620827Y-122290602D01*
X98620814Y-122290609D01*
X98489711Y-122378210D01*
X98489707Y-122378213D01*
X98378213Y-122489707D01*
X98378210Y-122489711D01*
X98290609Y-122620814D01*
X98290602Y-122620827D01*
X98230264Y-122766498D01*
X98230261Y-122766510D01*
X98199500Y-122921153D01*
X98199500Y-123078846D01*
X98230261Y-123233489D01*
X98230264Y-123233501D01*
X98290602Y-123379172D01*
X98290609Y-123379185D01*
X98378210Y-123510288D01*
X98378213Y-123510292D01*
X98489707Y-123621786D01*
X98489711Y-123621789D01*
X98620814Y-123709390D01*
X98620827Y-123709397D01*
X98722952Y-123751698D01*
X98777356Y-123795538D01*
X98799421Y-123861833D01*
X98799500Y-123866259D01*
X98799500Y-124592297D01*
X98779815Y-124659336D01*
X98727011Y-124705091D01*
X98657853Y-124715035D01*
X98651309Y-124713914D01*
X98578845Y-124699500D01*
X98578842Y-124699500D01*
X98421158Y-124699500D01*
X98421155Y-124699500D01*
X98266510Y-124730261D01*
X98266498Y-124730264D01*
X98120827Y-124790602D01*
X98120814Y-124790609D01*
X97989711Y-124878210D01*
X97989707Y-124878213D01*
X97878213Y-124989707D01*
X97878210Y-124989711D01*
X97790609Y-125120814D01*
X97790602Y-125120827D01*
X97730264Y-125266498D01*
X97730261Y-125266510D01*
X97699500Y-125421153D01*
X97699500Y-125578846D01*
X97730261Y-125733489D01*
X97730264Y-125733501D01*
X97790602Y-125879172D01*
X97790609Y-125879185D01*
X97870076Y-125998114D01*
X97890954Y-126064791D01*
X97872470Y-126132171D01*
X97854655Y-126154686D01*
X96346162Y-127663181D01*
X96284839Y-127696666D01*
X96258481Y-127699500D01*
X94845316Y-127699500D01*
X94797864Y-127690061D01*
X94653501Y-127630264D01*
X94653489Y-127630261D01*
X94498845Y-127599500D01*
X94498842Y-127599500D01*
X94341158Y-127599500D01*
X94341155Y-127599500D01*
X94186510Y-127630261D01*
X94186498Y-127630264D01*
X94040827Y-127690602D01*
X94040814Y-127690609D01*
X93909711Y-127778210D01*
X93909707Y-127778213D01*
X93798213Y-127889707D01*
X93798210Y-127889711D01*
X93710609Y-128020814D01*
X93710602Y-128020827D01*
X93650264Y-128166498D01*
X93650261Y-128166510D01*
X93619500Y-128321153D01*
X70000000Y-128321153D01*
X70000000Y-114861153D01*
X74939500Y-114861153D01*
X74939500Y-115018846D01*
X74970261Y-115173489D01*
X74970264Y-115173501D01*
X75030602Y-115319172D01*
X75030609Y-115319185D01*
X75118210Y-115450288D01*
X75118213Y-115450292D01*
X75229707Y-115561786D01*
X75229711Y-115561789D01*
X75360814Y-115649390D01*
X75360827Y-115649397D01*
X75506498Y-115709735D01*
X75506503Y-115709737D01*
X75661153Y-115740499D01*
X75661156Y-115740500D01*
X75661158Y-115740500D01*
X75818844Y-115740500D01*
X75818845Y-115740499D01*
X75973497Y-115709737D01*
X76119179Y-115649394D01*
X76176044Y-115611397D01*
X76242721Y-115590520D01*
X76244935Y-115590500D01*
X76354071Y-115590500D01*
X76438615Y-115573682D01*
X76479744Y-115565501D01*
X76598127Y-115516465D01*
X76704669Y-115445277D01*
X79188792Y-112961153D01*
X79929500Y-112961153D01*
X79929500Y-113118846D01*
X79960261Y-113273489D01*
X79960264Y-113273501D01*
X80020602Y-113419172D01*
X80020609Y-113419185D01*
X80108210Y-113550288D01*
X80108213Y-113550292D01*
X80219707Y-113661786D01*
X80219711Y-113661789D01*
X80350814Y-113749390D01*
X80350827Y-113749397D01*
X80496498Y-113809735D01*
X80496503Y-113809737D01*
X80651153Y-113840499D01*
X80651156Y-113840500D01*
X80651158Y-113840500D01*
X80808844Y-113840500D01*
X80808845Y-113840499D01*
X80963497Y-113809737D01*
X81109179Y-113749394D01*
X81166044Y-113711397D01*
X81232721Y-113690520D01*
X81234935Y-113690500D01*
X91734071Y-113690500D01*
X91818615Y-113673682D01*
X91859744Y-113665501D01*
X91978127Y-113616465D01*
X92009839Y-113595276D01*
X92084669Y-113545277D01*
X92609770Y-113020174D01*
X92671093Y-112986690D01*
X92740784Y-112991674D01*
X92796718Y-113033545D01*
X92800553Y-113038965D01*
X92848210Y-113110288D01*
X92848213Y-113110292D01*
X92959707Y-113221786D01*
X92959711Y-113221789D01*
X93090814Y-113309390D01*
X93090827Y-113309397D01*
X93178230Y-113345599D01*
X93236503Y-113369737D01*
X93347716Y-113391858D01*
X93409623Y-113424241D01*
X93411141Y-113425731D01*
X93530681Y-113545272D01*
X93561268Y-113575859D01*
X93663710Y-113644309D01*
X93663711Y-113644309D01*
X93663715Y-113644312D01*
X93717198Y-113666465D01*
X93777548Y-113691463D01*
X93797597Y-113695451D01*
X93806018Y-113697126D01*
X93898392Y-113715501D01*
X93898394Y-113715501D01*
X94027721Y-113715501D01*
X94027741Y-113715500D01*
X94337650Y-113715500D01*
X94404689Y-113735185D01*
X94406541Y-113736398D01*
X94500821Y-113799394D01*
X94500823Y-113799395D01*
X94500827Y-113799397D01*
X94600060Y-113840500D01*
X94646503Y-113859737D01*
X94801153Y-113890499D01*
X94801156Y-113890500D01*
X94801158Y-113890500D01*
X94958844Y-113890500D01*
X94958845Y-113890499D01*
X95113497Y-113859737D01*
X95259179Y-113799394D01*
X95390289Y-113711789D01*
X95501789Y-113600289D01*
X95589394Y-113469179D01*
X95649737Y-113323497D01*
X95680500Y-113168842D01*
X95680500Y-113011158D01*
X95680500Y-113011155D01*
X95680499Y-113011153D01*
X95670553Y-112961153D01*
X95649737Y-112856503D01*
X95638281Y-112828846D01*
X95589397Y-112710827D01*
X95589390Y-112710814D01*
X95501789Y-112579711D01*
X95501786Y-112579707D01*
X95390292Y-112468213D01*
X95390288Y-112468210D01*
X95259185Y-112380609D01*
X95259172Y-112380602D01*
X95113501Y-112320264D01*
X95113489Y-112320261D01*
X94958845Y-112289500D01*
X94958842Y-112289500D01*
X94801158Y-112289500D01*
X94801155Y-112289500D01*
X94646510Y-112320261D01*
X94646498Y-112320264D01*
X94500827Y-112380602D01*
X94500814Y-112380609D01*
X94426312Y-112430391D01*
X94359635Y-112451269D01*
X94292254Y-112432785D01*
X94245564Y-112380806D01*
X94242177Y-112372084D01*
X94242068Y-112372130D01*
X94179397Y-112220827D01*
X94179390Y-112220814D01*
X94091789Y-112089711D01*
X94091786Y-112089707D01*
X93980289Y-111978210D01*
X93908964Y-111930553D01*
X93864159Y-111876941D01*
X93855452Y-111807616D01*
X93885606Y-111744589D01*
X93890155Y-111739789D01*
X95462931Y-110167013D01*
X95524252Y-110133530D01*
X95526317Y-110133099D01*
X95593497Y-110119737D01*
X95739179Y-110059394D01*
X95870289Y-109971789D01*
X95981789Y-109860289D01*
X96069394Y-109729179D01*
X96074643Y-109716508D01*
X96129735Y-109583501D01*
X96129737Y-109583497D01*
X96160500Y-109428842D01*
X96160500Y-109271158D01*
X96160500Y-109271155D01*
X96160499Y-109271153D01*
X96142419Y-109180261D01*
X96129737Y-109116503D01*
X96129735Y-109116498D01*
X96069397Y-108970827D01*
X96069390Y-108970814D01*
X95981789Y-108839711D01*
X95981786Y-108839707D01*
X95870292Y-108728213D01*
X95870288Y-108728210D01*
X95739185Y-108640609D01*
X95739172Y-108640602D01*
X95593501Y-108580264D01*
X95593489Y-108580261D01*
X95438845Y-108549500D01*
X95438842Y-108549500D01*
X95281158Y-108549500D01*
X95281155Y-108549500D01*
X95126510Y-108580261D01*
X95126498Y-108580264D01*
X94980827Y-108640602D01*
X94980814Y-108640609D01*
X94849711Y-108728210D01*
X94849707Y-108728213D01*
X94738213Y-108839707D01*
X94738210Y-108839711D01*
X94650609Y-108970814D01*
X94650602Y-108970827D01*
X94590264Y-109116498D01*
X94590261Y-109116508D01*
X94576920Y-109183579D01*
X94544535Y-109245490D01*
X94542984Y-109247068D01*
X91436873Y-112353181D01*
X91375550Y-112386666D01*
X91349192Y-112389500D01*
X81234935Y-112389500D01*
X81167896Y-112369815D01*
X81166090Y-112368633D01*
X81109179Y-112330606D01*
X81109172Y-112330602D01*
X80963501Y-112270264D01*
X80963489Y-112270261D01*
X80808845Y-112239500D01*
X80808842Y-112239500D01*
X80651158Y-112239500D01*
X80651155Y-112239500D01*
X80496510Y-112270261D01*
X80496498Y-112270264D01*
X80350827Y-112330602D01*
X80350814Y-112330609D01*
X80219711Y-112418210D01*
X80219707Y-112418213D01*
X80108213Y-112529707D01*
X80108210Y-112529711D01*
X80020609Y-112660814D01*
X80020602Y-112660827D01*
X79960264Y-112806498D01*
X79960261Y-112806510D01*
X79929500Y-112961153D01*
X79188792Y-112961153D01*
X81382931Y-110767013D01*
X81444252Y-110733530D01*
X81446317Y-110733099D01*
X81513497Y-110719737D01*
X81659179Y-110659394D01*
X81790289Y-110571789D01*
X81901789Y-110460289D01*
X81989394Y-110329179D01*
X82049737Y-110183497D01*
X82080500Y-110028842D01*
X82080500Y-109871158D01*
X82080500Y-109871155D01*
X82080499Y-109871153D01*
X82063079Y-109783579D01*
X82049737Y-109716503D01*
X82049735Y-109716498D01*
X81989397Y-109570827D01*
X81989390Y-109570814D01*
X81901789Y-109439711D01*
X81901786Y-109439707D01*
X81790292Y-109328213D01*
X81790288Y-109328210D01*
X81659185Y-109240609D01*
X81659172Y-109240602D01*
X81513501Y-109180264D01*
X81513489Y-109180261D01*
X81358845Y-109149500D01*
X81358842Y-109149500D01*
X81201158Y-109149500D01*
X81201155Y-109149500D01*
X81046510Y-109180261D01*
X81046498Y-109180264D01*
X80900827Y-109240602D01*
X80900814Y-109240609D01*
X80769711Y-109328210D01*
X80769707Y-109328213D01*
X80658213Y-109439707D01*
X80658210Y-109439711D01*
X80570609Y-109570814D01*
X80570602Y-109570827D01*
X80510264Y-109716498D01*
X80510261Y-109716508D01*
X80496920Y-109783579D01*
X80464535Y-109845490D01*
X80462984Y-109847068D01*
X76149670Y-114160382D01*
X76088347Y-114193867D01*
X76018655Y-114188883D01*
X76014536Y-114187262D01*
X75973497Y-114170263D01*
X75973489Y-114170261D01*
X75818845Y-114139500D01*
X75818842Y-114139500D01*
X75661158Y-114139500D01*
X75661155Y-114139500D01*
X75506510Y-114170261D01*
X75506498Y-114170264D01*
X75360827Y-114230602D01*
X75360814Y-114230609D01*
X75229711Y-114318210D01*
X75229707Y-114318213D01*
X75118213Y-114429707D01*
X75118210Y-114429711D01*
X75030609Y-114560814D01*
X75030602Y-114560827D01*
X74970264Y-114706498D01*
X74970261Y-114706510D01*
X74939500Y-114861153D01*
X70000000Y-114861153D01*
X70000000Y-108421153D01*
X70889500Y-108421153D01*
X70889500Y-108578846D01*
X70920261Y-108733489D01*
X70920264Y-108733501D01*
X70980602Y-108879172D01*
X70980609Y-108879185D01*
X71068210Y-109010288D01*
X71068213Y-109010292D01*
X71179707Y-109121786D01*
X71179711Y-109121789D01*
X71310814Y-109209390D01*
X71310827Y-109209397D01*
X71456498Y-109269735D01*
X71456503Y-109269737D01*
X71611153Y-109300499D01*
X71611156Y-109300500D01*
X71611158Y-109300500D01*
X71768844Y-109300500D01*
X71768845Y-109300499D01*
X71923497Y-109269737D01*
X72069179Y-109209394D01*
X72200289Y-109121789D01*
X72311789Y-109010289D01*
X72399394Y-108879179D01*
X72459737Y-108733497D01*
X72490500Y-108578842D01*
X72490500Y-108421158D01*
X72490500Y-108421155D01*
X72490499Y-108421153D01*
X72459738Y-108266510D01*
X72459737Y-108266503D01*
X72399394Y-108120821D01*
X72336397Y-108026539D01*
X72315520Y-107959863D01*
X72315500Y-107957650D01*
X72315500Y-105546153D01*
X75749500Y-105546153D01*
X75749500Y-105703846D01*
X75780261Y-105858489D01*
X75780264Y-105858501D01*
X75840606Y-106004181D01*
X75840908Y-106004745D01*
X75840976Y-106005073D01*
X75842937Y-106009807D01*
X75842038Y-106010178D01*
X75855144Y-106073149D01*
X75846107Y-106110640D01*
X75812889Y-106190838D01*
X75812887Y-106190842D01*
X75782126Y-106345490D01*
X75782126Y-106503180D01*
X75812887Y-106657826D01*
X75812890Y-106657838D01*
X75873228Y-106803509D01*
X75873235Y-106803522D01*
X75960836Y-106934625D01*
X75960839Y-106934629D01*
X76072333Y-107046123D01*
X76072337Y-107046126D01*
X76203440Y-107133727D01*
X76203453Y-107133734D01*
X76349124Y-107194072D01*
X76349129Y-107194074D01*
X76503779Y-107224836D01*
X76503782Y-107224837D01*
X76503784Y-107224837D01*
X76661470Y-107224837D01*
X76661471Y-107224836D01*
X76816123Y-107194074D01*
X76961805Y-107133731D01*
X77092915Y-107046126D01*
X77204415Y-106934626D01*
X77292020Y-106803516D01*
X77302983Y-106777046D01*
X77346822Y-106722645D01*
X77413116Y-106700579D01*
X77417544Y-106700500D01*
X77648003Y-106700500D01*
X77708425Y-106688481D01*
X77768848Y-106676463D01*
X77813822Y-106657834D01*
X77869097Y-106634939D01*
X77916550Y-106625500D01*
X83345491Y-106625500D01*
X83405913Y-106613481D01*
X83466336Y-106601463D01*
X83499676Y-106587652D01*
X83580170Y-106554312D01*
X83656694Y-106503179D01*
X83682617Y-106485858D01*
X83769742Y-106398733D01*
X83769744Y-106398729D01*
X92822320Y-97346153D01*
X96624500Y-97346153D01*
X96624500Y-97503846D01*
X96655261Y-97658489D01*
X96655264Y-97658501D01*
X96715602Y-97804172D01*
X96715609Y-97804185D01*
X96803602Y-97935874D01*
X96824480Y-98002551D01*
X96824500Y-98004765D01*
X96824500Y-99113330D01*
X96824499Y-99113348D01*
X96824499Y-99279054D01*
X96824498Y-99279054D01*
X96824499Y-99279057D01*
X96865423Y-99431785D01*
X96892685Y-99479003D01*
X96944479Y-99568714D01*
X96944481Y-99568717D01*
X97063349Y-99687585D01*
X97063355Y-99687590D01*
X99238181Y-101862416D01*
X99271666Y-101923739D01*
X99274500Y-101950097D01*
X99274500Y-110245234D01*
X99254815Y-110312273D01*
X99253602Y-110314125D01*
X99165609Y-110445814D01*
X99165602Y-110445827D01*
X99105264Y-110591498D01*
X99105261Y-110591510D01*
X99074500Y-110746153D01*
X99074500Y-110903846D01*
X99105261Y-111058489D01*
X99105264Y-111058501D01*
X99165602Y-111204172D01*
X99165609Y-111204185D01*
X99253210Y-111335288D01*
X99253213Y-111335292D01*
X99364707Y-111446786D01*
X99364711Y-111446789D01*
X99495814Y-111534390D01*
X99495827Y-111534397D01*
X99641498Y-111594735D01*
X99641503Y-111594737D01*
X99751987Y-111616713D01*
X99774691Y-111621230D01*
X99836602Y-111653615D01*
X99871176Y-111714330D01*
X99874500Y-111742847D01*
X99874500Y-112061610D01*
X99898535Y-112182444D01*
X99898537Y-112182452D01*
X99912347Y-112215792D01*
X99945688Y-112296286D01*
X99968621Y-112330606D01*
X99973023Y-112337194D01*
X99973027Y-112337202D01*
X100014140Y-112398731D01*
X100014141Y-112398732D01*
X100014142Y-112398733D01*
X100101267Y-112485858D01*
X100101268Y-112485858D01*
X100108335Y-112492925D01*
X100108334Y-112492925D01*
X100108337Y-112492927D01*
X101514141Y-113898732D01*
X101514142Y-113898733D01*
X101601267Y-113985858D01*
X101601268Y-113985859D01*
X101703707Y-114054307D01*
X101703713Y-114054310D01*
X101703714Y-114054311D01*
X101817548Y-114101463D01*
X101877971Y-114113481D01*
X101938393Y-114125500D01*
X101938394Y-114125500D01*
X101966207Y-114125500D01*
X101974681Y-114126675D01*
X101999050Y-114137656D01*
X102024689Y-114145185D01*
X102026541Y-114146398D01*
X102047469Y-114160382D01*
X102120821Y-114209394D01*
X102120823Y-114209395D01*
X102120827Y-114209397D01*
X102266498Y-114269735D01*
X102266503Y-114269737D01*
X102421153Y-114300499D01*
X102421156Y-114300500D01*
X102421158Y-114300500D01*
X102578844Y-114300500D01*
X102578845Y-114300499D01*
X102733497Y-114269737D01*
X102879179Y-114209394D01*
X103010289Y-114121789D01*
X103121789Y-114010289D01*
X103209394Y-113879179D01*
X103269737Y-113733497D01*
X103300500Y-113578842D01*
X103300500Y-113498981D01*
X103320185Y-113431942D01*
X103355611Y-113395878D01*
X103391663Y-113371789D01*
X103503163Y-113260289D01*
X103590768Y-113129179D01*
X103651111Y-112983497D01*
X103681874Y-112828842D01*
X103681874Y-112671158D01*
X103681874Y-112671155D01*
X103681873Y-112671153D01*
X103651112Y-112516510D01*
X103651111Y-112516503D01*
X103629571Y-112464500D01*
X103590771Y-112370827D01*
X103590764Y-112370814D01*
X103503163Y-112239711D01*
X103503160Y-112239707D01*
X103391666Y-112128213D01*
X103391662Y-112128210D01*
X103260559Y-112040609D01*
X103260546Y-112040602D01*
X103114875Y-111980264D01*
X103114863Y-111980261D01*
X102960219Y-111949500D01*
X102960216Y-111949500D01*
X102802532Y-111949500D01*
X102802529Y-111949500D01*
X102647884Y-111980261D01*
X102647872Y-111980264D01*
X102502201Y-112040602D01*
X102502189Y-112040609D01*
X102407915Y-112103602D01*
X102389868Y-112109252D01*
X102373959Y-112119477D01*
X102342999Y-112123928D01*
X102341238Y-112124480D01*
X102339024Y-112124500D01*
X102310453Y-112124500D01*
X102243414Y-112104815D01*
X102222772Y-112088181D01*
X101661819Y-111527228D01*
X101628334Y-111465905D01*
X101625500Y-111439547D01*
X101625500Y-96042350D01*
X101645185Y-95975311D01*
X101646398Y-95973459D01*
X101658202Y-95955793D01*
X101709394Y-95879179D01*
X101769737Y-95733497D01*
X101800500Y-95578842D01*
X101800500Y-95421158D01*
X101800500Y-95421155D01*
X101800499Y-95421153D01*
X101794703Y-95392015D01*
X101769737Y-95266503D01*
X101733477Y-95178962D01*
X101709397Y-95120827D01*
X101709390Y-95120814D01*
X101621789Y-94989711D01*
X101621786Y-94989707D01*
X101510292Y-94878213D01*
X101510288Y-94878210D01*
X101379185Y-94790609D01*
X101379172Y-94790602D01*
X101233501Y-94730264D01*
X101233489Y-94730261D01*
X101078845Y-94699500D01*
X101078842Y-94699500D01*
X100921158Y-94699500D01*
X100921155Y-94699500D01*
X100766510Y-94730261D01*
X100766498Y-94730264D01*
X100620827Y-94790602D01*
X100620816Y-94790608D01*
X100533042Y-94849257D01*
X100466365Y-94870134D01*
X100398985Y-94851649D01*
X100352295Y-94799670D01*
X100341119Y-94730700D01*
X100349589Y-94698707D01*
X100409737Y-94553497D01*
X100431858Y-94442282D01*
X100464240Y-94380375D01*
X100465734Y-94378854D01*
X105882772Y-88961819D01*
X105944095Y-88928334D01*
X105970453Y-88925500D01*
X134829548Y-88925500D01*
X134896587Y-88945185D01*
X134917229Y-88961819D01*
X135654205Y-89698795D01*
X135687690Y-89760118D01*
X135688141Y-89762285D01*
X135710261Y-89873489D01*
X135710264Y-89873501D01*
X135770602Y-90019172D01*
X135770609Y-90019185D01*
X135858210Y-90150288D01*
X135858213Y-90150292D01*
X135969707Y-90261786D01*
X135969711Y-90261789D01*
X136100814Y-90349390D01*
X136100827Y-90349397D01*
X136246498Y-90409735D01*
X136246503Y-90409737D01*
X136401153Y-90440499D01*
X136401156Y-90440500D01*
X136401158Y-90440500D01*
X136558844Y-90440500D01*
X136558845Y-90440499D01*
X136713497Y-90409737D01*
X136859179Y-90349394D01*
X136990289Y-90261789D01*
X137101789Y-90150289D01*
X137189394Y-90019179D01*
X137249737Y-89873497D01*
X137280500Y-89718842D01*
X137280500Y-89561158D01*
X137280500Y-89561155D01*
X137280499Y-89561153D01*
X137249738Y-89406510D01*
X137249737Y-89406503D01*
X137249735Y-89406498D01*
X137189397Y-89260827D01*
X137189390Y-89260814D01*
X137101789Y-89129711D01*
X137101786Y-89129707D01*
X136990292Y-89018213D01*
X136990288Y-89018210D01*
X136859185Y-88930609D01*
X136859172Y-88930602D01*
X136713501Y-88870264D01*
X136713491Y-88870261D01*
X136631496Y-88853951D01*
X136569585Y-88821566D01*
X136535011Y-88760850D01*
X136538752Y-88691080D01*
X136579618Y-88634408D01*
X136608227Y-88617777D01*
X136749179Y-88559394D01*
X136880289Y-88471789D01*
X136991789Y-88360289D01*
X137079394Y-88229179D01*
X137139737Y-88083497D01*
X137170500Y-87928842D01*
X137170500Y-87771158D01*
X137170500Y-87771155D01*
X137170499Y-87771153D01*
X137139737Y-87616503D01*
X137130729Y-87594756D01*
X137079397Y-87470827D01*
X137079390Y-87470814D01*
X136991789Y-87339711D01*
X136991786Y-87339707D01*
X136880292Y-87228213D01*
X136880288Y-87228210D01*
X136749185Y-87140609D01*
X136749172Y-87140602D01*
X136603501Y-87080264D01*
X136603489Y-87080261D01*
X136448845Y-87049500D01*
X136448842Y-87049500D01*
X136291158Y-87049500D01*
X136291155Y-87049500D01*
X136136510Y-87080261D01*
X136136498Y-87080264D01*
X135990827Y-87140602D01*
X135990815Y-87140609D01*
X135896541Y-87203602D01*
X135829864Y-87224480D01*
X135827650Y-87224500D01*
X132482546Y-87224500D01*
X132415507Y-87204815D01*
X132369752Y-87152011D01*
X132359808Y-87082853D01*
X132388833Y-87019297D01*
X132435094Y-86985939D01*
X132499172Y-86959397D01*
X132499172Y-86959396D01*
X132499179Y-86959394D01*
X132630289Y-86871789D01*
X132741789Y-86760289D01*
X132829394Y-86629179D01*
X132829395Y-86629176D01*
X132829397Y-86629173D01*
X132873167Y-86523501D01*
X132889192Y-86484810D01*
X132916067Y-86444588D01*
X133173839Y-86186816D01*
X133235161Y-86153334D01*
X133261519Y-86150500D01*
X134274684Y-86150500D01*
X134322136Y-86159939D01*
X134445779Y-86211153D01*
X134466503Y-86219737D01*
X134621153Y-86250499D01*
X134621156Y-86250500D01*
X134621158Y-86250500D01*
X134778844Y-86250500D01*
X134778845Y-86250499D01*
X134933497Y-86219737D01*
X135079179Y-86159394D01*
X135210289Y-86071789D01*
X135321789Y-85960289D01*
X135409394Y-85829179D01*
X135469737Y-85683497D01*
X135500500Y-85528842D01*
X135500500Y-85371158D01*
X135500500Y-85371155D01*
X135500499Y-85371153D01*
X135469737Y-85216503D01*
X135469735Y-85216498D01*
X135409397Y-85070827D01*
X135409390Y-85070814D01*
X135321789Y-84939711D01*
X135321786Y-84939707D01*
X135210292Y-84828213D01*
X135210288Y-84828210D01*
X135079185Y-84740609D01*
X135079172Y-84740602D01*
X134933501Y-84680264D01*
X134933489Y-84680261D01*
X134778845Y-84649500D01*
X134778842Y-84649500D01*
X134621158Y-84649500D01*
X134621155Y-84649500D01*
X134466510Y-84680261D01*
X134466498Y-84680264D01*
X134322136Y-84740061D01*
X134274684Y-84749500D01*
X132851004Y-84749500D01*
X132715677Y-84776418D01*
X132715667Y-84776421D01*
X132588192Y-84829222D01*
X132473454Y-84905887D01*
X131925412Y-85453929D01*
X131885184Y-85480809D01*
X131740823Y-85540604D01*
X131740814Y-85540609D01*
X131609711Y-85628210D01*
X131609707Y-85628213D01*
X131498213Y-85739707D01*
X131498210Y-85739711D01*
X131410609Y-85870814D01*
X131410602Y-85870827D01*
X131350264Y-86016498D01*
X131350261Y-86016510D01*
X131319500Y-86171153D01*
X131319500Y-86328846D01*
X131350261Y-86483489D01*
X131350264Y-86483501D01*
X131410602Y-86629172D01*
X131410609Y-86629185D01*
X131498210Y-86760288D01*
X131498213Y-86760292D01*
X131609707Y-86871786D01*
X131609711Y-86871789D01*
X131740814Y-86959390D01*
X131740827Y-86959397D01*
X131804906Y-86985939D01*
X131859310Y-87029779D01*
X131881375Y-87096073D01*
X131864096Y-87163773D01*
X131812959Y-87211384D01*
X131757454Y-87224500D01*
X105058394Y-87224500D01*
X104937548Y-87248537D01*
X104912448Y-87258934D01*
X104912446Y-87258935D01*
X104912445Y-87258934D01*
X104823717Y-87295686D01*
X104823708Y-87295691D01*
X104721267Y-87364141D01*
X104721263Y-87364144D01*
X100731203Y-91354205D01*
X100669880Y-91387690D01*
X100667714Y-91388141D01*
X100556508Y-91410261D01*
X100556498Y-91410264D01*
X100410827Y-91470602D01*
X100410814Y-91470609D01*
X100279711Y-91558210D01*
X100279707Y-91558213D01*
X100168213Y-91669707D01*
X100168210Y-91669711D01*
X100080609Y-91800814D01*
X100080602Y-91800827D01*
X100020264Y-91946498D01*
X100020261Y-91946510D01*
X99989500Y-92101153D01*
X99989500Y-92258846D01*
X100020261Y-92413489D01*
X100020264Y-92413501D01*
X100080602Y-92559172D01*
X100080609Y-92559185D01*
X100168210Y-92690288D01*
X100168213Y-92690292D01*
X100188983Y-92711062D01*
X100222468Y-92772385D01*
X100217484Y-92842077D01*
X100188983Y-92886424D01*
X99581203Y-93494205D01*
X99519880Y-93527690D01*
X99517714Y-93528141D01*
X99406508Y-93550261D01*
X99406498Y-93550264D01*
X99260827Y-93610602D01*
X99260814Y-93610609D01*
X99129711Y-93698210D01*
X99129707Y-93698213D01*
X99018213Y-93809707D01*
X99018210Y-93809711D01*
X98930609Y-93940814D01*
X98930602Y-93940827D01*
X98870264Y-94086498D01*
X98870261Y-94086510D01*
X98839500Y-94241153D01*
X98839500Y-94398846D01*
X98870261Y-94553489D01*
X98870264Y-94553501D01*
X98930602Y-94699172D01*
X98930609Y-94699185D01*
X99018210Y-94830288D01*
X99018213Y-94830292D01*
X99129707Y-94941786D01*
X99129711Y-94941789D01*
X99260814Y-95029390D01*
X99260827Y-95029397D01*
X99401829Y-95087801D01*
X99406503Y-95089737D01*
X99561153Y-95120499D01*
X99561156Y-95120500D01*
X99561158Y-95120500D01*
X99718844Y-95120500D01*
X99718845Y-95120499D01*
X99873497Y-95089737D01*
X100019179Y-95029394D01*
X100019184Y-95029390D01*
X100019187Y-95029389D01*
X100052897Y-95006864D01*
X100106955Y-94970743D01*
X100173631Y-94949865D01*
X100241012Y-94968349D01*
X100287702Y-95020327D01*
X100298879Y-95089297D01*
X100290408Y-95121296D01*
X100230263Y-95266503D01*
X100230261Y-95266510D01*
X100199500Y-95421153D01*
X100199500Y-95578846D01*
X100230261Y-95733489D01*
X100230264Y-95733501D01*
X100290602Y-95879172D01*
X100290609Y-95879184D01*
X100353602Y-95973459D01*
X100374480Y-96040136D01*
X100374500Y-96042350D01*
X100374500Y-98819715D01*
X100354815Y-98886754D01*
X100302011Y-98932509D01*
X100232853Y-98942453D01*
X100226309Y-98941332D01*
X100078846Y-98912000D01*
X100078842Y-98912000D01*
X99921158Y-98912000D01*
X99921155Y-98912000D01*
X99766510Y-98942761D01*
X99766498Y-98942764D01*
X99620827Y-99003102D01*
X99620814Y-99003109D01*
X99489711Y-99090710D01*
X99489707Y-99090713D01*
X99378213Y-99202207D01*
X99378210Y-99202211D01*
X99290609Y-99333314D01*
X99290602Y-99333327D01*
X99230264Y-99478998D01*
X99230261Y-99479010D01*
X99199500Y-99633653D01*
X99199500Y-99633658D01*
X99199500Y-99791342D01*
X99199500Y-99791344D01*
X99199499Y-99791344D01*
X99202666Y-99807263D01*
X99196437Y-99876854D01*
X99153572Y-99932031D01*
X99087682Y-99955273D01*
X99019685Y-99939204D01*
X98993367Y-99919132D01*
X98061819Y-98987584D01*
X98028334Y-98926261D01*
X98025500Y-98899903D01*
X98025500Y-98004765D01*
X98045185Y-97937726D01*
X98046398Y-97935874D01*
X98134390Y-97804185D01*
X98134390Y-97804184D01*
X98134394Y-97804179D01*
X98194737Y-97658497D01*
X98225500Y-97503842D01*
X98225500Y-97346158D01*
X98225500Y-97346155D01*
X98225499Y-97346153D01*
X98194738Y-97191510D01*
X98194737Y-97191503D01*
X98194735Y-97191498D01*
X98134397Y-97045827D01*
X98134390Y-97045814D01*
X98046789Y-96914711D01*
X98046786Y-96914707D01*
X97935292Y-96803213D01*
X97935288Y-96803210D01*
X97804185Y-96715609D01*
X97804172Y-96715602D01*
X97658501Y-96655264D01*
X97658489Y-96655261D01*
X97503845Y-96624500D01*
X97503842Y-96624500D01*
X97346158Y-96624500D01*
X97346155Y-96624500D01*
X97191510Y-96655261D01*
X97191498Y-96655264D01*
X97045827Y-96715602D01*
X97045814Y-96715609D01*
X96914711Y-96803210D01*
X96914707Y-96803213D01*
X96803213Y-96914707D01*
X96803210Y-96914711D01*
X96715609Y-97045814D01*
X96715602Y-97045827D01*
X96655264Y-97191498D01*
X96655261Y-97191510D01*
X96624500Y-97346153D01*
X92822320Y-97346153D01*
X103288240Y-86880233D01*
X103349561Y-86846750D01*
X103351556Y-86846334D01*
X103462939Y-86824179D01*
X103608621Y-86763836D01*
X103739731Y-86676231D01*
X103851231Y-86564731D01*
X103938836Y-86433621D01*
X103999179Y-86287939D01*
X104029942Y-86133284D01*
X104029942Y-85975600D01*
X104029942Y-85975597D01*
X104029941Y-85975595D01*
X104017058Y-85910827D01*
X103999179Y-85820945D01*
X103992218Y-85804140D01*
X103938839Y-85675269D01*
X103938832Y-85675256D01*
X103851231Y-85544153D01*
X103851228Y-85544149D01*
X103739734Y-85432655D01*
X103739726Y-85432649D01*
X103608623Y-85345049D01*
X103608619Y-85345047D01*
X103598995Y-85341060D01*
X103558774Y-85314183D01*
X103305822Y-85061232D01*
X103295859Y-85051269D01*
X103295858Y-85051267D01*
X103208733Y-84964142D01*
X103157509Y-84929915D01*
X103106286Y-84895688D01*
X103106283Y-84895686D01*
X103106280Y-84895685D01*
X103032603Y-84865168D01*
X103032601Y-84865167D01*
X103025792Y-84862347D01*
X102992452Y-84848537D01*
X102932029Y-84836518D01*
X102927306Y-84835578D01*
X102927304Y-84835578D01*
X102871610Y-84824500D01*
X102871607Y-84824500D01*
X102871606Y-84824500D01*
X101332350Y-84824500D01*
X101265311Y-84804815D01*
X101263459Y-84803602D01*
X101169184Y-84740609D01*
X101169172Y-84740602D01*
X101023501Y-84680264D01*
X101023489Y-84680261D01*
X100868845Y-84649500D01*
X100868842Y-84649500D01*
X100711158Y-84649500D01*
X100711155Y-84649500D01*
X100556510Y-84680261D01*
X100556498Y-84680264D01*
X100410827Y-84740602D01*
X100410814Y-84740609D01*
X100279711Y-84828210D01*
X100279707Y-84828213D01*
X100168213Y-84939707D01*
X100168210Y-84939711D01*
X100080609Y-85070814D01*
X100080602Y-85070827D01*
X100020264Y-85216498D01*
X100020261Y-85216510D01*
X99989500Y-85371153D01*
X99989500Y-85528846D01*
X100020261Y-85683489D01*
X100020264Y-85683501D01*
X100080602Y-85829172D01*
X100080609Y-85829185D01*
X100168210Y-85960288D01*
X100168213Y-85960292D01*
X100279707Y-86071786D01*
X100279711Y-86071789D01*
X100410814Y-86159390D01*
X100410827Y-86159397D01*
X100535779Y-86211153D01*
X100556503Y-86219737D01*
X100711153Y-86250499D01*
X100711156Y-86250500D01*
X100711158Y-86250500D01*
X100868844Y-86250500D01*
X100868845Y-86250499D01*
X101023497Y-86219737D01*
X101169179Y-86159394D01*
X101263459Y-86096398D01*
X101330136Y-86075520D01*
X101332350Y-86075500D01*
X102024431Y-86075500D01*
X102091470Y-86095185D01*
X102137225Y-86147989D01*
X102147169Y-86217147D01*
X102118144Y-86280703D01*
X102112112Y-86287181D01*
X95549079Y-92850213D01*
X95487756Y-92883698D01*
X95418064Y-92878714D01*
X95362131Y-92836842D01*
X95342191Y-92792126D01*
X95341506Y-92792335D01*
X95339848Y-92786872D01*
X95339780Y-92786718D01*
X95339738Y-92786507D01*
X95339735Y-92786498D01*
X95279397Y-92640827D01*
X95279390Y-92640814D01*
X95191789Y-92509711D01*
X95191786Y-92509707D01*
X95080292Y-92398213D01*
X95080288Y-92398210D01*
X94949185Y-92310609D01*
X94949172Y-92310602D01*
X94803501Y-92250264D01*
X94803489Y-92250261D01*
X94648845Y-92219500D01*
X94648842Y-92219500D01*
X94491158Y-92219500D01*
X94491155Y-92219500D01*
X94336510Y-92250261D01*
X94336498Y-92250264D01*
X94190827Y-92310602D01*
X94190815Y-92310609D01*
X94096541Y-92373602D01*
X94029864Y-92394480D01*
X94027650Y-92394500D01*
X93117848Y-92394500D01*
X93050809Y-92374815D01*
X93005054Y-92322011D01*
X92996231Y-92294692D01*
X92969738Y-92161508D01*
X92969737Y-92161507D01*
X92969737Y-92161503D01*
X92969735Y-92161498D01*
X92909397Y-92015827D01*
X92909390Y-92015814D01*
X92821789Y-91884711D01*
X92821786Y-91884707D01*
X92710292Y-91773213D01*
X92710288Y-91773210D01*
X92579185Y-91685609D01*
X92579172Y-91685602D01*
X92433501Y-91625264D01*
X92433489Y-91625261D01*
X92278845Y-91594500D01*
X92278842Y-91594500D01*
X92121158Y-91594500D01*
X92121155Y-91594500D01*
X91966510Y-91625261D01*
X91966498Y-91625264D01*
X91820827Y-91685602D01*
X91820815Y-91685609D01*
X91726541Y-91748602D01*
X91659864Y-91769480D01*
X91657650Y-91769500D01*
X88713392Y-91769500D01*
X88657742Y-91780569D01*
X88657734Y-91780570D01*
X88654235Y-91781267D01*
X88592548Y-91793537D01*
X88574963Y-91800821D01*
X88567000Y-91804119D01*
X88566997Y-91804120D01*
X88478718Y-91840685D01*
X88478715Y-91840687D01*
X88478714Y-91840688D01*
X88432044Y-91871872D01*
X88432043Y-91871873D01*
X88376271Y-91909138D01*
X88376269Y-91909139D01*
X88338911Y-91946498D01*
X88289142Y-91996267D01*
X88289139Y-91996270D01*
X87971203Y-92314205D01*
X87909880Y-92347690D01*
X87907714Y-92348141D01*
X87796508Y-92370261D01*
X87796498Y-92370264D01*
X87650827Y-92430602D01*
X87650814Y-92430609D01*
X87519711Y-92518210D01*
X87519707Y-92518213D01*
X87408213Y-92629707D01*
X87408210Y-92629711D01*
X87320609Y-92760814D01*
X87320602Y-92760827D01*
X87260264Y-92906498D01*
X87260261Y-92906510D01*
X87229500Y-93061153D01*
X87229500Y-93218846D01*
X87260261Y-93373489D01*
X87260264Y-93373501D01*
X87320602Y-93519172D01*
X87320609Y-93519185D01*
X87408210Y-93650288D01*
X87408213Y-93650292D01*
X87461959Y-93704037D01*
X87495445Y-93765360D01*
X87495897Y-93815909D01*
X87489413Y-93848507D01*
X87489413Y-94006194D01*
X87520174Y-94160837D01*
X87520177Y-94160849D01*
X87580515Y-94306520D01*
X87580522Y-94306533D01*
X87644509Y-94402295D01*
X87665387Y-94468972D01*
X87646903Y-94536352D01*
X87644510Y-94540075D01*
X87610611Y-94590809D01*
X87610602Y-94590825D01*
X87550264Y-94736495D01*
X87550261Y-94736507D01*
X87519500Y-94891150D01*
X87519500Y-95048843D01*
X87550261Y-95203486D01*
X87550264Y-95203498D01*
X87599575Y-95322546D01*
X87607044Y-95392015D01*
X87599575Y-95417450D01*
X87550264Y-95536498D01*
X87550261Y-95536510D01*
X87519500Y-95691153D01*
X87519500Y-95848846D01*
X87550261Y-96003489D01*
X87550264Y-96003501D01*
X87610602Y-96149172D01*
X87610609Y-96149185D01*
X87698210Y-96280288D01*
X87698213Y-96280292D01*
X87809707Y-96391786D01*
X87809711Y-96391789D01*
X87940814Y-96479390D01*
X87940827Y-96479397D01*
X88086498Y-96539735D01*
X88086503Y-96539737D01*
X88241153Y-96570499D01*
X88241156Y-96570500D01*
X88241158Y-96570500D01*
X88398844Y-96570500D01*
X88398845Y-96570499D01*
X88553497Y-96539737D01*
X88699179Y-96479394D01*
X88793459Y-96416398D01*
X88860136Y-96395520D01*
X88862350Y-96395500D01*
X89491607Y-96395500D01*
X89552029Y-96383481D01*
X89612452Y-96371463D01*
X89645792Y-96357652D01*
X89726286Y-96324312D01*
X89792169Y-96280289D01*
X89828733Y-96255858D01*
X89915858Y-96168733D01*
X89915858Y-96168731D01*
X89926066Y-96158524D01*
X89926068Y-96158521D01*
X90128797Y-95955791D01*
X90190118Y-95922308D01*
X90192128Y-95921889D01*
X90303497Y-95899737D01*
X90449179Y-95839394D01*
X90580289Y-95751789D01*
X90691789Y-95640289D01*
X90779394Y-95509179D01*
X90839737Y-95363497D01*
X90870500Y-95208842D01*
X90870500Y-95208835D01*
X90871097Y-95202782D01*
X90872410Y-95202911D01*
X90879442Y-95178962D01*
X90886745Y-95148059D01*
X90889217Y-95145672D01*
X90890185Y-95142379D01*
X90914167Y-95121597D01*
X90937024Y-95099543D01*
X90941403Y-95097998D01*
X90942989Y-95096624D01*
X90970302Y-95087802D01*
X90992029Y-95083481D01*
X91052452Y-95071463D01*
X91052455Y-95071461D01*
X91052458Y-95071461D01*
X91085787Y-95057654D01*
X91085786Y-95057654D01*
X91085792Y-95057652D01*
X91166286Y-95024312D01*
X91238802Y-94975857D01*
X91268733Y-94955858D01*
X91341409Y-94883181D01*
X91344142Y-94880755D01*
X91372551Y-94867361D01*
X91400118Y-94852308D01*
X91402148Y-94851884D01*
X91513497Y-94829737D01*
X91659179Y-94769394D01*
X91790289Y-94681789D01*
X91901789Y-94570289D01*
X91989394Y-94439179D01*
X92049737Y-94293497D01*
X92080500Y-94138842D01*
X92080500Y-93981158D01*
X92080500Y-93981155D01*
X92080499Y-93981153D01*
X92049737Y-93826503D01*
X92045780Y-93816952D01*
X92038312Y-93747484D01*
X92069587Y-93685005D01*
X92129676Y-93649352D01*
X92160342Y-93645500D01*
X94027650Y-93645500D01*
X94094689Y-93665185D01*
X94096541Y-93666398D01*
X94190821Y-93729394D01*
X94190823Y-93729395D01*
X94190827Y-93729397D01*
X94277651Y-93765360D01*
X94336503Y-93789737D01*
X94336505Y-93789737D01*
X94336507Y-93789738D01*
X94336718Y-93789780D01*
X94336818Y-93789832D01*
X94342335Y-93791506D01*
X94342017Y-93792551D01*
X94398631Y-93822162D01*
X94433207Y-93882876D01*
X94429470Y-93952646D01*
X94400213Y-93999079D01*
X86767618Y-101631675D01*
X86706295Y-101665160D01*
X86636603Y-101660176D01*
X86580670Y-101618304D01*
X86556253Y-101552840D01*
X86558320Y-101519800D01*
X86560500Y-101508841D01*
X86560500Y-101351155D01*
X86560499Y-101351153D01*
X86529738Y-101196510D01*
X86529737Y-101196503D01*
X86529735Y-101196498D01*
X86469397Y-101050827D01*
X86469390Y-101050814D01*
X86381789Y-100919711D01*
X86381786Y-100919707D01*
X86270292Y-100808213D01*
X86270288Y-100808210D01*
X86139185Y-100720609D01*
X86139172Y-100720602D01*
X85993501Y-100660264D01*
X85993489Y-100660261D01*
X85838845Y-100629500D01*
X85838842Y-100629500D01*
X85681158Y-100629500D01*
X85638128Y-100638059D01*
X85606812Y-100644288D01*
X85537221Y-100638059D01*
X85494941Y-100610351D01*
X83808951Y-98924361D01*
X83775466Y-98863038D01*
X83775042Y-98861007D01*
X83752318Y-98746763D01*
X83737232Y-98710342D01*
X83691978Y-98601087D01*
X83691971Y-98601074D01*
X83604370Y-98469971D01*
X83604367Y-98469967D01*
X83492873Y-98358473D01*
X83492869Y-98358470D01*
X83361766Y-98270869D01*
X83361753Y-98270862D01*
X83216082Y-98210524D01*
X83216070Y-98210521D01*
X83061426Y-98179760D01*
X83061423Y-98179760D01*
X82903739Y-98179760D01*
X82903736Y-98179760D01*
X82749091Y-98210521D01*
X82749079Y-98210524D01*
X82603408Y-98270862D01*
X82603395Y-98270869D01*
X82472295Y-98358468D01*
X82472289Y-98358473D01*
X82415417Y-98415343D01*
X82354093Y-98448827D01*
X82314771Y-98449191D01*
X82314606Y-98450869D01*
X82308544Y-98450272D01*
X82150860Y-98450272D01*
X82150857Y-98450272D01*
X81996212Y-98481033D01*
X81996200Y-98481036D01*
X81850529Y-98541374D01*
X81850516Y-98541381D01*
X81719413Y-98628982D01*
X81719409Y-98628985D01*
X81607915Y-98740479D01*
X81607912Y-98740483D01*
X81520311Y-98871586D01*
X81520304Y-98871599D01*
X81459966Y-99017270D01*
X81459963Y-99017282D01*
X81429202Y-99171925D01*
X81429202Y-99329618D01*
X81459963Y-99484261D01*
X81459966Y-99484273D01*
X81520304Y-99629944D01*
X81520311Y-99629957D01*
X81607912Y-99761060D01*
X81607915Y-99761064D01*
X81719409Y-99872558D01*
X81719413Y-99872561D01*
X81850516Y-99960162D01*
X81850522Y-99960165D01*
X81850523Y-99960166D01*
X81996205Y-100020509D01*
X81996213Y-100020510D01*
X82001947Y-100022250D01*
X82053643Y-100053233D01*
X84255378Y-102254968D01*
X84288863Y-102316291D01*
X84289314Y-102318457D01*
X84300261Y-102373491D01*
X84300263Y-102373499D01*
X84360602Y-102519172D01*
X84360609Y-102519185D01*
X84448210Y-102650288D01*
X84448213Y-102650292D01*
X84559707Y-102761786D01*
X84559711Y-102761789D01*
X84690814Y-102849390D01*
X84690827Y-102849397D01*
X84836498Y-102909735D01*
X84836503Y-102909737D01*
X84991153Y-102940499D01*
X84991156Y-102940500D01*
X85154934Y-102940500D01*
X85154934Y-102941967D01*
X85216401Y-102953617D01*
X85267117Y-103001675D01*
X85283800Y-103069524D01*
X85261153Y-103135622D01*
X85247604Y-103151689D01*
X83162181Y-105237112D01*
X83100858Y-105270597D01*
X83031166Y-105265613D01*
X82975233Y-105223741D01*
X82950816Y-105158277D01*
X82950500Y-105149431D01*
X82950500Y-105046155D01*
X82950499Y-105046153D01*
X82940432Y-104995543D01*
X82919737Y-104891503D01*
X82919735Y-104891498D01*
X82859397Y-104745828D01*
X82859396Y-104745827D01*
X82859394Y-104745821D01*
X82796397Y-104651539D01*
X82775520Y-104584863D01*
X82775500Y-104582650D01*
X82775500Y-103872451D01*
X82795185Y-103805412D01*
X82796398Y-103803560D01*
X82829394Y-103754179D01*
X82889737Y-103608497D01*
X82920500Y-103453842D01*
X82920500Y-103296158D01*
X82920500Y-103296155D01*
X82920499Y-103296153D01*
X82889737Y-103141503D01*
X82831819Y-103001675D01*
X82829397Y-102995827D01*
X82829390Y-102995814D01*
X82741789Y-102864711D01*
X82741786Y-102864707D01*
X82630292Y-102753213D01*
X82630288Y-102753210D01*
X82499185Y-102665609D01*
X82499172Y-102665602D01*
X82353501Y-102605264D01*
X82353489Y-102605261D01*
X82198845Y-102574500D01*
X82198842Y-102574500D01*
X82041158Y-102574500D01*
X82041155Y-102574500D01*
X81886510Y-102605261D01*
X81886498Y-102605264D01*
X81767452Y-102654574D01*
X81697982Y-102662043D01*
X81672548Y-102654574D01*
X81553501Y-102605264D01*
X81553489Y-102605261D01*
X81398845Y-102574500D01*
X81398842Y-102574500D01*
X81241158Y-102574500D01*
X81241155Y-102574500D01*
X81086510Y-102605261D01*
X81086498Y-102605264D01*
X80967450Y-102654575D01*
X80897980Y-102662044D01*
X80872546Y-102654575D01*
X80753498Y-102605264D01*
X80753486Y-102605261D01*
X80598842Y-102574500D01*
X80598839Y-102574500D01*
X80441155Y-102574500D01*
X80441152Y-102574500D01*
X80286507Y-102605261D01*
X80286495Y-102605264D01*
X80135190Y-102667937D01*
X80134422Y-102666082D01*
X80075029Y-102678439D01*
X80035293Y-102666764D01*
X80034808Y-102667937D01*
X79883501Y-102605264D01*
X79883489Y-102605261D01*
X79728845Y-102574500D01*
X79728842Y-102574500D01*
X79571158Y-102574500D01*
X79571155Y-102574500D01*
X79416510Y-102605261D01*
X79416498Y-102605264D01*
X79270827Y-102665602D01*
X79270814Y-102665609D01*
X79139711Y-102753210D01*
X79139707Y-102753213D01*
X79028213Y-102864707D01*
X79028210Y-102864711D01*
X78940609Y-102995814D01*
X78940602Y-102995827D01*
X78880264Y-103141498D01*
X78880261Y-103141508D01*
X78858141Y-103252713D01*
X78825756Y-103314624D01*
X78824205Y-103316202D01*
X77178351Y-104962058D01*
X77117028Y-104995543D01*
X77047337Y-104990559D01*
X77021779Y-104977479D01*
X76929185Y-104915609D01*
X76929172Y-104915602D01*
X76783501Y-104855264D01*
X76783489Y-104855261D01*
X76628845Y-104824500D01*
X76628842Y-104824500D01*
X76471158Y-104824500D01*
X76471155Y-104824500D01*
X76316510Y-104855261D01*
X76316498Y-104855264D01*
X76170827Y-104915602D01*
X76170814Y-104915609D01*
X76039711Y-105003210D01*
X76039707Y-105003213D01*
X75928213Y-105114707D01*
X75928210Y-105114711D01*
X75840609Y-105245814D01*
X75840602Y-105245827D01*
X75780264Y-105391498D01*
X75780261Y-105391510D01*
X75749500Y-105546153D01*
X72315500Y-105546153D01*
X72315500Y-94800452D01*
X72335185Y-94733413D01*
X72351819Y-94712771D01*
X80112771Y-86951819D01*
X80174094Y-86918334D01*
X80200452Y-86915500D01*
X83647650Y-86915500D01*
X83714689Y-86935185D01*
X83716541Y-86936398D01*
X83810821Y-86999394D01*
X83810823Y-86999395D01*
X83810827Y-86999397D01*
X83937375Y-87051814D01*
X83956503Y-87059737D01*
X84111153Y-87090499D01*
X84111156Y-87090500D01*
X84111158Y-87090500D01*
X84268844Y-87090500D01*
X84268845Y-87090499D01*
X84423497Y-87059737D01*
X84569179Y-86999394D01*
X84700289Y-86911789D01*
X84811789Y-86800289D01*
X84899394Y-86669179D01*
X84959737Y-86523497D01*
X84990500Y-86368842D01*
X84990500Y-86211158D01*
X84990500Y-86211155D01*
X84990499Y-86211153D01*
X84977935Y-86147989D01*
X84959737Y-86056503D01*
X84959735Y-86056498D01*
X84899397Y-85910827D01*
X84899390Y-85910814D01*
X84811789Y-85779711D01*
X84811786Y-85779707D01*
X84700292Y-85668213D01*
X84700288Y-85668210D01*
X84569185Y-85580609D01*
X84569172Y-85580602D01*
X84423501Y-85520264D01*
X84423489Y-85520261D01*
X84268845Y-85489500D01*
X84268842Y-85489500D01*
X84111158Y-85489500D01*
X84111155Y-85489500D01*
X83956510Y-85520261D01*
X83956498Y-85520264D01*
X83810827Y-85580602D01*
X83810815Y-85580609D01*
X83716541Y-85643602D01*
X83649864Y-85664480D01*
X83647650Y-85664500D01*
X79951607Y-85664500D01*
X79828393Y-85664500D01*
X79774283Y-85675263D01*
X79774282Y-85675262D01*
X79707555Y-85688535D01*
X79707545Y-85688538D01*
X79593716Y-85735687D01*
X79593707Y-85735692D01*
X79491268Y-85804140D01*
X79466237Y-85829172D01*
X79404142Y-85891267D01*
X79404139Y-85891270D01*
X71291270Y-94004139D01*
X71291267Y-94004142D01*
X71247704Y-94047704D01*
X71204142Y-94091266D01*
X71173217Y-94137549D01*
X71173216Y-94137548D01*
X71135689Y-94193711D01*
X71135685Y-94193718D01*
X71116038Y-94241153D01*
X71102347Y-94274207D01*
X71088537Y-94307548D01*
X71079841Y-94351267D01*
X71073317Y-94384069D01*
X71072490Y-94388222D01*
X71072489Y-94388229D01*
X71064500Y-94428392D01*
X71064500Y-107957650D01*
X71044815Y-108024689D01*
X71043602Y-108026541D01*
X70980609Y-108120815D01*
X70980602Y-108120828D01*
X70920264Y-108266498D01*
X70920261Y-108266510D01*
X70889500Y-108421153D01*
X70000000Y-108421153D01*
X70000000Y-85124000D01*
X70019685Y-85056961D01*
X70072489Y-85011206D01*
X70124000Y-85000000D01*
X86400000Y-85000000D01*
X86400000Y-80804000D01*
X86419685Y-80736961D01*
X86472489Y-80691206D01*
X86524000Y-80680000D01*
X141876000Y-80680000D01*
X141943039Y-80699685D01*
G37*
%TD.AperFunction*%
%TD*%
M02*
