%TF.GenerationSoftware,KiCad,Pcbnew,10.0.1*%
%TF.CreationDate,2026-07-25T14:28:36+04:00*%
%TF.ProjectId,digital card,64696769-7461-46c2-9063-6172642e6b69,rev?*%
%TF.SameCoordinates,Original*%
%TF.FileFunction,Legend,Bot*%
%TF.FilePolarity,Positive*%
%FSLAX46Y46*%
G04 Gerber Fmt 4.6, Leading zero omitted, Abs format (unit mm)*
G04 Created by KiCad (PCBNEW 10.0.1) date 2026-07-25 14:28:36*
%MOMM*%
%LPD*%
G01*
G04 APERTURE LIST*
G04 Aperture macros list*
%AMRoundRect*
0 Rectangle with rounded corners*
0 $1 Rounding radius*
0 $2 $3 $4 $5 $6 $7 $8 $9 X,Y pos of 4 corners*
0 Add a 4 corners polygon primitive as box body*
4,1,4,$2,$3,$4,$5,$6,$7,$8,$9,$2,$3,0*
0 Add four circle primitives for the rounded corners*
1,1,$1+$1,$2,$3*
1,1,$1+$1,$4,$5*
1,1,$1+$1,$6,$7*
1,1,$1+$1,$8,$9*
0 Add four rect primitives between the rounded corners*
20,1,$1+$1,$2,$3,$4,$5,0*
20,1,$1+$1,$4,$5,$6,$7,0*
20,1,$1+$1,$6,$7,$8,$9,0*
20,1,$1+$1,$8,$9,$2,$3,0*%
%AMRotRect*
0 Rectangle, with rotation*
0 The origin of the aperture is its center*
0 $1 length*
0 $2 width*
0 $3 Rotation angle, in degrees counterclockwise*
0 Add horizontal line*
21,1,$1,$2,0,0,$3*%
%AMFreePoly0*
4,1,6,0.725000,-0.725000,-0.125000,-0.725000,-0.725000,-0.125000,-0.725000,0.725000,0.725000,0.725000,0.725000,-0.725000,0.725000,-0.725000,$1*%
G04 Aperture macros list end*
%ADD10C,0.100000*%
%ADD11C,0.200000*%
%ADD12C,0.150000*%
%ADD13C,0.120000*%
%ADD14C,0.250000*%
%ADD15C,0.060000*%
%ADD16C,0.127000*%
%ADD17C,2.200000*%
%ADD18C,0.700000*%
%ADD19RoundRect,0.225000X0.250000X-0.225000X0.250000X0.225000X-0.250000X0.225000X-0.250000X-0.225000X0*%
%ADD20RoundRect,0.200000X0.200000X0.275000X-0.200000X0.275000X-0.200000X-0.275000X0.200000X-0.275000X0*%
%ADD21RoundRect,0.225000X-0.225000X-0.250000X0.225000X-0.250000X0.225000X0.250000X-0.225000X0.250000X0*%
%ADD22RoundRect,0.218750X-0.256250X0.218750X-0.256250X-0.218750X0.256250X-0.218750X0.256250X0.218750X0*%
%ADD23RoundRect,0.250000X-0.250000X-0.475000X0.250000X-0.475000X0.250000X0.475000X-0.250000X0.475000X0*%
%ADD24RoundRect,0.250000X0.262500X0.450000X-0.262500X0.450000X-0.262500X-0.450000X0.262500X-0.450000X0*%
%ADD25RoundRect,0.250000X-0.262500X-0.450000X0.262500X-0.450000X0.262500X0.450000X-0.262500X0.450000X0*%
%ADD26RoundRect,0.225000X0.225000X0.250000X-0.225000X0.250000X-0.225000X-0.250000X0.225000X-0.250000X0*%
%ADD27R,1.200000X0.300000*%
%ADD28R,3.300000X2.200000*%
%ADD29R,1.230000X1.860000*%
%ADD30RoundRect,0.250000X-0.450000X0.262500X-0.450000X-0.262500X0.450000X-0.262500X0.450000X0.262500X0*%
%ADD31RoundRect,0.062500X0.062500X-0.350000X0.062500X0.350000X-0.062500X0.350000X-0.062500X-0.350000X0*%
%ADD32RoundRect,0.062500X0.350000X-0.062500X0.350000X0.062500X-0.350000X0.062500X-0.350000X-0.062500X0*%
%ADD33R,2.500000X2.500000*%
%ADD34RoundRect,0.250000X0.250000X0.475000X-0.250000X0.475000X-0.250000X-0.475000X0.250000X-0.475000X0*%
%ADD35RoundRect,0.250000X0.250000X1.500000X-0.250000X1.500000X-0.250000X-1.500000X0.250000X-1.500000X0*%
%ADD36RoundRect,0.250001X0.499999X1.449999X-0.499999X1.449999X-0.499999X-1.449999X0.499999X-1.449999X0*%
%ADD37RotRect,1.300000X1.300000X315.000000*%
%ADD38RoundRect,0.225000X0.225000X0.375000X-0.225000X0.375000X-0.225000X-0.375000X0.225000X-0.375000X0*%
%ADD39RoundRect,0.250000X0.450000X-0.262500X0.450000X0.262500X-0.450000X0.262500X-0.450000X-0.262500X0*%
%ADD40RoundRect,0.059250X0.177750X-0.422750X0.177750X0.422750X-0.177750X0.422750X-0.177750X-0.422750X0*%
%ADD41RoundRect,0.102000X0.650000X-0.450000X0.650000X0.450000X-0.650000X0.450000X-0.650000X-0.450000X0*%
%ADD42RoundRect,0.200000X-0.275000X0.200000X-0.275000X-0.200000X0.275000X-0.200000X0.275000X0.200000X0*%
%ADD43RoundRect,0.250000X0.475000X-0.250000X0.475000X0.250000X-0.475000X0.250000X-0.475000X-0.250000X0*%
%ADD44R,0.800000X0.400000*%
%ADD45R,0.400000X0.800000*%
%ADD46R,1.450000X1.450000*%
%ADD47FreePoly0,180.000000*%
%ADD48R,0.700000X0.700000*%
%ADD49RoundRect,0.225000X-0.250000X0.225000X-0.250000X-0.225000X0.250000X-0.225000X0.250000X0.225000X0*%
%ADD50RoundRect,0.150000X0.150000X-0.512500X0.150000X0.512500X-0.150000X0.512500X-0.150000X-0.512500X0*%
%ADD51RoundRect,0.114480X0.097520X-0.342520X0.097520X0.342520X-0.097520X0.342520X-0.097520X-0.342520X0*%
%ADD52RoundRect,0.114480X0.097520X-0.337520X0.097520X0.337520X-0.097520X0.337520X-0.097520X-0.337520X0*%
%ADD53RoundRect,0.114480X0.337520X-0.097520X0.337520X0.097520X-0.337520X0.097520X-0.337520X-0.097520X0*%
%ADD54R,0.500000X0.780000*%
%ADD55C,0.650000*%
%ADD56RoundRect,0.150000X0.150000X0.575000X-0.150000X0.575000X-0.150000X-0.575000X0.150000X-0.575000X0*%
%ADD57RoundRect,0.075000X0.075000X0.650000X-0.075000X0.650000X-0.075000X-0.650000X0.075000X-0.650000X0*%
%ADD58O,1.000000X1.600000*%
%ADD59O,1.000000X2.100000*%
G04 APERTURE END LIST*
D10*
X112000000Y-99000000D02*
X142000000Y-99000000D01*
X142000000Y-135000000D01*
X112000000Y-135000000D01*
X112000000Y-99000000D01*
X103743734Y-128442133D02*
X103134211Y-128442133D01*
X103438972Y-128746895D02*
X103438972Y-128137371D01*
X108475312Y-128665009D02*
X108399122Y-128703104D01*
X108399122Y-128703104D02*
X108284836Y-128703104D01*
X108284836Y-128703104D02*
X108170550Y-128665009D01*
X108170550Y-128665009D02*
X108094360Y-128588819D01*
X108094360Y-128588819D02*
X108056265Y-128512628D01*
X108056265Y-128512628D02*
X108018169Y-128360247D01*
X108018169Y-128360247D02*
X108018169Y-128245961D01*
X108018169Y-128245961D02*
X108056265Y-128093580D01*
X108056265Y-128093580D02*
X108094360Y-128017390D01*
X108094360Y-128017390D02*
X108170550Y-127941200D01*
X108170550Y-127941200D02*
X108284836Y-127903104D01*
X108284836Y-127903104D02*
X108361027Y-127903104D01*
X108361027Y-127903104D02*
X108475312Y-127941200D01*
X108475312Y-127941200D02*
X108513408Y-127979295D01*
X108513408Y-127979295D02*
X108513408Y-128245961D01*
X108513408Y-128245961D02*
X108361027Y-128245961D01*
X108856265Y-127903104D02*
X108856265Y-128703104D01*
X108856265Y-128703104D02*
X109313408Y-127903104D01*
X109313408Y-127903104D02*
X109313408Y-128703104D01*
X109694360Y-127903104D02*
X109694360Y-128703104D01*
X109694360Y-128703104D02*
X109884836Y-128703104D01*
X109884836Y-128703104D02*
X109999122Y-128665009D01*
X109999122Y-128665009D02*
X110075312Y-128588819D01*
X110075312Y-128588819D02*
X110113407Y-128512628D01*
X110113407Y-128512628D02*
X110151503Y-128360247D01*
X110151503Y-128360247D02*
X110151503Y-128245961D01*
X110151503Y-128245961D02*
X110113407Y-128093580D01*
X110113407Y-128093580D02*
X110075312Y-128017390D01*
X110075312Y-128017390D02*
X109999122Y-127941200D01*
X109999122Y-127941200D02*
X109884836Y-127903104D01*
X109884836Y-127903104D02*
X109694360Y-127903104D01*
D11*
X135390476Y-92090304D02*
X135390476Y-91442685D01*
X135390476Y-91442685D02*
X135428571Y-91366495D01*
X135428571Y-91366495D02*
X135466666Y-91328400D01*
X135466666Y-91328400D02*
X135542857Y-91290304D01*
X135542857Y-91290304D02*
X135695238Y-91290304D01*
X135695238Y-91290304D02*
X135771428Y-91328400D01*
X135771428Y-91328400D02*
X135809523Y-91366495D01*
X135809523Y-91366495D02*
X135847619Y-91442685D01*
X135847619Y-91442685D02*
X135847619Y-92090304D01*
X136571428Y-91823638D02*
X136571428Y-91290304D01*
X136380952Y-92128400D02*
X136190475Y-91556971D01*
X136190475Y-91556971D02*
X136685714Y-91556971D01*
D10*
X123287217Y-118001390D02*
X123430074Y-117953771D01*
X123430074Y-117953771D02*
X123477693Y-117906152D01*
X123477693Y-117906152D02*
X123525312Y-117810914D01*
X123525312Y-117810914D02*
X123525312Y-117668057D01*
X123525312Y-117668057D02*
X123477693Y-117572819D01*
X123477693Y-117572819D02*
X123430074Y-117525200D01*
X123430074Y-117525200D02*
X123334836Y-117477580D01*
X123334836Y-117477580D02*
X122953884Y-117477580D01*
X122953884Y-117477580D02*
X122953884Y-118477580D01*
X122953884Y-118477580D02*
X123287217Y-118477580D01*
X123287217Y-118477580D02*
X123382455Y-118429961D01*
X123382455Y-118429961D02*
X123430074Y-118382342D01*
X123430074Y-118382342D02*
X123477693Y-118287104D01*
X123477693Y-118287104D02*
X123477693Y-118191866D01*
X123477693Y-118191866D02*
X123430074Y-118096628D01*
X123430074Y-118096628D02*
X123382455Y-118049009D01*
X123382455Y-118049009D02*
X123287217Y-118001390D01*
X123287217Y-118001390D02*
X122953884Y-118001390D01*
X124382455Y-117477580D02*
X124382455Y-118001390D01*
X124382455Y-118001390D02*
X124334836Y-118096628D01*
X124334836Y-118096628D02*
X124239598Y-118144247D01*
X124239598Y-118144247D02*
X124049122Y-118144247D01*
X124049122Y-118144247D02*
X123953884Y-118096628D01*
X124382455Y-117525200D02*
X124287217Y-117477580D01*
X124287217Y-117477580D02*
X124049122Y-117477580D01*
X124049122Y-117477580D02*
X123953884Y-117525200D01*
X123953884Y-117525200D02*
X123906265Y-117620438D01*
X123906265Y-117620438D02*
X123906265Y-117715676D01*
X123906265Y-117715676D02*
X123953884Y-117810914D01*
X123953884Y-117810914D02*
X124049122Y-117858533D01*
X124049122Y-117858533D02*
X124287217Y-117858533D01*
X124287217Y-117858533D02*
X124382455Y-117906152D01*
X124715789Y-118144247D02*
X125096741Y-118144247D01*
X124858646Y-118477580D02*
X124858646Y-117620438D01*
X124858646Y-117620438D02*
X124906265Y-117525200D01*
X124906265Y-117525200D02*
X125001503Y-117477580D01*
X125001503Y-117477580D02*
X125096741Y-117477580D01*
X125287218Y-118144247D02*
X125668170Y-118144247D01*
X125430075Y-118477580D02*
X125430075Y-117620438D01*
X125430075Y-117620438D02*
X125477694Y-117525200D01*
X125477694Y-117525200D02*
X125572932Y-117477580D01*
X125572932Y-117477580D02*
X125668170Y-117477580D01*
X126382456Y-117525200D02*
X126287218Y-117477580D01*
X126287218Y-117477580D02*
X126096742Y-117477580D01*
X126096742Y-117477580D02*
X126001504Y-117525200D01*
X126001504Y-117525200D02*
X125953885Y-117620438D01*
X125953885Y-117620438D02*
X125953885Y-118001390D01*
X125953885Y-118001390D02*
X126001504Y-118096628D01*
X126001504Y-118096628D02*
X126096742Y-118144247D01*
X126096742Y-118144247D02*
X126287218Y-118144247D01*
X126287218Y-118144247D02*
X126382456Y-118096628D01*
X126382456Y-118096628D02*
X126430075Y-118001390D01*
X126430075Y-118001390D02*
X126430075Y-117906152D01*
X126430075Y-117906152D02*
X125953885Y-117810914D01*
X126858647Y-117477580D02*
X126858647Y-118144247D01*
X126858647Y-117953771D02*
X126906266Y-118049009D01*
X126906266Y-118049009D02*
X126953885Y-118096628D01*
X126953885Y-118096628D02*
X127049123Y-118144247D01*
X127049123Y-118144247D02*
X127144361Y-118144247D01*
X127382457Y-118144247D02*
X127620552Y-117477580D01*
X127858647Y-118144247D02*
X127620552Y-117477580D01*
X127620552Y-117477580D02*
X127525314Y-117239485D01*
X127525314Y-117239485D02*
X127477695Y-117191866D01*
X127477695Y-117191866D02*
X127382457Y-117144247D01*
X128906267Y-118477580D02*
X129572933Y-118477580D01*
X129572933Y-118477580D02*
X128906267Y-117477580D01*
X128906267Y-117477580D02*
X129572933Y-117477580D01*
X130096743Y-117477580D02*
X130001505Y-117525200D01*
X130001505Y-117525200D02*
X129953886Y-117572819D01*
X129953886Y-117572819D02*
X129906267Y-117668057D01*
X129906267Y-117668057D02*
X129906267Y-117953771D01*
X129906267Y-117953771D02*
X129953886Y-118049009D01*
X129953886Y-118049009D02*
X130001505Y-118096628D01*
X130001505Y-118096628D02*
X130096743Y-118144247D01*
X130096743Y-118144247D02*
X130239600Y-118144247D01*
X130239600Y-118144247D02*
X130334838Y-118096628D01*
X130334838Y-118096628D02*
X130382457Y-118049009D01*
X130382457Y-118049009D02*
X130430076Y-117953771D01*
X130430076Y-117953771D02*
X130430076Y-117668057D01*
X130430076Y-117668057D02*
X130382457Y-117572819D01*
X130382457Y-117572819D02*
X130334838Y-117525200D01*
X130334838Y-117525200D02*
X130239600Y-117477580D01*
X130239600Y-117477580D02*
X130096743Y-117477580D01*
X130858648Y-118144247D02*
X130858648Y-117477580D01*
X130858648Y-118049009D02*
X130906267Y-118096628D01*
X130906267Y-118096628D02*
X131001505Y-118144247D01*
X131001505Y-118144247D02*
X131144362Y-118144247D01*
X131144362Y-118144247D02*
X131239600Y-118096628D01*
X131239600Y-118096628D02*
X131287219Y-118001390D01*
X131287219Y-118001390D02*
X131287219Y-117477580D01*
X132144362Y-117525200D02*
X132049124Y-117477580D01*
X132049124Y-117477580D02*
X131858648Y-117477580D01*
X131858648Y-117477580D02*
X131763410Y-117525200D01*
X131763410Y-117525200D02*
X131715791Y-117620438D01*
X131715791Y-117620438D02*
X131715791Y-118001390D01*
X131715791Y-118001390D02*
X131763410Y-118096628D01*
X131763410Y-118096628D02*
X131858648Y-118144247D01*
X131858648Y-118144247D02*
X132049124Y-118144247D01*
X132049124Y-118144247D02*
X132144362Y-118096628D01*
X132144362Y-118096628D02*
X132191981Y-118001390D01*
X132191981Y-118001390D02*
X132191981Y-117906152D01*
X132191981Y-117906152D02*
X131715791Y-117810914D01*
D12*
X71466666Y-120345180D02*
X71466666Y-119630895D01*
X71466666Y-119630895D02*
X71419047Y-119488038D01*
X71419047Y-119488038D02*
X71323809Y-119392800D01*
X71323809Y-119392800D02*
X71180952Y-119345180D01*
X71180952Y-119345180D02*
X71085714Y-119345180D01*
X71847619Y-120345180D02*
X72466666Y-120345180D01*
X72466666Y-120345180D02*
X72133333Y-119964228D01*
X72133333Y-119964228D02*
X72276190Y-119964228D01*
X72276190Y-119964228D02*
X72371428Y-119916609D01*
X72371428Y-119916609D02*
X72419047Y-119868990D01*
X72419047Y-119868990D02*
X72466666Y-119773752D01*
X72466666Y-119773752D02*
X72466666Y-119535657D01*
X72466666Y-119535657D02*
X72419047Y-119440419D01*
X72419047Y-119440419D02*
X72371428Y-119392800D01*
X72371428Y-119392800D02*
X72276190Y-119345180D01*
X72276190Y-119345180D02*
X71990476Y-119345180D01*
X71990476Y-119345180D02*
X71895238Y-119392800D01*
X71895238Y-119392800D02*
X71847619Y-119440419D01*
D11*
X98590476Y-121290304D02*
X98590476Y-120642685D01*
X98590476Y-120642685D02*
X98628571Y-120566495D01*
X98628571Y-120566495D02*
X98666666Y-120528400D01*
X98666666Y-120528400D02*
X98742857Y-120490304D01*
X98742857Y-120490304D02*
X98895238Y-120490304D01*
X98895238Y-120490304D02*
X98971428Y-120528400D01*
X98971428Y-120528400D02*
X99009523Y-120566495D01*
X99009523Y-120566495D02*
X99047619Y-120642685D01*
X99047619Y-120642685D02*
X99047619Y-121290304D01*
X99352380Y-121290304D02*
X99885714Y-121290304D01*
X99885714Y-121290304D02*
X99542856Y-120490304D01*
X98233333Y-133790304D02*
X98233333Y-133218876D01*
X98233333Y-133218876D02*
X98195238Y-133104590D01*
X98195238Y-133104590D02*
X98119047Y-133028400D01*
X98119047Y-133028400D02*
X98004762Y-132990304D01*
X98004762Y-132990304D02*
X97928571Y-132990304D01*
X98576190Y-133714114D02*
X98614286Y-133752209D01*
X98614286Y-133752209D02*
X98690476Y-133790304D01*
X98690476Y-133790304D02*
X98880952Y-133790304D01*
X98880952Y-133790304D02*
X98957143Y-133752209D01*
X98957143Y-133752209D02*
X98995238Y-133714114D01*
X98995238Y-133714114D02*
X99033333Y-133637923D01*
X99033333Y-133637923D02*
X99033333Y-133561733D01*
X99033333Y-133561733D02*
X98995238Y-133447447D01*
X98995238Y-133447447D02*
X98538095Y-132990304D01*
X98538095Y-132990304D02*
X99033333Y-132990304D01*
D12*
X91993094Y-105814819D02*
X91993094Y-104814819D01*
X91993094Y-104814819D02*
X91754999Y-104814819D01*
X91754999Y-104814819D02*
X91612142Y-104862438D01*
X91612142Y-104862438D02*
X91516904Y-104957676D01*
X91516904Y-104957676D02*
X91469285Y-105052914D01*
X91469285Y-105052914D02*
X91421666Y-105243390D01*
X91421666Y-105243390D02*
X91421666Y-105386247D01*
X91421666Y-105386247D02*
X91469285Y-105576723D01*
X91469285Y-105576723D02*
X91516904Y-105671961D01*
X91516904Y-105671961D02*
X91612142Y-105767200D01*
X91612142Y-105767200D02*
X91754999Y-105814819D01*
X91754999Y-105814819D02*
X91993094Y-105814819D01*
X90516904Y-104814819D02*
X90993094Y-104814819D01*
X90993094Y-104814819D02*
X91040713Y-105291009D01*
X91040713Y-105291009D02*
X90993094Y-105243390D01*
X90993094Y-105243390D02*
X90897856Y-105195771D01*
X90897856Y-105195771D02*
X90659761Y-105195771D01*
X90659761Y-105195771D02*
X90564523Y-105243390D01*
X90564523Y-105243390D02*
X90516904Y-105291009D01*
X90516904Y-105291009D02*
X90469285Y-105386247D01*
X90469285Y-105386247D02*
X90469285Y-105624342D01*
X90469285Y-105624342D02*
X90516904Y-105719580D01*
X90516904Y-105719580D02*
X90564523Y-105767200D01*
X90564523Y-105767200D02*
X90659761Y-105814819D01*
X90659761Y-105814819D02*
X90897856Y-105814819D01*
X90897856Y-105814819D02*
X90993094Y-105767200D01*
X90993094Y-105767200D02*
X91040713Y-105719580D01*
D11*
X103790476Y-114090304D02*
X103790476Y-113442685D01*
X103790476Y-113442685D02*
X103828571Y-113366495D01*
X103828571Y-113366495D02*
X103866666Y-113328400D01*
X103866666Y-113328400D02*
X103942857Y-113290304D01*
X103942857Y-113290304D02*
X104095238Y-113290304D01*
X104095238Y-113290304D02*
X104171428Y-113328400D01*
X104171428Y-113328400D02*
X104209523Y-113366495D01*
X104209523Y-113366495D02*
X104247619Y-113442685D01*
X104247619Y-113442685D02*
X104247619Y-114090304D01*
X104590475Y-114014114D02*
X104628571Y-114052209D01*
X104628571Y-114052209D02*
X104704761Y-114090304D01*
X104704761Y-114090304D02*
X104895237Y-114090304D01*
X104895237Y-114090304D02*
X104971428Y-114052209D01*
X104971428Y-114052209D02*
X105009523Y-114014114D01*
X105009523Y-114014114D02*
X105047618Y-113937923D01*
X105047618Y-113937923D02*
X105047618Y-113861733D01*
X105047618Y-113861733D02*
X105009523Y-113747447D01*
X105009523Y-113747447D02*
X104552380Y-113290304D01*
X104552380Y-113290304D02*
X105047618Y-113290304D01*
D12*
X92560594Y-108884819D02*
X92560594Y-107884819D01*
X92560594Y-107884819D02*
X92322499Y-107884819D01*
X92322499Y-107884819D02*
X92179642Y-107932438D01*
X92179642Y-107932438D02*
X92084404Y-108027676D01*
X92084404Y-108027676D02*
X92036785Y-108122914D01*
X92036785Y-108122914D02*
X91989166Y-108313390D01*
X91989166Y-108313390D02*
X91989166Y-108456247D01*
X91989166Y-108456247D02*
X92036785Y-108646723D01*
X92036785Y-108646723D02*
X92084404Y-108741961D01*
X92084404Y-108741961D02*
X92179642Y-108837200D01*
X92179642Y-108837200D02*
X92322499Y-108884819D01*
X92322499Y-108884819D02*
X92560594Y-108884819D01*
X91132023Y-107884819D02*
X91322499Y-107884819D01*
X91322499Y-107884819D02*
X91417737Y-107932438D01*
X91417737Y-107932438D02*
X91465356Y-107980057D01*
X91465356Y-107980057D02*
X91560594Y-108122914D01*
X91560594Y-108122914D02*
X91608213Y-108313390D01*
X91608213Y-108313390D02*
X91608213Y-108694342D01*
X91608213Y-108694342D02*
X91560594Y-108789580D01*
X91560594Y-108789580D02*
X91512975Y-108837200D01*
X91512975Y-108837200D02*
X91417737Y-108884819D01*
X91417737Y-108884819D02*
X91227261Y-108884819D01*
X91227261Y-108884819D02*
X91132023Y-108837200D01*
X91132023Y-108837200D02*
X91084404Y-108789580D01*
X91084404Y-108789580D02*
X91036785Y-108694342D01*
X91036785Y-108694342D02*
X91036785Y-108456247D01*
X91036785Y-108456247D02*
X91084404Y-108361009D01*
X91084404Y-108361009D02*
X91132023Y-108313390D01*
X91132023Y-108313390D02*
X91227261Y-108265771D01*
X91227261Y-108265771D02*
X91417737Y-108265771D01*
X91417737Y-108265771D02*
X91512975Y-108313390D01*
X91512975Y-108313390D02*
X91560594Y-108361009D01*
X91560594Y-108361009D02*
X91608213Y-108456247D01*
X83338095Y-84095180D02*
X83338095Y-83285657D01*
X83338095Y-83285657D02*
X83385714Y-83190419D01*
X83385714Y-83190419D02*
X83433333Y-83142800D01*
X83433333Y-83142800D02*
X83528571Y-83095180D01*
X83528571Y-83095180D02*
X83719047Y-83095180D01*
X83719047Y-83095180D02*
X83814285Y-83142800D01*
X83814285Y-83142800D02*
X83861904Y-83190419D01*
X83861904Y-83190419D02*
X83909523Y-83285657D01*
X83909523Y-83285657D02*
X83909523Y-84095180D01*
X84909523Y-83095180D02*
X84338095Y-83095180D01*
X84623809Y-83095180D02*
X84623809Y-84095180D01*
X84623809Y-84095180D02*
X84528571Y-83952323D01*
X84528571Y-83952323D02*
X84433333Y-83857085D01*
X84433333Y-83857085D02*
X84338095Y-83809466D01*
X97761905Y-77899104D02*
X97285715Y-77899104D01*
X97857143Y-78184819D02*
X97523810Y-77184819D01*
X97523810Y-77184819D02*
X97190477Y-78184819D01*
X96857143Y-77518152D02*
X96857143Y-78184819D01*
X96857143Y-77613390D02*
X96809524Y-77565771D01*
X96809524Y-77565771D02*
X96714286Y-77518152D01*
X96714286Y-77518152D02*
X96571429Y-77518152D01*
X96571429Y-77518152D02*
X96476191Y-77565771D01*
X96476191Y-77565771D02*
X96428572Y-77661009D01*
X96428572Y-77661009D02*
X96428572Y-78184819D01*
X96095238Y-77518152D02*
X95714286Y-77518152D01*
X95952381Y-77184819D02*
X95952381Y-78041961D01*
X95952381Y-78041961D02*
X95904762Y-78137200D01*
X95904762Y-78137200D02*
X95809524Y-78184819D01*
X95809524Y-78184819D02*
X95714286Y-78184819D01*
X95000000Y-78137200D02*
X95095238Y-78184819D01*
X95095238Y-78184819D02*
X95285714Y-78184819D01*
X95285714Y-78184819D02*
X95380952Y-78137200D01*
X95380952Y-78137200D02*
X95428571Y-78041961D01*
X95428571Y-78041961D02*
X95428571Y-77661009D01*
X95428571Y-77661009D02*
X95380952Y-77565771D01*
X95380952Y-77565771D02*
X95285714Y-77518152D01*
X95285714Y-77518152D02*
X95095238Y-77518152D01*
X95095238Y-77518152D02*
X95000000Y-77565771D01*
X95000000Y-77565771D02*
X94952381Y-77661009D01*
X94952381Y-77661009D02*
X94952381Y-77756247D01*
X94952381Y-77756247D02*
X95428571Y-77851485D01*
X94523809Y-77518152D02*
X94523809Y-78184819D01*
X94523809Y-77613390D02*
X94476190Y-77565771D01*
X94476190Y-77565771D02*
X94380952Y-77518152D01*
X94380952Y-77518152D02*
X94238095Y-77518152D01*
X94238095Y-77518152D02*
X94142857Y-77565771D01*
X94142857Y-77565771D02*
X94095238Y-77661009D01*
X94095238Y-77661009D02*
X94095238Y-78184819D01*
X93619047Y-77518152D02*
X93619047Y-78184819D01*
X93619047Y-77613390D02*
X93571428Y-77565771D01*
X93571428Y-77565771D02*
X93476190Y-77518152D01*
X93476190Y-77518152D02*
X93333333Y-77518152D01*
X93333333Y-77518152D02*
X93238095Y-77565771D01*
X93238095Y-77565771D02*
X93190476Y-77661009D01*
X93190476Y-77661009D02*
X93190476Y-78184819D01*
X92285714Y-78184819D02*
X92285714Y-77661009D01*
X92285714Y-77661009D02*
X92333333Y-77565771D01*
X92333333Y-77565771D02*
X92428571Y-77518152D01*
X92428571Y-77518152D02*
X92619047Y-77518152D01*
X92619047Y-77518152D02*
X92714285Y-77565771D01*
X92285714Y-78137200D02*
X92380952Y-78184819D01*
X92380952Y-78184819D02*
X92619047Y-78184819D01*
X92619047Y-78184819D02*
X92714285Y-78137200D01*
X92714285Y-78137200D02*
X92761904Y-78041961D01*
X92761904Y-78041961D02*
X92761904Y-77946723D01*
X92761904Y-77946723D02*
X92714285Y-77851485D01*
X92714285Y-77851485D02*
X92619047Y-77803866D01*
X92619047Y-77803866D02*
X92380952Y-77803866D01*
X92380952Y-77803866D02*
X92285714Y-77756247D01*
X91095237Y-77899104D02*
X90619047Y-77899104D01*
X91190475Y-78184819D02*
X90857142Y-77184819D01*
X90857142Y-77184819D02*
X90523809Y-78184819D01*
X90190475Y-78184819D02*
X90190475Y-77518152D01*
X90190475Y-77708628D02*
X90142856Y-77613390D01*
X90142856Y-77613390D02*
X90095237Y-77565771D01*
X90095237Y-77565771D02*
X89999999Y-77518152D01*
X89999999Y-77518152D02*
X89904761Y-77518152D01*
X89190475Y-78137200D02*
X89285713Y-78184819D01*
X89285713Y-78184819D02*
X89476189Y-78184819D01*
X89476189Y-78184819D02*
X89571427Y-78137200D01*
X89571427Y-78137200D02*
X89619046Y-78041961D01*
X89619046Y-78041961D02*
X89619046Y-77661009D01*
X89619046Y-77661009D02*
X89571427Y-77565771D01*
X89571427Y-77565771D02*
X89476189Y-77518152D01*
X89476189Y-77518152D02*
X89285713Y-77518152D01*
X89285713Y-77518152D02*
X89190475Y-77565771D01*
X89190475Y-77565771D02*
X89142856Y-77661009D01*
X89142856Y-77661009D02*
X89142856Y-77756247D01*
X89142856Y-77756247D02*
X89619046Y-77851485D01*
X88285713Y-78184819D02*
X88285713Y-77661009D01*
X88285713Y-77661009D02*
X88333332Y-77565771D01*
X88333332Y-77565771D02*
X88428570Y-77518152D01*
X88428570Y-77518152D02*
X88619046Y-77518152D01*
X88619046Y-77518152D02*
X88714284Y-77565771D01*
X88285713Y-78137200D02*
X88380951Y-78184819D01*
X88380951Y-78184819D02*
X88619046Y-78184819D01*
X88619046Y-78184819D02*
X88714284Y-78137200D01*
X88714284Y-78137200D02*
X88761903Y-78041961D01*
X88761903Y-78041961D02*
X88761903Y-77946723D01*
X88761903Y-77946723D02*
X88714284Y-77851485D01*
X88714284Y-77851485D02*
X88619046Y-77803866D01*
X88619046Y-77803866D02*
X88380951Y-77803866D01*
X88380951Y-77803866D02*
X88285713Y-77756247D01*
D11*
X109690476Y-117940304D02*
X109690476Y-117292685D01*
X109690476Y-117292685D02*
X109728571Y-117216495D01*
X109728571Y-117216495D02*
X109766666Y-117178400D01*
X109766666Y-117178400D02*
X109842857Y-117140304D01*
X109842857Y-117140304D02*
X109995238Y-117140304D01*
X109995238Y-117140304D02*
X110071428Y-117178400D01*
X110071428Y-117178400D02*
X110109523Y-117216495D01*
X110109523Y-117216495D02*
X110147619Y-117292685D01*
X110147619Y-117292685D02*
X110147619Y-117940304D01*
X110452380Y-117940304D02*
X110947618Y-117940304D01*
X110947618Y-117940304D02*
X110680952Y-117635542D01*
X110680952Y-117635542D02*
X110795237Y-117635542D01*
X110795237Y-117635542D02*
X110871428Y-117597447D01*
X110871428Y-117597447D02*
X110909523Y-117559352D01*
X110909523Y-117559352D02*
X110947618Y-117483161D01*
X110947618Y-117483161D02*
X110947618Y-117292685D01*
X110947618Y-117292685D02*
X110909523Y-117216495D01*
X110909523Y-117216495D02*
X110871428Y-117178400D01*
X110871428Y-117178400D02*
X110795237Y-117140304D01*
X110795237Y-117140304D02*
X110566666Y-117140304D01*
X110566666Y-117140304D02*
X110490475Y-117178400D01*
X110490475Y-117178400D02*
X110452380Y-117216495D01*
X71583333Y-130540304D02*
X71583333Y-129968876D01*
X71583333Y-129968876D02*
X71545238Y-129854590D01*
X71545238Y-129854590D02*
X71469047Y-129778400D01*
X71469047Y-129778400D02*
X71354762Y-129740304D01*
X71354762Y-129740304D02*
X71278571Y-129740304D01*
X72383333Y-129740304D02*
X71926190Y-129740304D01*
X72154762Y-129740304D02*
X72154762Y-130540304D01*
X72154762Y-130540304D02*
X72078571Y-130426019D01*
X72078571Y-130426019D02*
X72002381Y-130349828D01*
X72002381Y-130349828D02*
X71926190Y-130311733D01*
%TO.C,C22*%
D13*
X94842500Y-107440580D02*
X94842500Y-107159420D01*
X95862500Y-107440580D02*
X95862500Y-107159420D01*
%TO.C,R5*%
X84457258Y-89557500D02*
X83982742Y-89557500D01*
X84457258Y-90602500D02*
X83982742Y-90602500D01*
%TO.C,R14*%
X89837258Y-120977500D02*
X89362742Y-120977500D01*
X89837258Y-122022500D02*
X89362742Y-122022500D01*
%TO.C,C11*%
X96859420Y-128990000D02*
X97140580Y-128990000D01*
X96859420Y-130010000D02*
X97140580Y-130010000D01*
%TO.C,D2*%
X86265000Y-125915000D02*
X87735000Y-125915000D01*
X86265000Y-128200000D02*
X86265000Y-125915000D01*
X87735000Y-125915000D02*
X87735000Y-128200000D01*
%TO.C,C10*%
X105738748Y-125265000D02*
X106261252Y-125265000D01*
X105738748Y-126735000D02*
X106261252Y-126735000D01*
%TO.C,R16*%
X89747064Y-113995000D02*
X89292936Y-113995000D01*
X89747064Y-115465000D02*
X89292936Y-115465000D01*
%TO.C,R13*%
X89837258Y-124977500D02*
X89362742Y-124977500D01*
X89837258Y-126022500D02*
X89362742Y-126022500D01*
%TO.C,R17*%
X97772936Y-98265000D02*
X98227064Y-98265000D01*
X97772936Y-99735000D02*
X98227064Y-99735000D01*
%TO.C,R4*%
X84532258Y-87367500D02*
X84057742Y-87367500D01*
X84532258Y-88412500D02*
X84057742Y-88412500D01*
%TO.C,C20*%
X84093080Y-109340000D02*
X83811920Y-109340000D01*
X84093080Y-110360000D02*
X83811920Y-110360000D01*
%TO.C,J3*%
D14*
X66930000Y-117440000D02*
X68590000Y-117450000D01*
X66930000Y-118250000D02*
X66930000Y-100250000D01*
X66930000Y-118250000D02*
X73190000Y-118250000D01*
X68590000Y-101060000D02*
X66930000Y-101050000D01*
X73190000Y-100250000D02*
X66930000Y-100250000D01*
X73190000Y-103050000D02*
X73190000Y-100250000D01*
X73190000Y-118250000D02*
X73190000Y-115450000D01*
D15*
X72820000Y-118050000D02*
G75*
G02*
X72760000Y-118050000I-30000J0D01*
G01*
X72760000Y-118050000D02*
G75*
G02*
X72820000Y-118050000I30000J0D01*
G01*
%TO.C,SW1*%
D12*
X104600000Y-89190000D02*
X104600000Y-89620000D01*
X104600000Y-89190000D02*
X108660000Y-89190000D01*
X104600000Y-91840000D02*
X104600000Y-92270000D01*
X104600000Y-92270000D02*
X108660000Y-92270000D01*
X108660000Y-89190000D02*
X108660000Y-89620000D01*
X108660000Y-92270000D02*
X108660000Y-91840000D01*
D15*
X104160000Y-89260000D02*
G75*
G02*
X104100000Y-89260000I-30000J0D01*
G01*
X104100000Y-89260000D02*
G75*
G02*
X104160000Y-89260000I30000J0D01*
G01*
D14*
X107530000Y-90730000D02*
G75*
G02*
X105730000Y-90730000I-900000J0D01*
G01*
X105730000Y-90730000D02*
G75*
G02*
X107530000Y-90730000I900000J0D01*
G01*
%TO.C,D3*%
D13*
X82265000Y-125915000D02*
X83735000Y-125915000D01*
X82265000Y-128200000D02*
X82265000Y-125915000D01*
X83735000Y-125915000D02*
X83735000Y-128200000D01*
%TO.C,R3*%
X129107064Y-85895000D02*
X128652936Y-85895000D01*
X129107064Y-87365000D02*
X128652936Y-87365000D01*
%TO.C,R9*%
X133985000Y-87385436D02*
X133985000Y-87839564D01*
X135455000Y-87385436D02*
X135455000Y-87839564D01*
%TO.C,C16*%
X78865580Y-109990000D02*
X78584420Y-109990000D01*
X78865580Y-111010000D02*
X78584420Y-111010000D01*
%TO.C,U7*%
X93365000Y-121215000D02*
X93365000Y-121940000D01*
X93365000Y-124710000D02*
X93365000Y-125435000D01*
X93365000Y-125435000D02*
X94090000Y-125435000D01*
X94090000Y-121215000D02*
X93365000Y-121215000D01*
X96860000Y-125435000D02*
X97585000Y-125435000D01*
X97585000Y-121215000D02*
X96860000Y-121215000D01*
X97585000Y-121940000D02*
X97585000Y-121215000D01*
X97585000Y-125435000D02*
X97585000Y-124710000D01*
X96715000Y-126265000D02*
X96235000Y-126265000D01*
X96475000Y-125935000D01*
X96715000Y-126265000D01*
G36*
X96715000Y-126265000D02*
G01*
X96235000Y-126265000D01*
X96475000Y-125935000D01*
X96715000Y-126265000D01*
G37*
%TO.C,C6*%
X78029420Y-125800000D02*
X78310580Y-125800000D01*
X78029420Y-126820000D02*
X78310580Y-126820000D01*
%TO.C,C7*%
X101859420Y-121490000D02*
X102140580Y-121490000D01*
X101859420Y-122510000D02*
X102140580Y-122510000D01*
%TO.C,C18*%
X79161252Y-115240000D02*
X78638748Y-115240000D01*
X79161252Y-116710000D02*
X78638748Y-116710000D01*
%TO.C,C23*%
X83571920Y-111140000D02*
X83853080Y-111140000D01*
X83571920Y-112160000D02*
X83853080Y-112160000D01*
%TO.C,J2*%
X101940000Y-130690000D02*
X102960000Y-130690000D01*
X101940000Y-134940000D02*
X101940000Y-130690000D01*
X102960000Y-130690000D02*
X102960000Y-132290000D01*
X102960000Y-132290000D02*
X104240000Y-132290000D01*
X107760000Y-132290000D02*
X107760000Y-129400000D01*
X108340000Y-138510000D02*
X103660000Y-138510000D01*
X109040000Y-130690000D02*
X109040000Y-132290000D01*
X109040000Y-132290000D02*
X107760000Y-132290000D01*
X110060000Y-130690000D02*
X109040000Y-130690000D01*
X110060000Y-134940000D02*
X110060000Y-130690000D01*
%TO.C,C24*%
X93761252Y-98265000D02*
X93238748Y-98265000D01*
X93761252Y-99735000D02*
X93238748Y-99735000D01*
%TO.C,L1*%
D14*
X85692500Y-110350000D02*
X85692500Y-112100000D01*
X86942500Y-113350000D02*
X88692500Y-113350000D01*
X87442500Y-110350000D02*
X85692500Y-110350000D01*
X88692500Y-113350000D02*
X88692500Y-111600000D01*
D15*
X85622500Y-113500000D02*
G75*
G02*
X85562500Y-113500000I-30000J0D01*
G01*
X85562500Y-113500000D02*
G75*
G02*
X85622500Y-113500000I30000J0D01*
G01*
%TO.C,D5*%
D13*
X93592500Y-104360000D02*
X89582500Y-104360000D01*
X93592500Y-104360000D02*
X93592500Y-106360000D01*
X93592500Y-106360000D02*
X89582500Y-106360000D01*
%TO.C,C19*%
X78840580Y-113515000D02*
X78559420Y-113515000D01*
X78840580Y-114535000D02*
X78559420Y-114535000D01*
%TO.C,R19*%
X87765000Y-99727064D02*
X87765000Y-99272936D01*
X89235000Y-99727064D02*
X89235000Y-99272936D01*
%TO.C,R15*%
X89837258Y-122977500D02*
X89362742Y-122977500D01*
X89837258Y-124022500D02*
X89362742Y-124022500D01*
%TO.C,C9*%
X107261252Y-112265000D02*
X106738748Y-112265000D01*
X107261252Y-113735000D02*
X106738748Y-113735000D01*
%TO.C,U2*%
D16*
X101045000Y-117035000D02*
X101045000Y-114935000D01*
X103455000Y-117035000D02*
X103455000Y-114935000D01*
D11*
X103100000Y-117930000D02*
G75*
G02*
X102900000Y-117930000I-100000J0D01*
G01*
X102900000Y-117930000D02*
G75*
G02*
X103100000Y-117930000I100000J0D01*
G01*
%TO.C,R2*%
D13*
X109075000Y-95912936D02*
X109075000Y-96367064D01*
X110545000Y-95912936D02*
X110545000Y-96367064D01*
%TO.C,C2*%
X103490000Y-82890580D02*
X103490000Y-82609420D01*
X104510000Y-82890580D02*
X104510000Y-82609420D01*
%TO.C,D4*%
X84265000Y-125915000D02*
X85735000Y-125915000D01*
X84265000Y-128200000D02*
X84265000Y-125915000D01*
X85735000Y-125915000D02*
X85735000Y-128200000D01*
%TO.C,C5*%
X75170580Y-125810000D02*
X74889420Y-125810000D01*
X75170580Y-126830000D02*
X74889420Y-126830000D01*
%TO.C,R6*%
X74257500Y-128492742D02*
X74257500Y-128967258D01*
X75302500Y-128492742D02*
X75302500Y-128967258D01*
%TO.C,R8*%
X102860436Y-110265000D02*
X103314564Y-110265000D01*
X102860436Y-111735000D02*
X103314564Y-111735000D01*
%TO.C,C3*%
X100765000Y-82761252D02*
X100765000Y-82238748D01*
X102235000Y-82761252D02*
X102235000Y-82238748D01*
%TO.C,R7*%
X77787500Y-128482742D02*
X77787500Y-128957258D01*
X78832500Y-128482742D02*
X78832500Y-128957258D01*
%TO.C,C4*%
X106391252Y-94355000D02*
X105868748Y-94355000D01*
X106391252Y-95825000D02*
X105868748Y-95825000D01*
%TO.C,C12*%
X93509420Y-126540000D02*
X93790580Y-126540000D01*
X93509420Y-127560000D02*
X93790580Y-127560000D01*
%TO.C,C13*%
X138235580Y-85320000D02*
X137954420Y-85320000D01*
X138235580Y-86340000D02*
X137954420Y-86340000D01*
%TO.C,D6*%
X94182500Y-107430000D02*
X90172500Y-107430000D01*
X94182500Y-107430000D02*
X94182500Y-109430000D01*
X94182500Y-109430000D02*
X90172500Y-109430000D01*
%TO.C,U1*%
X86200000Y-75080000D02*
X86200000Y-75680000D01*
X86200000Y-91280000D02*
X86200000Y-92080000D01*
X86200000Y-92080000D02*
X87000000Y-92080000D01*
X86400000Y-75280000D02*
X86400000Y-91880000D01*
X86400000Y-91880000D02*
X99600000Y-91880000D01*
X86950000Y-75080000D02*
X86200000Y-75080000D01*
X98925000Y-75080000D02*
X99775000Y-75080000D01*
X99600000Y-75280000D02*
X86400000Y-75280000D01*
X99600000Y-80680000D02*
X86400000Y-80680000D01*
X99600000Y-91880000D02*
X99600000Y-75280000D01*
X99800000Y-91280000D02*
X99800000Y-92080000D01*
X99800000Y-92080000D02*
X99000000Y-92080000D01*
%TO.C,C8*%
X99761252Y-118265000D02*
X99238748Y-118265000D01*
X99761252Y-119735000D02*
X99238748Y-119735000D01*
%TO.C,SW2*%
D12*
X91970000Y-94460000D02*
X91970000Y-94890000D01*
X91970000Y-94460000D02*
X96030000Y-94460000D01*
X91970000Y-97110000D02*
X91970000Y-97540000D01*
X91970000Y-97540000D02*
X96030000Y-97540000D01*
X96030000Y-94460000D02*
X96030000Y-94890000D01*
X96030000Y-97540000D02*
X96030000Y-97110000D01*
D15*
X91530000Y-94530000D02*
G75*
G02*
X91470000Y-94530000I-30000J0D01*
G01*
X91470000Y-94530000D02*
G75*
G02*
X91530000Y-94530000I30000J0D01*
G01*
D14*
X94900000Y-96000000D02*
G75*
G02*
X93100000Y-96000000I-900000J0D01*
G01*
X93100000Y-96000000D02*
G75*
G02*
X94900000Y-96000000I900000J0D01*
G01*
%TO.C,C21*%
D13*
X87622500Y-108250580D02*
X87622500Y-107969420D01*
X88642500Y-108250580D02*
X88642500Y-107969420D01*
%TO.C,C14*%
X140740000Y-88719420D02*
X140740000Y-89000580D01*
X141760000Y-88719420D02*
X141760000Y-89000580D01*
%TO.C,U3*%
X105440000Y-116590000D02*
X105440000Y-118410000D01*
X105440000Y-118410000D02*
X105490000Y-118410000D01*
X105490000Y-116590000D02*
X105440000Y-116590000D01*
X107390000Y-116590000D02*
X106610000Y-116590000D01*
X108510000Y-118410000D02*
X108560000Y-118410000D01*
X108560000Y-116590000D02*
X108510000Y-116590000D01*
X108560000Y-118410000D02*
X108560000Y-116590000D01*
X108840000Y-119190000D02*
X108510000Y-118950000D01*
X108840000Y-118710000D01*
X108840000Y-119190000D01*
G36*
X108840000Y-119190000D02*
G01*
X108510000Y-118950000D01*
X108840000Y-118710000D01*
X108840000Y-119190000D01*
G37*
%TO.C,R11*%
X93747500Y-118697742D02*
X93747500Y-119172258D01*
X94792500Y-118697742D02*
X94792500Y-119172258D01*
%TO.C,C15*%
X77550000Y-106350580D02*
X77550000Y-106069420D01*
X78570000Y-106350580D02*
X78570000Y-106069420D01*
%TO.C,R10*%
X95747500Y-118697742D02*
X95747500Y-119172258D01*
X96792500Y-118697742D02*
X96792500Y-119172258D01*
%TO.C,R1*%
X102062258Y-89377500D02*
X101587742Y-89377500D01*
X102062258Y-90422500D02*
X101587742Y-90422500D01*
%TO.C,U4*%
D11*
X138880000Y-90245000D02*
G75*
G02*
X138840000Y-90245000I-20000J0D01*
G01*
X138840000Y-90245000D02*
G75*
G02*
X138880000Y-90245000I20000J0D01*
G01*
%TO.C,R12*%
D13*
X89977064Y-126625000D02*
X89522936Y-126625000D01*
X89977064Y-128095000D02*
X89522936Y-128095000D01*
%TO.C,Q2*%
D12*
X90085000Y-111450000D02*
X90085000Y-112400000D01*
X90085000Y-111450000D02*
X90655000Y-111450000D01*
X90865000Y-112750000D02*
X91305000Y-112750000D01*
X91515000Y-111450000D02*
X92085000Y-111450000D01*
X92085000Y-111450000D02*
X92085000Y-112400000D01*
D15*
X92115000Y-113150000D02*
G75*
G02*
X92055000Y-113150000I-30000J0D01*
G01*
X92055000Y-113150000D02*
G75*
G02*
X92115000Y-113150000I30000J0D01*
G01*
D12*
X92315000Y-112950000D02*
G75*
G02*
X92155000Y-112950000I-80000J0D01*
G01*
X92155000Y-112950000D02*
G75*
G02*
X92315000Y-112950000I80000J0D01*
G01*
%TO.C,D1*%
D13*
X87170000Y-106730000D02*
X83160000Y-106730000D01*
X87170000Y-106730000D02*
X87170000Y-108730000D01*
X87170000Y-108730000D02*
X83160000Y-108730000D01*
%TO.C,J1*%
X71780000Y-134510000D02*
X71780000Y-136510000D01*
X71780000Y-138410000D02*
X71780000Y-140310000D01*
X81180000Y-134510000D02*
X81180000Y-136510000D01*
X81180000Y-138410000D02*
X81180000Y-140310000D01*
X81180000Y-140310000D02*
X71780000Y-140310000D01*
%TO.C,C1*%
X106531252Y-87265000D02*
X106008748Y-87265000D01*
X106531252Y-88735000D02*
X106008748Y-88735000D01*
%TO.C,R18*%
X102227064Y-93265000D02*
X101772936Y-93265000D01*
X102227064Y-94735000D02*
X101772936Y-94735000D01*
%TO.C,C17*%
X78840580Y-111740000D02*
X78559420Y-111740000D01*
X78840580Y-112760000D02*
X78559420Y-112760000D01*
%TD*%
%LPC*%
D17*
%TO.C,REF\u002A\u002A*%
X162250000Y-82750000D03*
%TD*%
%TO.C,REF\u002A\u002A*%
X67750000Y-82750000D03*
%TD*%
%TO.C,REF\u002A\u002A*%
X162250000Y-137250000D03*
%TD*%
D18*
%TO.C,AE1*%
X145360000Y-85280000D03*
X151660000Y-109980000D03*
%TD*%
D17*
%TO.C,REF\u002A\u002A*%
X67750000Y-137250000D03*
%TD*%
D19*
%TO.C,C22*%
X95352500Y-108075000D03*
X95352500Y-106525000D03*
%TD*%
D20*
%TO.C,R5*%
X85045000Y-90080000D03*
X83395000Y-90080000D03*
%TD*%
%TO.C,R14*%
X90425000Y-121500000D03*
X88775000Y-121500000D03*
%TD*%
D21*
%TO.C,C11*%
X96225000Y-129500000D03*
X97775000Y-129500000D03*
%TD*%
D22*
%TO.C,D2*%
X87000000Y-126612500D03*
X87000000Y-128187500D03*
%TD*%
D23*
%TO.C,C10*%
X105050000Y-126000000D03*
X106950000Y-126000000D03*
%TD*%
D24*
%TO.C,R16*%
X90432500Y-114730000D03*
X88607500Y-114730000D03*
%TD*%
D20*
%TO.C,R13*%
X90425000Y-125500000D03*
X88775000Y-125500000D03*
%TD*%
D25*
%TO.C,R17*%
X97087500Y-99000000D03*
X98912500Y-99000000D03*
%TD*%
D20*
%TO.C,R4*%
X85120000Y-87890000D03*
X83470000Y-87890000D03*
%TD*%
D26*
%TO.C,C20*%
X84727500Y-109850000D03*
X83177500Y-109850000D03*
%TD*%
D27*
%TO.C,J3*%
X73000000Y-115000000D03*
X73000000Y-114500000D03*
X73000000Y-114000000D03*
X73000000Y-113500000D03*
X73000000Y-113000000D03*
X73000000Y-112500000D03*
X73000000Y-112000000D03*
X73000000Y-111500000D03*
X73000000Y-111000000D03*
X73000000Y-110500000D03*
X73000000Y-110000000D03*
X73000000Y-109500000D03*
X73000000Y-109000000D03*
X73000000Y-108500000D03*
X73000000Y-108000000D03*
X73000000Y-107500000D03*
X73000000Y-107000000D03*
X73000000Y-106500000D03*
X73000000Y-106000000D03*
X73000000Y-105500000D03*
X73000000Y-105000000D03*
X73000000Y-104500000D03*
X73000000Y-104000000D03*
X73000000Y-103500000D03*
D28*
X70460000Y-116650000D03*
X70470000Y-101850000D03*
%TD*%
D29*
%TO.C,SW1*%
X108810000Y-90730000D03*
X104450000Y-90730000D03*
%TD*%
D22*
%TO.C,D3*%
X83000000Y-126612500D03*
X83000000Y-128187500D03*
%TD*%
D24*
%TO.C,R3*%
X129792500Y-86630000D03*
X127967500Y-86630000D03*
%TD*%
D30*
%TO.C,R9*%
X134720000Y-86700000D03*
X134720000Y-88525000D03*
%TD*%
D26*
%TO.C,C16*%
X79500000Y-110500000D03*
X77950000Y-110500000D03*
%TD*%
D31*
%TO.C,U7*%
X96475000Y-125262500D03*
X95975000Y-125262500D03*
X95475000Y-125262500D03*
X94975000Y-125262500D03*
X94475000Y-125262500D03*
D32*
X93537500Y-124325000D03*
X93537500Y-123825000D03*
X93537500Y-123325000D03*
X93537500Y-122825000D03*
X93537500Y-122325000D03*
D31*
X94475000Y-121387500D03*
X94975000Y-121387500D03*
X95475000Y-121387500D03*
X95975000Y-121387500D03*
X96475000Y-121387500D03*
D32*
X97412500Y-122325000D03*
X97412500Y-122825000D03*
X97412500Y-123325000D03*
X97412500Y-123825000D03*
X97412500Y-124325000D03*
D33*
X95475000Y-123325000D03*
%TD*%
D21*
%TO.C,C6*%
X77395000Y-126310000D03*
X78945000Y-126310000D03*
%TD*%
%TO.C,C7*%
X101225000Y-122000000D03*
X102775000Y-122000000D03*
%TD*%
D34*
%TO.C,C18*%
X79850000Y-115975000D03*
X77950000Y-115975000D03*
%TD*%
D21*
%TO.C,C23*%
X82937500Y-111650000D03*
X84487500Y-111650000D03*
%TD*%
D35*
%TO.C,J2*%
X107000000Y-131150000D03*
X105000000Y-131150000D03*
D36*
X109350000Y-136900000D03*
X102650000Y-136900000D03*
%TD*%
D34*
%TO.C,C24*%
X94450000Y-99000000D03*
X92550000Y-99000000D03*
%TD*%
D37*
%TO.C,L1*%
X86132500Y-112910000D03*
X88252500Y-110790000D03*
%TD*%
D38*
%TO.C,D5*%
X92882500Y-105360000D03*
X89582500Y-105360000D03*
%TD*%
D26*
%TO.C,C19*%
X79475000Y-114025000D03*
X77925000Y-114025000D03*
%TD*%
D39*
%TO.C,R19*%
X88500000Y-100412500D03*
X88500000Y-98587500D03*
%TD*%
D20*
%TO.C,R15*%
X90425000Y-123500000D03*
X88775000Y-123500000D03*
%TD*%
D34*
%TO.C,C9*%
X107950000Y-113000000D03*
X106050000Y-113000000D03*
%TD*%
D40*
%TO.C,U2*%
X103000000Y-116970000D03*
X102500000Y-116970000D03*
X102000000Y-116970000D03*
X101500000Y-116970000D03*
X101500000Y-115000000D03*
X102000000Y-115000000D03*
X102500000Y-115000000D03*
X103000000Y-115000000D03*
D41*
X102250000Y-115985000D03*
%TD*%
D30*
%TO.C,R2*%
X109810000Y-95227500D03*
X109810000Y-97052500D03*
%TD*%
D19*
%TO.C,C2*%
X104000000Y-83525000D03*
X104000000Y-81975000D03*
%TD*%
D22*
%TO.C,D4*%
X85000000Y-126612500D03*
X85000000Y-128187500D03*
%TD*%
D26*
%TO.C,C5*%
X75805000Y-126320000D03*
X74255000Y-126320000D03*
%TD*%
D42*
%TO.C,R6*%
X74780000Y-127905000D03*
X74780000Y-129555000D03*
%TD*%
D25*
%TO.C,R8*%
X102175000Y-111000000D03*
X104000000Y-111000000D03*
%TD*%
D43*
%TO.C,C3*%
X101500000Y-83450000D03*
X101500000Y-81550000D03*
%TD*%
D42*
%TO.C,R7*%
X78310000Y-127895000D03*
X78310000Y-129545000D03*
%TD*%
D34*
%TO.C,C4*%
X107080000Y-95090000D03*
X105180000Y-95090000D03*
%TD*%
D21*
%TO.C,C12*%
X92875000Y-127050000D03*
X94425000Y-127050000D03*
%TD*%
D26*
%TO.C,C13*%
X138870000Y-85830000D03*
X137320000Y-85830000D03*
%TD*%
D38*
%TO.C,D6*%
X93472500Y-108430000D03*
X90172500Y-108430000D03*
%TD*%
D44*
%TO.C,U1*%
X98900000Y-82280000D03*
X98900000Y-83080000D03*
X98900000Y-83880000D03*
X98900000Y-84680000D03*
X98900000Y-85480000D03*
X98900000Y-86280000D03*
X98900000Y-87080000D03*
X98900000Y-87880000D03*
X98900000Y-88680000D03*
X98900000Y-89480000D03*
X98900000Y-90280000D03*
D45*
X97800000Y-91180000D03*
X97000000Y-91180000D03*
X96200000Y-91180000D03*
X95400000Y-91180000D03*
X94600000Y-91180000D03*
X93800000Y-91180000D03*
X93000000Y-91180000D03*
X92200000Y-91180000D03*
X91400000Y-91180000D03*
X90600000Y-91180000D03*
X89800000Y-91180000D03*
X89000000Y-91180000D03*
X88200000Y-91180000D03*
D44*
X87100000Y-90280000D03*
X87100000Y-89480000D03*
X87100000Y-88680000D03*
X87100000Y-87880000D03*
X87100000Y-87080000D03*
X87100000Y-86280000D03*
X87100000Y-85480000D03*
X87100000Y-84680000D03*
X87100000Y-83880000D03*
X87100000Y-83080000D03*
X87100000Y-82280000D03*
D45*
X88200000Y-81380000D03*
X89000000Y-81380000D03*
X89800000Y-81380000D03*
X90600000Y-81380000D03*
X91400000Y-81380000D03*
X92200000Y-81380000D03*
X93000000Y-81380000D03*
X93800000Y-81380000D03*
X94600000Y-81380000D03*
X95400000Y-81380000D03*
X96200000Y-81380000D03*
X97000000Y-81380000D03*
X97800000Y-81380000D03*
D46*
X94975000Y-88255000D03*
X94975000Y-86280000D03*
D47*
X94975000Y-84305000D03*
D46*
X93000000Y-88255000D03*
X93000000Y-86280000D03*
X93000000Y-84305000D03*
X91025000Y-88255000D03*
X91025000Y-86280000D03*
X91025000Y-84305000D03*
D48*
X87050000Y-81330000D03*
X87050000Y-91230000D03*
X98950000Y-91230000D03*
X98950000Y-81330000D03*
%TD*%
D34*
%TO.C,C8*%
X100450000Y-119000000D03*
X98550000Y-119000000D03*
%TD*%
D29*
%TO.C,SW2*%
X96180000Y-96000000D03*
X91820000Y-96000000D03*
%TD*%
D19*
%TO.C,C21*%
X88132500Y-108885000D03*
X88132500Y-107335000D03*
%TD*%
D49*
%TO.C,C14*%
X141250000Y-88085000D03*
X141250000Y-89635000D03*
%TD*%
D50*
%TO.C,U3*%
X107950000Y-118637500D03*
X107000000Y-118637500D03*
X106050000Y-118637500D03*
X106050000Y-116362500D03*
X107950000Y-116362500D03*
%TD*%
D42*
%TO.C,R11*%
X94270000Y-118110000D03*
X94270000Y-119760000D03*
%TD*%
D19*
%TO.C,C15*%
X78060000Y-106985000D03*
X78060000Y-105435000D03*
%TD*%
D42*
%TO.C,R10*%
X96270000Y-118110000D03*
X96270000Y-119760000D03*
%TD*%
D20*
%TO.C,R1*%
X102650000Y-89900000D03*
X101000000Y-89900000D03*
%TD*%
D51*
%TO.C,U4*%
X138860000Y-89540000D03*
X138360000Y-89540000D03*
D52*
X137860000Y-89540000D03*
D53*
X137665000Y-88845000D03*
D52*
X137860000Y-88150000D03*
X138360000Y-88150000D03*
X138860000Y-88150000D03*
D53*
X139055000Y-88845000D03*
%TD*%
D24*
%TO.C,R12*%
X90662500Y-127360000D03*
X88837500Y-127360000D03*
%TD*%
D54*
%TO.C,Q2*%
X91735000Y-112940000D03*
X90435000Y-112940000D03*
X91085000Y-111260000D03*
%TD*%
D38*
%TO.C,D1*%
X86460000Y-107730000D03*
X83160000Y-107730000D03*
%TD*%
D55*
%TO.C,J1*%
X79370000Y-133810000D03*
X73590000Y-133810000D03*
D56*
X79730000Y-132365000D03*
X78930000Y-132365000D03*
D57*
X77730000Y-132365000D03*
X76730000Y-132365000D03*
X76230000Y-132365000D03*
X75230000Y-132365000D03*
D56*
X74030000Y-132365000D03*
X73230000Y-132365000D03*
X73230000Y-132365000D03*
X74030000Y-132365000D03*
D57*
X74730000Y-132365000D03*
X75730000Y-132365000D03*
X77230000Y-132365000D03*
X78230000Y-132365000D03*
D56*
X78930000Y-132365000D03*
X79730000Y-132365000D03*
D58*
X80800000Y-137460000D03*
D59*
X80800000Y-133280000D03*
D58*
X72160000Y-137460000D03*
D59*
X72160000Y-133280000D03*
%TD*%
D34*
%TO.C,C1*%
X107220000Y-88000000D03*
X105320000Y-88000000D03*
%TD*%
D24*
%TO.C,R18*%
X102912500Y-94000000D03*
X101087500Y-94000000D03*
%TD*%
D26*
%TO.C,C17*%
X79475000Y-112250000D03*
X77925000Y-112250000D03*
%TD*%
%LPD*%
M02*
