M48
; DRILL file KiCad 10.0.1 date 2026-07-25T14:28:41
; FORMAT={-:-/ absolute / metric / decimal}
; #@! TF.CreationDate,2026-07-25T14:28:41+04:00
; #@! TF.GenerationSoftware,Kicad,Pcbnew,10.0.1
; #@! TF.FileFunction,Plated,1,2,PTH
FMAT,2
METRIC
; #@! TA.AperFunction,Plated,PTH,ViaDrill
T1C0.300
; #@! TA.AperFunction,Plated,PTH,ComponentDrill
T2C0.300
; #@! TA.AperFunction,Plated,PTH,ComponentDrill
T3C0.600
%
G90
G05
T1
X71.5Y-111.5
X71.69Y-108.5
X74.255Y-126.32
X75.74Y-114.94
X76.55Y-105.625
X76.583Y-106.424
X78.06Y-106.985
X78.945Y-126.31
X79.5Y-110.5
X79.65Y-103.375
X80.52Y-103.375
X80.53Y-105.32
X80.73Y-113.04
X81.28Y-109.95
X81.32Y-103.375
X81.354Y-105.203
X82.12Y-103.375
X82.15Y-105.125
X82.23Y-99.251
X82.25Y-130.75
X82.938Y-111.65
X82.983Y-98.98
X84.19Y-86.29
X85.07Y-102.14
X85.76Y-101.43
X87.05Y-91.23
X88.03Y-93.14
X88.29Y-93.927
X88.32Y-94.97
X88.32Y-95.77
X88.608Y-114.73
X88.837Y-127.36
X90.07Y-95.13
X91.28Y-94.06
X92.2Y-92.395
X92.882Y-105.36
X93.0Y-86.28
X93.47Y-112.6
X94.42Y-128.4
X94.57Y-93.02
X94.7Y-122.55
X94.88Y-113.09
X95.36Y-109.35
X95.475Y-123.325
X95.475Y-124.25
X96.18Y-96.0
X97.425Y-97.425
X97.775Y-129.5
X98.5Y-125.5
X98.55Y-119.0
X99.0Y-123.0
X99.64Y-94.32
X99.875Y-110.825
X100.0Y-99.712
X100.79Y-85.45
X100.79Y-92.18
X101.0Y-95.5
X102.0Y-126.0
X102.5Y-113.5
X102.775Y-122.0
X102.881Y-112.75
X103.229Y-86.054
X105.18Y-95.09
X106.95Y-126.0
X107.0Y-118.637
X108.81Y-90.73
X132.12Y-86.25
X134.7Y-85.45
X136.37Y-87.85
X136.48Y-89.64
X137.32Y-85.83
X138.0Y-91.0
X142.414Y-87.674
X143.67Y-88.97
T2
X145.36Y-85.28
X151.66Y-109.98
T3
X72.16Y-133.83G85X72.16Y-132.73
G05
X72.16Y-137.76G85X72.16Y-137.16
G05
X80.8Y-133.83G85X80.8Y-132.73
G05
X80.8Y-137.76G85X80.8Y-137.16
G05
M30
